<svg width="88" height="88" viewBox="0 0 88 88" fill="none" xmlns="http://www.w3.org/2000/svg">
<path d="M7.06492 87.7616C5.36166 87.4203 3.7975 86.5826 2.5695 85.3539C1.3415 84.1253 0.504607 82.5607 0.164254 80.8572C-0.116172 79.4392 -0.0429602 77.9739 0.377419 76.5909C0.797799 75.2078 1.5524 73.9496 2.57453 72.9275C3.59666 71.9054 4.85484 71.1508 6.23788 70.7304C7.62091 70.31 9.08621 70.2368 10.5043 70.5172C12.207 70.8582 13.7708 71.6954 14.9988 72.9234C16.2267 74.1513 17.0639 75.7151 17.4049 77.4179C17.6853 78.8359 17.6121 80.3012 17.1918 81.6843C16.7714 83.0673 16.0168 84.3255 14.9946 85.3476C13.9725 86.3697 12.7143 87.1243 11.3313 87.5447C9.94826 87.9651 8.48297 88.042 7.06492 87.7616ZM77.4943 17.4826C75.7915 17.1416 74.2277 16.3044 72.9997 15.0764C71.7718 13.8485 70.9346 12.2847 70.5936 10.5819C70.3132 9.16384 70.3864 7.69855 70.8068 6.31551C71.2271 4.93248 71.9817 3.6743 73.0039 2.65217C74.026 1.63004 75.2842 0.875436 76.6672 0.455056C78.0502 0.0346765 79.5155 -0.0385355 80.9336 0.241891C82.6364 0.582893 84.2002 1.42008 85.4281 2.64802C86.6561 3.87597 87.4932 5.43979 87.8343 7.14256C88.1147 8.56061 88.0415 10.0259 87.6211 11.4089C87.2007 12.792 86.4461 14.0501 85.424 15.0723C84.4018 16.0944 83.1437 16.849 81.7606 17.2694C80.3776 17.6898 78.9123 17.763 77.4943 17.4826ZM44.0763 22.0366C48.2819 22.0366 52.2126 23.2246 55.5529 25.2742L65.0313 15.7959C58.2638 10.7648 49.9128 8.33521 41.5026 8.95072C33.0924 9.56624 25.1841 13.1858 19.2213 19.1486C13.2585 25.1114 9.63894 33.0197 9.02342 41.4299C8.40791 49.8401 10.8375 58.1911 15.8686 64.9586L25.3506 55.4766C23.3105 52.1478 22.1946 48.3354 22.1178 44.432C22.041 40.5286 23.006 36.6753 24.9136 33.2689C26.8211 29.8624 29.6022 27.026 32.9703 25.0517C36.3385 23.0775 40.1721 22.0367 44.0763 22.0366ZM62.8019 32.5232C65.3794 36.7296 66.4656 41.6812 65.8857 46.5802C65.3057 51.4792 63.0934 56.0404 59.605 59.5287C56.1167 63.017 51.5556 65.2294 46.6566 65.8093C41.7576 66.3892 36.806 65.303 32.5996 62.7256L23.1176 72.2039C29.885 77.235 38.2361 79.6646 46.6462 79.0491C55.0564 78.4335 62.9648 74.814 68.9276 68.8512C74.8904 62.8884 78.5099 54.9801 79.1254 46.5699C79.7409 38.1597 77.3114 29.8086 72.2803 23.0412L62.8019 32.5232Z" fill="#D8F520"/>
</svg>
