<svg width="234" height="44" viewBox="0 0 234 44" fill="none" xmlns="http://www.w3.org/2000/svg">
<g id="Group 5">
<g id="bazar development.">
<path d="M39.2646 18.0282V0.365967H46.3548C48.1883 0.365967 49.5844 0.794907 50.5433 1.65279C51.5189 2.49385 52.0067 3.57881 52.0067 4.90769C52.0067 6.01788 51.7039 6.90941 51.0983 7.58225C50.5096 8.23828 49.7863 8.68404 48.9284 8.91954C49.9377 9.12139 50.7703 9.62603 51.4264 10.4334C52.0824 11.224 52.4104 12.1492 52.4104 13.2089C52.4104 14.6051 51.9058 15.7573 50.8965 16.6657C49.8872 17.574 48.4574 18.0282 46.6071 18.0282H39.2646ZM42.4943 7.78411H45.8754C46.7837 7.78411 47.4818 7.57384 47.9696 7.15331C48.4574 6.73278 48.7013 6.13563 48.7013 5.36186C48.7013 4.62173 48.4574 4.0414 47.9696 3.62087C47.4986 3.18352 46.7837 2.96484 45.8249 2.96484H42.4943V7.78411ZM42.4943 15.4041H46.1025C47.0613 15.4041 47.8014 15.1854 48.3229 14.7481C48.8611 14.2939 49.1303 13.6631 49.1303 12.8557C49.1303 12.0315 48.8527 11.3838 48.2976 10.9128C47.7425 10.4419 46.994 10.2064 46.052 10.2064H42.4943V15.4041Z" fill="white"/>
<path d="M54.9083 18.0282L61.3677 0.365967H65.0011L71.4604 18.0282H68.0289L66.6159 13.9407H59.7276L58.2894 18.0282H54.9083ZM60.6107 11.4175H65.7328L63.1591 4.07504L60.6107 11.4175Z" fill="white"/>
<path d="M74.215 18.0282V15.5555L82.3396 3.06577H74.2907V0.365967H86.0739V2.83868L77.8988 15.3284H86.1244V18.0282H74.215Z" fill="white"/>
<path d="M88.9101 18.0282L95.3695 0.365967H99.0028L105.462 18.0282H102.031L100.618 13.9407H93.7294L92.2912 18.0282H88.9101ZM94.6125 11.4175H99.7346L97.1609 4.07504L94.6125 11.4175Z" fill="white"/>
<path d="M108.747 18.0282V0.365967H115.231C116.644 0.365967 117.805 0.609874 118.713 1.09769C119.638 1.56868 120.328 2.2163 120.782 3.04053C121.236 3.84795 121.463 4.74789 121.463 5.74033C121.463 6.81689 121.177 7.80093 120.606 8.69245C120.05 9.58397 119.176 10.2316 117.981 10.6353L121.64 18.0282H117.931L114.651 11.0642H111.976V18.0282H108.747ZM111.976 8.69245H115.029C116.106 8.69245 116.896 8.43172 117.401 7.91027C117.906 7.38881 118.158 6.69914 118.158 5.84126C118.158 5.0002 117.906 4.32736 117.401 3.82272C116.913 3.31808 116.114 3.06577 115.004 3.06577H111.976V8.69245Z" fill="white"/>
<path d="M39.2984 43.4203V25.7579H45.3288C47.3978 25.7579 49.0968 26.128 50.4256 26.8681C51.7713 27.5914 52.7638 28.6177 53.403 29.9466C54.059 31.2586 54.387 32.8062 54.387 34.5892C54.387 36.3723 54.059 37.9282 53.403 39.2571C52.7638 40.5691 51.7713 41.5952 50.4256 42.3354C49.0968 43.0587 47.3978 43.4203 45.3288 43.4203H39.2984ZM42.5281 40.6448H45.1774C46.6577 40.6448 47.8268 40.4093 48.6847 39.9383C49.5425 39.4505 50.1565 38.7609 50.5266 37.8693C50.8966 36.961 51.0817 35.8676 51.0817 34.5892C51.0817 33.3276 50.8966 32.2427 50.5266 31.3343C50.1565 30.426 49.5425 29.7277 48.6847 29.2399C47.8268 28.7521 46.6577 28.5082 45.1774 28.5082H42.5281V40.6448Z" fill="white"/>
<path d="M58.2459 43.4203V25.7579H69.7769V28.3568H61.4756V33.2015H69.0199V35.7246H61.4756V40.8215H69.7769V43.4203H58.2459Z" fill="white"/>
<path d="M78.9644 43.4203L72.5051 25.7579H75.9618L80.9577 40.115L85.9788 25.7579H89.3851L82.9258 43.4203H78.9644Z" fill="white"/>
<path d="M92.4941 43.4203V25.7579H104.025V28.3568H95.7238V33.2015H103.268V35.7246H95.7238V40.8215H104.025V43.4203H92.4941Z" fill="white"/>
<path d="M108.091 43.4203V25.7579H111.32V40.8972H119.142V43.4203H108.091Z" fill="white"/>
<path d="M129.671 43.7231C127.905 43.7231 126.358 43.3362 125.029 42.5625C123.717 41.7887 122.682 40.7205 121.925 39.358C121.185 37.9787 120.815 36.3891 120.815 34.5892C120.815 32.7893 121.185 31.2082 121.925 29.8456C122.682 28.4663 123.717 27.3895 125.029 26.6158C126.358 25.842 127.905 25.4551 129.671 25.4551C131.421 25.4551 132.96 25.842 134.289 26.6158C135.618 27.3895 136.652 28.4663 137.392 29.8456C138.132 31.2082 138.503 32.7893 138.503 34.5892C138.503 36.3891 138.132 37.9787 137.392 39.358C136.652 40.7205 135.618 41.7887 134.289 42.5625C132.96 43.3362 131.421 43.7231 129.671 43.7231ZM129.671 40.8215C131.354 40.8215 132.691 40.2664 133.683 39.1562C134.693 38.046 135.197 36.5236 135.197 34.5892C135.197 32.6548 134.693 31.1325 133.683 30.0223C132.691 28.9121 131.354 28.3568 129.671 28.3568C127.989 28.3568 126.644 28.9121 125.634 30.0223C124.625 31.1325 124.12 32.6548 124.12 34.5892C124.12 36.5236 124.625 38.046 125.634 39.1562C126.644 40.2664 127.989 40.8215 129.671 40.8215Z" fill="white"/>
<path d="M142.363 43.4203V25.7579H148.898C150.311 25.7579 151.48 25.9934 152.405 26.4644C153.331 26.9354 154.02 27.583 154.474 28.4072C154.929 29.2315 155.156 30.1568 155.156 31.1829C155.156 32.1586 154.937 33.0585 154.5 33.8827C154.062 34.6901 153.381 35.3462 152.456 35.8508C151.531 36.3386 150.345 36.5825 148.898 36.5825H145.593V43.4203H142.363ZM145.593 33.9584H148.696C149.823 33.9584 150.631 33.7145 151.119 33.2267C151.623 32.7221 151.876 32.0408 151.876 31.1829C151.876 30.3082 151.623 29.6268 151.119 29.1389C150.631 28.6343 149.823 28.382 148.696 28.382H145.593V33.9584Z" fill="white"/>
<path d="M158.699 43.4203V25.7579H162.534L168.161 36.961L173.712 25.7579H177.547V43.4203H174.317V31.2334L169.397 40.8972H166.849L161.928 31.2334V43.4203H158.699Z" fill="white"/>
<path d="M181.983 43.4203V25.7579H193.514V28.3568H185.213V33.2015H192.757V35.7246H185.213V40.8215H193.514V43.4203H181.983Z" fill="white"/>
<path d="M197.579 43.4203V25.7579H200.809L209.11 38.1974V25.7579H212.34V43.4203H209.11L200.809 31.0063V43.4203H197.579Z" fill="white"/>
<path d="M220.886 43.4203V28.3568H215.739V25.7579H229.288V28.3568H224.116V43.4203H220.886Z" fill="white"/>
<path d="M231.982 43.597C231.393 43.597 230.905 43.4119 230.518 43.0419C230.148 42.6718 229.963 42.226 229.963 41.7046C229.963 41.1663 230.148 40.7121 230.518 40.3421C230.905 39.972 231.393 39.787 231.982 39.787C232.57 39.787 233.05 39.972 233.42 40.3421C233.807 40.7121 234 41.1663 234 41.7046C234 42.226 233.807 42.6718 233.42 43.0419C233.05 43.4119 232.57 43.597 231.982 43.597Z" fill="white"/>
</g>
<path id="Rectangle 2" d="M27.9455 0.373143L31.5553 0.373047L3.49284 43.4126H0L27.9455 0.373143Z" fill="#D8F520"/>
</g>
</svg>
