<svg width="16" height="17" viewBox="0 0 16 17" fill="none" xmlns="http://www.w3.org/2000/svg">
<g id="Facebook">
<path id="Vector" d="M13.12 1.78003H2.88003C1.99683 1.78003 1.28003 2.49683 1.28003 3.38003V13.62C1.28003 14.5032 1.99683 15.22 2.88003 15.22H13.12C14.0032 15.22 14.72 14.5032 14.72 13.62V3.38003C14.72 2.49683 14.0032 1.78003 13.12 1.78003ZM11.84 6.58003H11.2C10.5152 6.58003 10.24 6.74003 10.24 7.22003V8.18003H11.84L11.52 9.78003H10.24V14.58H8.64003V9.78003H7.36003V8.18003H8.64003V7.22003C8.64003 5.94003 9.28003 4.98003 10.56 4.98003C11.488 4.98003 11.84 5.30003 11.84 5.30003V6.58003Z" fill="#d8f520"/>
</g>
</svg>
