<svg width="16" height="17" viewBox="0 0 16 17" fill="none" xmlns="http://www.w3.org/2000/svg">
<g id="Instagram">
<path id="Vector" d="M5.11996 1.45996C2.82556 1.45996 0.959961 3.32556 0.959961 5.61996V11.38C0.959961 13.6744 2.82556 15.54 5.11996 15.54H10.88C13.1744 15.54 15.04 13.6744 15.04 11.38V5.61996C15.04 3.32556 13.1744 1.45996 10.88 1.45996H5.11996ZM11.84 4.01996C12.192 4.01996 12.48 4.30796 12.48 4.65996C12.48 5.01196 12.192 5.29996 11.84 5.29996C11.488 5.29996 11.2 5.01196 11.2 4.65996C11.2 4.30796 11.488 4.01996 11.84 4.01996ZM7.99996 4.97996C9.94236 4.97996 11.52 6.55756 11.52 8.49996C11.52 10.4424 9.94236 12.02 7.99996 12.02C6.05756 12.02 4.47996 10.4424 4.47996 8.49996C4.47996 6.55756 6.05756 4.97996 7.99996 4.97996ZM7.99996 5.61996C6.41276 5.61996 5.11996 6.91276 5.11996 8.49996C5.11996 10.0872 6.41276 11.38 7.99996 11.38C9.58716 11.38 10.88 10.0872 10.88 8.49996C10.88 6.91276 9.58716 5.61996 7.99996 5.61996Z" fill="#d8f520"/>
</g>
</svg>
