<svg width="16" height="17" viewBox="0 0 16 17" fill="none" xmlns="http://www.w3.org/2000/svg">
<g id="Telegram">
<path id="Vector" d="M7.99989 1.13989C12.0649 1.13989 15.3599 4.43493 15.3599 8.49989C15.3599 12.5649 12.0649 15.8599 7.99989 15.8599C3.93493 15.8599 0.639893 12.5649 0.639893 8.49989C0.639893 4.43493 3.93493 1.13989 7.99989 1.13989ZM10.5388 11.4999C10.6741 11.0845 11.3084 6.94501 11.3868 6.12933C11.4105 5.88229 11.3324 5.71813 11.1794 5.64485C10.9945 5.55589 10.7205 5.60037 10.4028 5.71493C9.96693 5.87205 4.39509 8.23781 4.07317 8.37477C3.76789 8.50437 3.47925 8.64581 3.47925 8.85061C3.47925 8.99461 3.56469 9.07557 3.80021 9.15973C4.04533 9.24709 4.66261 9.43429 5.02709 9.53477C5.37813 9.63173 5.77781 9.54757 6.00181 9.40837C6.23925 9.26085 8.97941 7.42725 9.17621 7.26661C9.37269 7.10597 9.52949 7.31173 9.36885 7.47269C9.20821 7.63333 7.32725 9.45893 7.07925 9.71173C6.77813 10.0186 6.99189 10.3367 7.19381 10.4641C7.42453 10.6093 9.08373 11.7223 9.33365 11.9009C9.58357 12.0794 9.83701 12.1604 10.069 12.1604C10.301 12.1604 10.4233 11.8548 10.5388 11.4999Z" fill="#d8f520"/>
</g>
</svg>
