<svg width="145" height="138" viewBox="0 0 145 138" fill="none" xmlns="http://www.w3.org/2000/svg">
<path d="M1.5 43V2H39.5" stroke="white" stroke-width="3" stroke-linecap="round"/>
<path d="M143.5 43V2H105.5" stroke="white" stroke-width="3" stroke-linecap="round"/>
<mask id="mask0_146_31302" style="mask-type:luminance" maskUnits="userSpaceOnUse" x="34" y="24" width="77" height="77">
<path d="M34.1699 24H110.831V100.645H34.1699V24Z" fill="white"/>
</mask>
<g mask="url(#mask0_146_31302)">
<path d="M34.1699 24H110.831V100.645H34.1699V24Z" fill="#FFD600"/>
</g>
<path d="M84.2945 81.3739C85.7687 83.76 87.3645 86.055 90.7538 86.055C93.6111 86.055 95.1005 84.6415 95.1005 82.681C95.1005 80.3404 93.5655 79.5045 90.4194 78.1366L88.702 77.4071C83.7473 75.3097 80.4493 72.6652 80.4493 67.1026C80.4493 61.9656 84.3705 58.0596 90.5106 58.0596C94.8877 58.0596 98.0338 59.5794 100.298 63.5462L94.9333 66.9658C93.7631 64.8684 92.4864 64.0325 90.5106 64.0325C88.5044 64.0325 87.2278 65.3092 87.2278 66.9658C87.2278 69.0176 88.5044 69.8535 91.4529 71.115L93.1703 71.8597C99.0217 74.337 102.32 76.8904 102.32 82.605C102.32 88.7603 97.4563 92.1343 90.921 92.1343C84.5376 92.1343 80.9052 88.9275 78.8838 84.9607L84.2945 81.3739ZM59.6275 81.5411C60.7066 83.4713 62.3328 84.9607 64.6886 84.9607C66.9379 84.9607 68.245 84.0792 68.245 80.614V58.0596H75.3426V81.7083C75.3426 88.8667 71.1783 92.1343 65.1141 92.1343C59.6123 92.1343 55.6607 88.4107 54.0497 84.9607L59.6275 81.5411Z" fill="#000001"/>
<path d="M1.5 95V136H39.5" stroke="white" stroke-width="3" stroke-linecap="round"/>
<path d="M143.5 95V136H105.5" stroke="white" stroke-width="3" stroke-linecap="round"/>
</svg>
