<svg width="145" height="138" viewBox="0 0 145 138" fill="none" xmlns="http://www.w3.org/2000/svg">
<path d="M1.5 43V2H39.5" stroke="white" stroke-width="3" stroke-linecap="round"/>
<path d="M143.5 43V2H105.5" stroke="white" stroke-width="3" stroke-linecap="round"/>
<path d="M1.5 95V136H39.5" stroke="white" stroke-width="3" stroke-linecap="round"/>
<path d="M143.5 95V136H105.5" stroke="white" stroke-width="3" stroke-linecap="round"/>
<mask id="mask0_146_31428" style="mask-type:luminance" maskUnits="userSpaceOnUse" x="106" y="58" width="17" height="18">
<path d="M106.96 58.02H122.989V75.9999H106.96V58.02Z" fill="white"/>
</mask>
<g mask="url(#mask0_146_31428)">
<path d="M115.425 58.598C115.196 58.598 114.968 58.6462 114.775 58.7666L108.513 62.3674C108.103 62.5962 107.85 63.0298 107.85 63.4994V70.689C107.85 71.1587 108.103 71.5922 108.513 71.821L110.138 72.7604C110.933 73.1578 111.234 73.1457 111.596 73.1457C112.776 73.1457 113.438 72.4352 113.438 71.2069V64.1136C113.438 64.0052 113.354 63.933 113.258 63.933H112.475C112.366 63.933 112.282 64.0173 112.282 64.1136V71.2069C112.282 71.7488 111.716 72.3027 110.777 71.8451L109.079 70.8456C109.018 70.8215 108.97 70.7613 108.97 70.689V63.4994C108.97 63.4392 109.018 63.367 109.079 63.3309L115.329 59.7421C115.389 59.706 115.461 59.706 115.522 59.7421L121.772 63.3309C121.832 63.367 121.88 63.4272 121.88 63.4994V70.689C121.88 70.7613 121.844 70.8335 121.784 70.8576L115.522 74.4464C115.461 74.4825 115.389 74.4825 115.329 74.4464L113.727 73.495C113.679 73.4709 113.607 73.4709 113.559 73.495C113.125 73.7479 113.041 73.772 112.619 73.9165C112.523 73.9526 112.366 74.0128 112.667 74.1814L114.775 75.4218C114.98 75.5302 115.196 75.5904 115.425 75.5904C115.654 75.5904 115.883 75.5302 116.076 75.4218L122.338 71.8331C122.747 71.5922 123 71.1587 123 70.689V63.4994C123 63.0418 122.747 62.5962 122.338 62.3674L116.076 58.7666C115.883 58.6582 115.654 58.6101 115.425 58.6101V58.598ZM117.099 63.7403C115.317 63.7403 114.257 64.499 114.257 65.7515C114.257 67.1123 115.305 67.4856 117.015 67.6542C119.074 67.8589 119.231 68.16 119.231 68.5574C119.231 69.2559 118.665 69.5449 117.352 69.5449C115.702 69.5449 115.329 69.1355 115.209 68.3166C115.196 68.2323 115.124 68.16 115.04 68.16H114.221C114.101 68.16 114.04 68.2202 114.04 68.3407C114.04 69.3884 114.606 70.6288 117.352 70.6288C119.339 70.6288 120.471 69.8581 120.471 68.4972C120.471 67.1605 119.556 66.7992 117.629 66.5463C115.69 66.2813 115.498 66.1609 115.498 65.7033C115.498 65.33 115.654 64.8362 117.099 64.8362C118.388 64.8362 118.857 65.1132 119.05 65.9682C119.074 66.0525 119.147 66.1248 119.231 66.1248H120.038C120.086 66.1248 120.134 66.0887 120.17 66.0525C120.206 66.0164 120.23 65.9682 120.23 65.9201C120.098 64.4388 119.11 63.7403 117.099 63.7403Z" fill="#83CD29"/>
</g>
<mask id="mask1_146_31428" style="mask-type:luminance" maskUnits="userSpaceOnUse" x="28" y="49" width="76" height="27">
<path d="M28.5 49H103.876V76H28.5V49Z" fill="white"/>
</mask>
<g mask="url(#mask1_146_31428)">
<path d="M78.5981 49.1807C78.5259 49.1807 78.4536 49.1927 78.3934 49.2288C78.2609 49.3131 78.2007 49.4215 78.1887 49.5781V59.7061C78.1887 59.8024 78.1525 59.8867 78.0562 59.9469C77.9719 59.9951 77.8756 59.9951 77.7792 59.9469L76.1173 58.9835C75.8524 58.839 75.5874 58.839 75.3225 58.9835L68.6869 62.8011C68.434 62.9456 68.2895 63.2226 68.2895 63.4996V71.1227C68.2895 71.4358 68.4219 71.6646 68.6869 71.8212L75.3225 75.6267C75.5874 75.7833 75.8524 75.7833 76.1173 75.6267L82.7529 71.8212C83.0178 71.6646 83.1624 71.4358 83.1503 71.1227V52.1191C83.1503 51.8301 82.9938 51.5531 82.7409 51.4206L78.7908 49.2168C78.7306 49.1807 78.6583 49.1807 78.5981 49.1807ZM35.8943 58.6945C35.7739 58.7065 35.6534 58.7186 35.533 58.7908L28.8974 62.6084C28.6325 62.7529 28.5 62.9817 28.5 63.2949L28.512 73.5192C28.512 73.6637 28.5843 73.7962 28.7168 73.8684C28.8372 73.9407 28.9938 73.9407 29.1142 73.8684L33.0522 71.6164C33.3051 71.4719 33.4616 71.219 33.4616 70.93V66.149C33.4616 65.86 33.6182 65.6071 33.8591 65.4626L35.533 64.4991C35.6655 64.4269 35.798 64.3907 35.9425 64.3907C36.0749 64.3907 36.2194 64.4269 36.3399 64.4991L38.0138 65.4626C38.2547 65.6071 38.4112 65.86 38.4112 66.149V70.93C38.4112 71.207 38.5798 71.4719 38.8207 71.6164L42.7587 73.8684C42.8791 73.9407 43.0357 73.9407 43.1561 73.8684C43.2765 73.7962 43.3608 73.6637 43.3608 73.5192L43.3729 63.2949C43.3729 62.9817 43.2404 62.7529 42.9755 62.5964L36.3399 58.7908C36.2194 58.7306 36.099 58.7065 35.9786 58.6945H35.8943ZM95.5424 58.7908C95.3979 58.7908 95.2654 58.827 95.1329 58.8992L88.4973 62.7048C88.2565 62.8493 88.0999 63.1142 88.0999 63.3912V71.0263C88.0999 71.3033 88.2685 71.5683 88.5094 71.7128L95.0968 75.4461C95.3376 75.5785 95.6387 75.5906 95.8796 75.4581L99.8778 73.2422C99.9982 73.182 100.083 73.0495 100.083 72.905C100.083 72.7605 100.01 72.628 99.8898 72.5558L93.2061 68.7502C93.0856 68.678 93.0013 68.5335 93.0013 68.389V66.0045C93.0013 65.86 93.0856 65.7275 93.2061 65.6552L95.2895 64.463C95.4099 64.4028 95.5544 64.4028 95.6869 64.463L97.7582 65.6552C97.8907 65.7395 97.963 65.8479 97.963 66.0045V67.8832C97.963 68.0397 98.0232 68.1481 98.1677 68.2324C98.2881 68.3047 98.4326 68.3047 98.5651 68.2324L102.539 65.9202C102.78 65.7757 102.937 65.5228 102.937 65.2337V63.3912C102.937 63.0901 102.804 62.8613 102.539 62.7048L95.9398 58.8992C95.8194 58.827 95.6869 58.7908 95.5424 58.7908ZM75.6958 64.4871C75.7319 64.4871 75.7681 64.4871 75.8042 64.5112L78.0682 65.8238C78.1405 65.86 78.1766 65.9202 78.1766 65.9924V68.6178C78.1766 68.678 78.1405 68.7502 78.0682 68.7864L75.8042 70.099C75.7319 70.1352 75.6597 70.1352 75.5995 70.099L73.3234 68.7864C73.2632 68.7502 73.215 68.678 73.215 68.6178V65.9924C73.215 65.9202 73.2632 65.86 73.3234 65.8238L75.5995 64.5112C75.6356 64.4871 75.6597 64.4871 75.6958 64.4871Z" fill="#404137"/>
</g>
<mask id="mask2_146_31428" style="mask-type:luminance" maskUnits="userSpaceOnUse" x="48" y="58" width="50" height="18">
<path d="M48.3831 58.02H97.7104V75.9999H48.3831V58.02Z" fill="white"/>
</mask>
<g mask="url(#mask2_146_31428)">
<path d="M55.8377 58.7545C55.6932 58.7545 55.5607 58.7906 55.4403 58.8509L48.8047 62.6564C48.5518 62.8009 48.3953 63.0779 48.3953 63.3549V70.978C48.3953 71.2911 48.5277 71.5199 48.8047 71.6644L55.4403 75.482C55.7053 75.6385 55.9702 75.6385 56.2351 75.482L62.8707 71.6644C63.1357 71.5199 63.2681 71.2911 63.2681 70.978V63.3549C63.2681 63.0779 63.1236 62.8009 62.8707 62.6564L56.2351 58.8509C56.1147 58.7906 55.9822 58.7545 55.8377 58.7545ZM95.5309 65.5587C95.4947 65.5587 95.4706 65.5587 95.4466 65.5708L94.17 66.3054C94.1218 66.3415 94.0857 66.3776 94.0857 66.4378V67.895C94.0857 67.9552 94.1218 68.0034 94.17 68.0275L95.4466 68.7621C95.4947 68.7862 95.5429 68.7862 95.5911 68.7621L96.8676 68.0275C96.9158 68.0034 96.9519 67.9552 96.9519 67.895V66.4378C96.9519 66.3897 96.9158 66.3415 96.8676 66.3054L95.5911 65.5708C95.567 65.5587 95.5549 65.5587 95.5309 65.5587Z" fill="#83CD29"/>
</g>
</svg>
