<svg width="145" height="138" viewBox="0 0 145 138" fill="none" xmlns="http://www.w3.org/2000/svg">
<mask id="mask0_146_31463" style="mask-type:luminance" maskUnits="userSpaceOnUse" x="33" y="29" width="63" height="60">
<path d="M33.5 29H95.1193V88.4905H33.5V29Z" fill="white"/>
</mask>
<g mask="url(#mask0_146_31463)">
<mask id="mask1_146_31463" style="mask-type:luminance" maskUnits="userSpaceOnUse" x="33" y="28" width="60" height="60">
<path d="M72.7223 28.9855C52.6734 28.9855 53.9274 37.7341 53.9274 37.7341L53.9566 46.7889H73.0722V49.5009H46.3453C46.3453 49.5009 33.5286 48.0428 33.5286 68.3834C33.5286 88.7093 44.7268 87.9948 44.7268 87.9948H51.4049V78.5609C51.4049 78.5609 51.0403 67.3044 62.4135 67.3044H81.398C81.398 67.3044 92.0567 67.4793 92.0567 56.9373V39.5275C92.0567 39.5275 93.6752 28.9855 72.7223 28.9855ZM62.1802 35.0803C64.0758 35.0803 65.6214 36.6259 65.6214 38.536C65.6214 40.4607 64.0758 42.0063 62.1802 42.0063C60.2701 42.0063 58.7391 40.4607 58.7391 38.536C58.7391 36.6259 60.2701 35.0803 62.1802 35.0803Z" fill="white"/>
</mask>
<g mask="url(#mask1_146_31463)">
<path d="M33.5288 29V88.7092H93.6754V29H33.5288Z" fill="url(#paint0_linear_146_31463)"/>
</g>
</g>
<mask id="mask2_146_31463" style="mask-type:luminance" maskUnits="userSpaceOnUse" x="50" y="47" width="63" height="61">
<path d="M50.3262 47.4305H112.485V108H50.3262V47.4305Z" fill="white"/>
</mask>
<g mask="url(#mask2_146_31463)">
<mask id="mask3_146_31463" style="mask-type:luminance" maskUnits="userSpaceOnUse" x="53" y="48" width="60" height="60">
<path d="M73.2916 107.971C93.3405 107.971 92.0865 99.2368 92.0865 99.2368L92.0574 90.1674H72.9271V87.4554H99.6541C99.6541 87.4554 112.485 88.9135 112.485 68.5875C112.485 48.247 101.287 48.9615 101.287 48.9615H94.609V58.41C94.609 58.41 94.9736 69.6665 83.6004 69.6665H64.6159C64.6159 69.6665 53.9572 69.4916 53.9572 80.0191V97.4288C53.9572 97.4288 52.3387 107.971 73.2916 107.971ZM83.8337 101.876C81.9382 101.876 80.3926 100.33 80.3926 98.4203C80.3926 96.5102 81.9382 94.9646 83.8337 94.9646C85.7438 94.9646 87.2748 96.5102 87.2748 98.4203C87.2748 100.33 85.7438 101.876 83.8337 101.876Z" fill="white"/>
</mask>
<g mask="url(#mask3_146_31463)">
<path d="M52.3381 48.2471V107.971H112.485V48.2471H52.3381Z" fill="url(#paint1_linear_146_31463)"/>
</g>
</g>
<path d="M1.5 43V2H39.5" stroke="white" stroke-width="3" stroke-linecap="round"/>
<path d="M143.5 43V2H105.5" stroke="white" stroke-width="3" stroke-linecap="round"/>
<path d="M1.5 95V136H39.5" stroke="white" stroke-width="3" stroke-linecap="round"/>
<path d="M143.5 95V136H105.5" stroke="white" stroke-width="3" stroke-linecap="round"/>
<defs>
<linearGradient id="paint0_linear_146_31463" x1="33.7699" y1="28.7528" x2="94.1625" y2="88.2164" gradientUnits="userSpaceOnUse">
<stop stop-color="#387EB8"/>
<stop offset="0.125" stop-color="#387EB8"/>
<stop offset="0.140625" stop-color="#387EB8"/>
<stop offset="0.15625" stop-color="#387DB7"/>
<stop offset="0.171875" stop-color="#387DB6"/>
<stop offset="0.1875" stop-color="#387CB5"/>
<stop offset="0.203125" stop-color="#387CB4"/>
<stop offset="0.21875" stop-color="#387BB3"/>
<stop offset="0.234375" stop-color="#387BB2"/>
<stop offset="0.25" stop-color="#387AB1"/>
<stop offset="0.265625" stop-color="#387AB1"/>
<stop offset="0.28125" stop-color="#3879B0"/>
<stop offset="0.296875" stop-color="#3879AF"/>
<stop offset="0.3125" stop-color="#3878AE"/>
<stop offset="0.328125" stop-color="#3778AD"/>
<stop offset="0.34375" stop-color="#3777AC"/>
<stop offset="0.359375" stop-color="#3777AB"/>
<stop offset="0.375" stop-color="#3776AB"/>
<stop offset="0.390625" stop-color="#3776AA"/>
<stop offset="0.40625" stop-color="#3775A9"/>
<stop offset="0.421875" stop-color="#3775A8"/>
<stop offset="0.4375" stop-color="#3774A7"/>
<stop offset="0.453125" stop-color="#3774A6"/>
<stop offset="0.46875" stop-color="#3773A5"/>
<stop offset="0.484375" stop-color="#3773A4"/>
<stop offset="0.494335" stop-color="#3772A4"/>
<stop offset="0.5" stop-color="#3772A3"/>
<stop offset="0.505665" stop-color="#3772A3"/>
<stop offset="0.515625" stop-color="#3771A2"/>
<stop offset="0.53125" stop-color="#3771A2"/>
<stop offset="0.546875" stop-color="#3771A1"/>
<stop offset="0.5625" stop-color="#3770A0"/>
<stop offset="0.578125" stop-color="#37709F"/>
<stop offset="0.59375" stop-color="#376F9E"/>
<stop offset="0.609375" stop-color="#376F9D"/>
<stop offset="0.625" stop-color="#376E9D"/>
<stop offset="0.640625" stop-color="#366E9C"/>
<stop offset="0.65625" stop-color="#366D9B"/>
<stop offset="0.671875" stop-color="#366D9A"/>
<stop offset="0.6875" stop-color="#366C99"/>
<stop offset="0.703125" stop-color="#366C98"/>
<stop offset="0.71875" stop-color="#366B97"/>
<stop offset="0.734375" stop-color="#366B97"/>
<stop offset="0.75" stop-color="#366A96"/>
<stop offset="0.765625" stop-color="#366A95"/>
<stop offset="0.78125" stop-color="#366994"/>
<stop offset="0.8125" stop-color="#366994"/>
<stop offset="0.875" stop-color="#366994"/>
<stop offset="1" stop-color="#366994"/>
</linearGradient>
<linearGradient id="paint1_linear_146_31463" x1="52.0204" y1="48.5899" x2="113.751" y2="106.628" gradientUnits="userSpaceOnUse">
<stop stop-color="#FFE052"/>
<stop offset="0.125" stop-color="#FFE052"/>
<stop offset="0.1875" stop-color="#FFE052"/>
<stop offset="0.21875" stop-color="#FFE052"/>
<stop offset="0.234375" stop-color="#FFDF51"/>
<stop offset="0.25" stop-color="#FFDF51"/>
<stop offset="0.265625" stop-color="#FFDE50"/>
<stop offset="0.28125" stop-color="#FFDD4F"/>
<stop offset="0.296875" stop-color="#FFDD4E"/>
<stop offset="0.3125" stop-color="#FFDC4E"/>
<stop offset="0.328125" stop-color="#FFDB4D"/>
<stop offset="0.34375" stop-color="#FFDB4C"/>
<stop offset="0.359375" stop-color="#FFDA4B"/>
<stop offset="0.375" stop-color="#FFD94B"/>
<stop offset="0.390625" stop-color="#FFD94A"/>
<stop offset="0.40625" stop-color="#FFD849"/>
<stop offset="0.421875" stop-color="#FFD748"/>
<stop offset="0.4375" stop-color="#FFD748"/>
<stop offset="0.453125" stop-color="#FFD647"/>
<stop offset="0.46875" stop-color="#FFD546"/>
<stop offset="0.482837" stop-color="#FFD545"/>
<stop offset="0.484375" stop-color="#FFD445"/>
<stop offset="0.5" stop-color="#FFD445"/>
<stop offset="0.515625" stop-color="#FFD444"/>
<stop offset="0.517163" stop-color="#FFD343"/>
<stop offset="0.53125" stop-color="#FFD343"/>
<stop offset="0.546875" stop-color="#FFD242"/>
<stop offset="0.5625" stop-color="#FFD242"/>
<stop offset="0.578125" stop-color="#FFD141"/>
<stop offset="0.59375" stop-color="#FFD040"/>
<stop offset="0.609375" stop-color="#FFD03F"/>
<stop offset="0.625" stop-color="#FFCF3F"/>
<stop offset="0.640625" stop-color="#FFCE3E"/>
<stop offset="0.65625" stop-color="#FFCE3D"/>
<stop offset="0.671875" stop-color="#FFCD3C"/>
<stop offset="0.6875" stop-color="#FFCC3C"/>
<stop offset="0.703125" stop-color="#FFCC3B"/>
<stop offset="0.71875" stop-color="#FFCB3A"/>
<stop offset="0.734375" stop-color="#FFCA39"/>
<stop offset="0.75" stop-color="#FFCA39"/>
<stop offset="0.765625" stop-color="#FFC938"/>
<stop offset="0.78125" stop-color="#FFC837"/>
<stop offset="0.796875" stop-color="#FFC836"/>
<stop offset="0.8125" stop-color="#FFC735"/>
<stop offset="0.828125" stop-color="#FFC635"/>
<stop offset="0.84375" stop-color="#FFC634"/>
<stop offset="0.859375" stop-color="#FFC533"/>
<stop offset="0.875" stop-color="#FFC432"/>
<stop offset="0.890625" stop-color="#FFC432"/>
<stop offset="0.90625" stop-color="#FFC331"/>
<stop offset="0.9375" stop-color="#FFC331"/>
<stop offset="1" stop-color="#FFC331"/>
</linearGradient>
</defs>
</svg>
