<svg width="145" height="138" viewBox="0 0 145 138" fill="none" xmlns="http://www.w3.org/2000/svg">
<path d="M1.5 43V2H39.5" stroke="white" stroke-width="3" stroke-linecap="round"/>
<path d="M143.5 43V2H105.5" stroke="white" stroke-width="3" stroke-linecap="round"/>
<path d="M1.5 95V136H39.5" stroke="white" stroke-width="3" stroke-linecap="round"/>
<path d="M143.5 95V136H105.5" stroke="white" stroke-width="3" stroke-linecap="round"/>
<path d="M83.6763 65.3165C83.6763 66.3789 83.4639 67.4219 83.0582 68.407C82.6526 69.4114 82.0731 70.2807 81.3005 71.034C80.5472 71.8066 79.678 72.3861 78.6929 72.7917C77.7077 73.2167 76.6647 73.4098 75.6023 73.4098C74.5206 73.4098 73.4969 73.2167 72.5118 72.7917C71.5267 72.3861 70.6575 71.8066 69.8848 71.034C69.1315 70.2807 68.5521 69.4114 68.1464 68.407C67.7408 67.4219 67.5283 66.3789 67.5283 65.3165C67.5283 64.2348 67.7408 63.2111 68.1464 62.2067C68.5521 61.2215 69.1315 60.3523 69.8848 59.5797C70.6575 58.8264 71.5267 58.2469 72.5118 57.822C73.4969 57.4163 74.5206 57.2039 75.6023 57.2039C76.6647 57.2039 77.7077 57.4163 78.6929 57.822C79.678 58.2469 80.5472 58.8264 81.3005 59.5797C82.0731 60.3523 82.6526 61.2215 83.0582 62.2067C83.4639 63.2111 83.6763 64.2348 83.6763 65.3165Z" fill="#53C1DE"/>
<mask id="mask0_146_31430" style="mask-type:luminance" maskUnits="userSpaceOnUse" x="30" y="24" width="91" height="83">
<path d="M30.5 24H120.705V107H30.5V24Z" fill="white"/>
</mask>
<g mask="url(#mask0_146_31430)">
<path d="M47.4593 79.6681C48.2512 79.9192 49.0432 80.1897 49.8544 80.4215C49.6033 81.4838 49.3715 82.5269 49.1591 83.6086C47.3047 93.421 48.7534 101.205 53.3699 103.89C58.1216 106.633 66.1183 103.813 73.9026 96.9558C74.5207 96.4149 75.1388 95.8548 75.7569 95.256C76.5296 96.0093 77.3408 96.7433 78.1521 97.4387C85.6852 103.948 93.1411 106.594 97.7383 103.909C102.509 101.167 104.055 92.7836 102.046 82.6041C101.891 81.8315 101.717 81.0202 101.524 80.209C102.084 80.0545 102.625 79.8806 103.166 79.7068C113.345 76.3265 120.705 70.8601 120.705 65.2392C120.705 59.8888 113.77 54.6928 104.17 51.3705C103.224 51.0614 102.278 50.7524 101.331 50.4626C101.486 49.8252 101.621 49.1685 101.756 48.5117C103.939 37.9653 102.509 29.4857 97.6997 26.7042C93.0639 24.0193 85.4921 26.8008 77.8623 33.4841C77.0897 34.1408 76.3557 34.8362 75.6603 35.5315C75.1775 35.0679 74.6752 34.6044 74.1923 34.1601C66.1763 27.0133 58.1409 24 53.3313 26.8201C48.7148 29.505 47.3434 37.5017 49.275 47.4687C49.4681 48.4538 49.6806 49.4196 49.9317 50.424C48.7921 50.7331 47.6911 51.0807 46.648 51.4671C37.2412 54.7314 30.5 59.9081 30.5 65.2392C30.5 70.7635 37.6855 76.3072 47.4593 79.6681ZM71.4302 94.0777C68.5135 96.7433 65.1525 98.868 61.4825 100.317C59.5317 101.263 57.2717 101.34 55.2629 100.549C52.4621 98.926 51.3031 92.687 52.887 84.2653C53.0802 83.2802 53.2926 82.2951 53.5438 81.31C57.4842 82.1599 61.4632 82.7587 65.5002 83.0484C67.8181 86.3514 70.3871 89.5192 73.1107 92.4938C72.5505 93.0347 71.9903 93.5755 71.4302 94.0777ZM93.7979 60.8545C92.9673 59.29 92.1367 57.7447 91.2482 56.2188C90.379 54.7121 89.4905 53.2248 88.544 51.7568C91.3834 52.1238 94.1069 52.5874 96.6373 53.1862C95.826 55.7938 94.8796 58.3435 93.7979 60.8545ZM93.8365 69.6625C94.9568 72.2316 95.9419 74.8392 96.8111 77.5048C94.0876 78.1229 91.3255 78.6058 88.5247 78.9148C89.4905 77.4275 90.379 75.9016 91.2675 74.3949C92.156 72.8303 93.0059 71.2658 93.8365 69.6625ZM91.789 65.2585C90.6108 67.7117 89.3552 70.1068 87.9838 72.4827C86.651 74.8392 85.2217 77.1185 83.7343 79.3784C81.1074 79.5716 78.3839 79.6681 75.6024 79.6681C72.8402 79.6681 70.1747 79.5716 67.567 79.417C66.0411 77.1764 64.5924 74.8585 63.2403 72.5213C61.8882 70.1648 60.6326 67.7696 59.4544 65.3358C60.6133 62.8827 61.8689 60.5069 63.221 58.1503C64.5538 55.7938 66.0024 53.5145 67.5091 51.2739C70.1553 51.0808 72.8596 50.9649 75.6024 50.9649C78.3646 50.9649 81.0688 51.0808 83.6957 51.2739C85.183 53.4952 86.6124 55.7745 87.9838 58.1117C89.3359 60.4489 90.5915 62.8441 91.789 65.2585ZM59.9373 56.2574C59.0681 57.764 58.2182 59.29 57.4262 60.8545C56.3252 58.2276 55.3788 55.6393 54.6061 53.1475C57.1558 52.5681 59.8407 52.1238 62.6415 51.7568C61.7143 53.2248 60.8065 54.7314 59.9373 56.2574ZM57.4262 69.7978C58.2375 71.3623 59.0681 72.9076 59.9566 74.4142C60.8451 75.9595 61.7723 77.5048 62.7381 79.0114C59.9952 78.7023 57.2524 78.2581 54.5675 77.6786C55.3401 75.1289 56.3059 72.502 57.4262 69.7978ZM75.7376 89.7703C73.9412 87.8194 72.1449 85.6754 70.4064 83.3575C72.1062 83.4154 73.8447 83.454 75.6024 83.454C77.4181 83.454 79.1951 83.4154 80.9529 83.3381C79.3497 85.5788 77.5919 87.7228 75.7376 89.7703ZM98.7814 95.0821C98.6075 97.2455 97.5645 99.2544 95.8647 100.626C93.0639 102.248 87.0953 100.124 80.6438 94.5606C79.9098 93.9232 79.1565 93.2471 78.4032 92.5325C81.1074 89.5385 83.5798 86.3707 85.8398 83.0484C89.8768 82.72 93.8945 82.1019 97.8542 81.1941C98.028 81.9281 98.1826 82.6428 98.3371 83.3575C99.2063 87.182 99.3415 91.161 98.7814 95.0821ZM100.307 54.1133C101.215 54.3837 102.104 54.6542 102.954 54.9439C111.163 57.7833 116.919 61.9942 116.919 65.2006C116.919 68.6775 110.776 73.1587 101.968 76.0754C101.486 76.2299 100.983 76.3844 100.481 76.539C99.2449 72.6758 97.7383 68.9092 95.9806 65.2392C97.6804 61.6272 99.1097 57.9185 100.307 54.1133ZM80.3348 36.3621C86.9021 30.6253 93.0059 28.3847 95.7874 29.9879C98.762 31.707 99.921 38.6414 98.0474 47.7584C97.9315 48.3572 97.7962 48.9367 97.6417 49.5162C93.7206 48.6276 89.7609 47.9902 85.7818 47.6425C83.5026 44.3589 80.9915 41.2104 78.268 38.2551C78.9633 37.5983 79.6394 36.9802 80.3348 36.3621ZM75.641 40.9593C77.4953 42.9681 79.2338 45.0928 80.8563 47.2949C77.3601 47.121 73.864 47.121 70.3678 47.2949C72.0869 45.0156 73.8833 42.8909 75.641 40.9593ZM55.2049 30.1231C58.1602 28.3847 64.7276 30.8571 71.662 37.0188C72.0869 37.4052 72.5312 37.8301 72.9948 38.2551C70.2519 41.2104 67.7409 44.3589 65.4423 47.6425C61.4439 47.9902 57.5035 48.6083 53.6017 49.4775C53.3699 48.589 53.1768 47.6619 52.9836 46.7347C51.3224 38.1778 52.4041 31.7263 55.2049 30.1231ZM47.8842 55.0598C48.8886 54.6928 49.9124 54.3837 50.9361 54.0747C52.1337 57.9185 53.5824 61.6851 55.2435 65.3358C53.5631 69.0251 52.0951 72.8497 50.8782 76.7321C50.1442 76.539 49.4102 76.3072 48.6955 76.0561C44.9482 74.8585 40.6794 72.9849 37.5889 70.5318C35.8118 69.2955 34.6143 67.3833 34.2859 65.2392C34.2859 61.9942 39.8488 57.8606 47.8842 55.0598Z" fill="#53C1DE"/>
</g>
</svg>
