<svg width="145" height="138" viewBox="0 0 145 138" fill="none" xmlns="http://www.w3.org/2000/svg">
<path d="M1.5 43V2H39.5" stroke="white" stroke-width="3" stroke-linecap="round"/>
<path d="M143.5 43V2H105.5" stroke="white" stroke-width="3" stroke-linecap="round"/>
<mask id="mask0_146_31397" style="mask-type:luminance" maskUnits="userSpaceOnUse" x="26" y="23" width="93" height="94">
<path d="M26 23H119V116.015H26V23Z" fill="white"/>
</mask>
<g mask="url(#mask0_146_31397)">
<path d="M101.472 23H43.5281C33.8635 23 26 30.8635 26 40.5281V98.4865C26 108.137 33.8635 116.015 43.5281 116.015H101.472C111.137 116.015 119 108.137 119 98.4865V40.5281C119 30.8635 111.137 23 101.472 23ZM52.1091 81.6613C49.6051 81.6613 47.1011 80.9584 46.0321 80.2409L45.666 79.8748L46.735 76.6533C46.735 76.6533 46.735 76.3018 47.1011 76.3018C47.4525 76.3018 47.4525 76.3018 47.4525 76.3018C48.5361 77.0194 50.3226 77.7369 52.4606 77.7369C54.6131 77.7369 56.0482 76.6533 56.0482 75.2329C56.0482 74.1493 55.3307 73.0803 52.4606 72.0113C48.1701 70.5763 46.3836 68.4384 46.3836 65.2168C46.3836 61.2778 49.6051 58.4223 54.6131 58.4223C57.1171 58.4223 58.9036 59.1252 59.9726 59.4913C60.3387 59.4913 60.3387 59.8427 60.3387 59.8427L59.2551 63.0642C59.2551 63.0642 59.2551 63.4303 58.9036 63.4303H58.5522C57.4686 63.0642 56.0482 62.3467 54.247 62.3467C51.743 62.3467 51.0401 63.7818 51.0401 64.4993C51.0401 65.9343 51.743 66.6372 54.9646 67.7208C58.9036 69.1412 60.6901 71.2938 60.6901 74.5154C60.6901 77.7369 58.5522 81.6613 52.1091 81.6613ZM82.8748 80.9584C82.8748 80.9584 83.2263 80.9584 83.2263 81.3099C83.2263 81.6613 83.2263 81.6613 83.2263 81.6613L82.5087 84.5314C82.5087 84.8829 82.1573 84.8829 82.1573 84.8829C79.3018 84.1653 76.7978 83.4625 73.5763 82.0274C73.2102 82.0274 72.8588 81.6613 72.1412 81.6613C67.1332 81.3099 62.1252 77.7369 62.1252 70.2249C62.1252 63.0642 66.4157 58.4223 72.8588 58.4223C78.9358 58.4223 83.2263 63.0642 83.2263 69.8588C83.2263 74.5154 81.4398 78.0883 78.2182 79.8748C79.6533 80.2409 81.4398 80.5924 82.8748 80.9584ZM99.6854 81.3099H86.8139C86.4478 81.3099 86.4478 80.9584 86.4478 80.9584V59.1252C86.4478 58.7737 86.8139 58.7737 86.8139 58.7737H90.3869C90.7383 58.7737 90.7383 59.1252 90.7383 59.1252V77.0194H99.334C99.6854 77.0194 99.6854 77.3708 99.6854 77.3708V80.9584H100.037C100.037 81.3099 99.6854 81.3099 99.6854 81.3099Z" fill="#83CD29"/>
</g>
<path d="M72.8592 62.3467C68.9202 62.3467 67.1337 66.2858 67.1337 69.8588C67.1337 74.1493 69.2862 77.3708 72.4931 77.3708C76.4322 77.3708 78.2187 73.4464 78.2187 69.8588C78.5848 66.2858 76.7983 62.3467 72.8592 62.3467Z" fill="#83CD29"/>
<path d="M1.5 95V136H39.5" stroke="white" stroke-width="3" stroke-linecap="round"/>
<path d="M143.5 95V136H105.5" stroke="white" stroke-width="3" stroke-linecap="round"/>
</svg>
