<svg width="48" height="49" viewBox="0 0 48 49" fill="none" xmlns="http://www.w3.org/2000/svg">
<g id="fluent:branch-24-regular">
<path id="Vector" d="M7.99977 11.5002C8.00001 10.2011 8.36177 8.92762 9.04457 7.8224C9.72737 6.71717 10.7043 5.82376 11.8659 5.24215C13.0276 4.66054 14.3282 4.41368 15.6222 4.5292C16.9162 4.64471 18.1525 5.11805 19.1928 5.89623C20.2331 6.67441 21.0363 7.72673 21.5125 8.93543C21.9887 10.1441 22.1192 11.4615 21.8893 12.7401C21.6594 14.0188 21.0782 15.2082 20.2108 16.1753C19.3434 17.1424 18.224 17.8491 16.9778 18.2162C17.6672 20.4692 19.0616 22.4413 20.9557 23.8426C22.8498 25.2438 25.1437 26.0001 27.4998 26.0002H28.1598C28.531 24.3153 29.5112 22.8268 30.9123 21.8202C32.3135 20.8135 34.037 20.3596 35.7522 20.5455C37.4675 20.7314 39.0537 21.544 40.2067 22.8275C41.3596 24.111 41.9982 25.7749 41.9998 27.5002C42.0027 29.2282 41.3664 30.8962 40.2134 32.1832C39.0603 33.4702 37.472 34.2852 35.754 34.4714C34.0361 34.6576 32.31 34.2018 30.908 33.1917C29.506 32.1816 28.5271 30.6887 28.1598 29.0002H27.4998C25.3814 29.0021 23.2904 28.5223 21.3847 27.5972C19.479 26.6721 17.8086 25.3258 16.4998 23.6602V30.6602C18.1846 31.0314 19.6732 32.0116 20.6798 33.4128C21.6864 34.8139 22.1403 36.5374 21.9544 38.2527C21.7685 39.9679 20.9559 41.5541 19.6725 42.7071C18.389 43.8601 16.7251 44.4986 14.9998 44.5002C13.2718 44.5031 11.6038 43.8669 10.3168 42.7138C9.02978 41.5607 8.21475 39.9724 8.02856 38.2545C7.84237 36.5365 8.29818 34.8105 9.30825 33.4084C10.3183 32.0064 11.8113 31.0275 13.4998 30.6602V18.3402C11.9406 17.9978 10.5453 17.1329 9.54504 15.8889C8.54475 14.6449 7.99954 13.0965 7.99977 11.5002ZM14.9998 7.50019C13.9389 7.50019 12.9215 7.92162 12.1713 8.67176C11.4212 9.42191 10.9998 10.4393 10.9998 11.5002C10.9998 12.5611 11.4212 13.5785 12.1713 14.3286C12.9215 15.0788 13.9389 15.5002 14.9998 15.5002C16.0606 15.5002 17.0781 15.0788 17.8282 14.3286C18.5783 13.5785 18.9998 12.5611 18.9998 11.5002C18.9998 10.4393 18.5783 9.42191 17.8282 8.67176C17.0781 7.92162 16.0606 7.50019 14.9998 7.50019ZM14.9998 33.5002C13.9389 33.5002 12.9215 33.9216 12.1713 34.6718C11.4212 35.4219 10.9998 36.4393 10.9998 37.5002C10.9998 38.5611 11.4212 39.5785 12.1713 40.3286C12.9215 41.0788 13.9389 41.5002 14.9998 41.5002C16.0606 41.5002 17.0781 41.0788 17.8282 40.3286C18.5783 39.5785 18.9998 38.5611 18.9998 37.5002C18.9998 36.4393 18.5783 35.4219 17.8282 34.6718C17.0781 33.9216 16.0606 33.5002 14.9998 33.5002ZM30.9998 27.5002C30.9998 28.5611 31.4212 29.5785 32.1713 30.3286C32.9215 31.0788 33.9389 31.5002 34.9998 31.5002C36.0606 31.5002 37.0781 31.0788 37.8282 30.3286C38.5783 29.5785 38.9998 28.5611 38.9998 27.5002C38.9998 26.4393 38.5783 25.4219 37.8282 24.6718C37.0781 23.9216 36.0606 23.5002 34.9998 23.5002C33.9389 23.5002 32.9215 23.9216 32.1713 24.6718C31.4212 25.4219 30.9998 26.4393 30.9998 27.5002Z" fill="#D8F520"/>
</g>
</svg>
