<svg width="95" height="90" viewBox="0 0 95 90" fill="none" xmlns="http://www.w3.org/2000/svg">
<g id="Group 198">
<g id="Group 193">
<g id="Group 64">
<g id="Clip path group">
<mask id="mask0_951_17095" style="mask-type:luminance" maskUnits="userSpaceOnUse" x="21" y="21" width="55" height="54">
<g id="285da26281">
<path id="Vector" d="M21.3164 21.2456H75.0207V74.9393H21.3164V21.2456Z" fill="white"/>
</g>
</mask>
<g mask="url(#mask0_951_17095)">
<g id="Group">
<path id="Vector_2" d="M21.3164 21.2456H75.0207V74.9393H21.3164V21.2456Z" fill="#FFD600"/>
</g>
</g>
</g>
<path id="Vector_3" d="M56.4305 61.4387C57.4633 63.1103 58.5813 64.718 60.9556 64.718C62.9573 64.718 64.0007 63.7279 64.0007 62.3544C64.0007 60.7147 62.9253 60.1291 60.7213 59.1709L59.5182 58.6598C56.0472 57.1905 53.7368 55.3379 53.7368 51.441C53.7368 47.8423 56.4838 45.106 60.7852 45.106C63.8516 45.106 66.0556 46.1707 67.642 48.9496L63.8836 51.3452C63.0637 49.8759 62.1694 49.2903 60.7852 49.2903C59.3798 49.2903 58.4854 50.1847 58.4854 51.3452C58.4854 52.7826 59.3798 53.3682 61.4454 54.2519L62.6485 54.7736C66.7476 56.5091 69.0581 58.2978 69.0581 62.3011C69.0581 66.6132 65.651 68.9769 61.0727 68.9769C56.6009 68.9769 54.0562 66.7304 52.6402 63.9514L56.4305 61.4387ZM39.1502 61.5558C39.9061 62.908 41.0454 63.9514 42.6957 63.9514C44.2715 63.9514 45.1871 63.3339 45.1871 60.9064V45.106H50.1594V61.673C50.1594 66.6878 47.242 68.9769 42.9938 68.9769C39.1395 68.9769 36.3713 66.3684 35.2427 63.9514L39.1502 61.5558Z" fill="#000001"/>
</g>
</g>
<g id="Group 197">
<path id="Vector 2" d="M2.0708 61.9063V87.8657H26.0334" stroke="white" stroke-width="3" stroke-linecap="round"/>
<path id="Vector 5" d="M2.0708 27.9595V2H26.0334" stroke="white" stroke-width="3" stroke-linecap="round"/>
<path id="Vector 4" d="M92.9287 61.9063V87.8657H68.9661" stroke="white" stroke-width="3" stroke-linecap="round"/>
<path id="Vector 6" d="M92.9287 27.9595V2H68.9661" stroke="white" stroke-width="3" stroke-linecap="round"/>
</g>
</g>
</svg>
