<svg width="48" height="49" viewBox="0 0 48 49" fill="none" xmlns="http://www.w3.org/2000/svg">
<g id="la:hands-helping">
<path id="Vector" d="M31.5 5.04639L30.516 6.12489C28.3125 8.55039 26.496 9.63489 24.984 10.3444C23.472 11.0524 22.2015 11.2639 20.9535 12.2194C19.623 13.2394 17.6895 15.1954 16.875 18.6874C15.129 19.0684 13.851 19.7374 12.843 20.6089C11.847 21.4699 11.097 22.4494 10.173 23.5159C10.1655 23.5279 10.1775 23.5504 10.173 23.5624C8.847 25.0864 7.6875 26.7274 5.4375 27.5944L4.5 27.9694V43.9999H33.0945C34.734 43.9114 35.871 42.7759 36.5625 41.6554C37.2525 40.5364 37.635 39.3244 37.8285 38.3284C38.3265 35.7904 39.234 28.4839 39.234 28.4839L39.282 28.3444V28.2034C39.234 27.1894 38.817 26.3284 38.2965 25.5304L39.984 20.5159L42.657 16.4839L43.407 15.4054L42.4215 14.5159L32.5785 5.98389L31.5 5.04639ZM31.5945 9.17139L39.4215 15.9694L37.359 19.0144L37.2195 19.1569L37.1715 19.3909L35.8125 23.4214C35.103 23.1289 34.3725 22.9234 33.5625 22.9534H33.468L24 22.9999H22.5V28.8124C22.29 30.4474 21.381 31.0804 20.25 31.5319C19.875 31.6834 19.8285 31.6009 19.5 31.6714V22.9549C19.254 17.3944 21.234 15.7939 22.782 14.6104C23.2095 14.2819 24.462 13.9024 26.25 13.0639C27.744 12.3604 29.601 11.0989 31.5945 9.17139ZM16.5945 22.0624C16.5885 22.4029 16.482 22.6429 16.5 22.9999V34.9999H18C18 34.9999 19.605 34.9819 21.3285 34.2964C23.0505 33.6109 25.131 32.0059 25.5 29.1874V25.9999L33.5625 25.9534H33.609C34.2675 25.9173 34.9134 26.1436 35.4054 26.5828C35.8974 27.0219 36.1953 27.6381 36.234 28.2964C36.228 28.3204 36.159 28.8769 36.141 28.9999H30V31.9999H35.766C35.607 33.1594 35.4615 33.8869 35.2965 34.9999H30V37.9999H34.8285C34.6512 38.7256 34.3666 39.4208 33.984 40.0624C33.5745 40.7299 33.222 40.9819 32.907 40.9999H7.5V29.7964C9.9315 28.5064 11.4435 26.6509 12.4215 25.5319C13.4355 24.3709 14.1315 23.4919 14.8125 22.9069C15.258 22.5259 15.9555 22.3084 16.5945 22.0624Z" fill="#D8F520"/>
</g>
</svg>
