<svg width="95" height="90" viewBox="0 0 95 90" fill="none" xmlns="http://www.w3.org/2000/svg">
<g id="Group 202">
<g id="Group 206">
<g id="Group 71">
<g id="Clip path group">
<mask id="mask0_659_16344" style="mask-type:luminance" maskUnits="userSpaceOnUse" x="69" y="42" width="12" height="13">
<g id="6f357b48d2">
<path id="Vector" d="M69.376 42.1421H80.6774V54.819H69.376V42.1421Z" fill="white"/>
</g>
</mask>
<g mask="url(#mask0_659_16344)">
<g id="Group">
<path id="Vector_2" d="M75.3452 42.5498C75.1838 42.5498 75.0225 42.5838 74.8867 42.6687L70.4714 45.2075C70.1827 45.3688 70.0044 45.6745 70.0044 46.0056V51.0747C70.0044 51.4058 70.1827 51.7115 70.4714 51.8728L71.6177 52.5351C72.1781 52.8153 72.3903 52.8068 72.6451 52.8068C73.4772 52.8068 73.9442 52.3058 73.9442 51.4398V46.4386C73.9442 46.3622 73.8847 46.3113 73.8168 46.3113H73.2649C73.1885 46.3113 73.129 46.3707 73.129 46.4386V51.4398C73.129 51.8219 72.73 52.2124 72.0677 51.8898L70.8705 51.185C70.828 51.1681 70.794 51.1256 70.794 51.0747V46.0056C70.794 45.9631 70.828 45.9122 70.8705 45.8867L75.2772 43.3564C75.3197 43.331 75.3706 43.331 75.4131 43.3564L79.8199 45.8867C79.8623 45.9122 79.8963 45.9547 79.8963 46.0056V51.0747C79.8963 51.1256 79.8708 51.1766 79.8284 51.1935L75.4131 53.7238C75.3706 53.7493 75.3197 53.7493 75.2772 53.7238L74.148 53.053C74.114 53.0361 74.063 53.0361 74.0291 53.053C73.7234 53.2314 73.664 53.2483 73.3668 53.3502C73.2989 53.3757 73.1885 53.4182 73.4008 53.537L74.8867 54.4116C75.031 54.488 75.1838 54.5305 75.3452 54.5305C75.5065 54.5305 75.6678 54.488 75.8037 54.4116L80.2189 51.8813C80.5076 51.7115 80.6859 51.4058 80.6859 51.0747V46.0056C80.6859 45.6829 80.5076 45.3688 80.2189 45.2075L75.8037 42.6687C75.6678 42.5923 75.5065 42.5583 75.3452 42.5583V42.5498ZM76.5254 46.1754C75.2688 46.1754 74.5216 46.7103 74.5216 47.5934C74.5216 48.5529 75.2603 48.8161 76.466 48.935C77.9179 49.0793 78.0283 49.2916 78.0283 49.5718C78.0283 50.0642 77.6292 50.268 76.7037 50.268C75.5405 50.268 75.2772 49.9793 75.1923 49.402C75.1838 49.3425 75.1329 49.2916 75.0735 49.2916H74.4961C74.4112 49.2916 74.3687 49.334 74.3687 49.4189C74.3687 50.1576 74.7678 51.0322 76.7037 51.0322C78.1047 51.0322 78.9029 50.4888 78.9029 49.5293C78.9029 48.5868 78.2575 48.3321 76.899 48.1538C75.532 47.967 75.3961 47.8821 75.3961 47.5594C75.3961 47.2962 75.5065 46.9481 76.5254 46.9481C77.4339 46.9481 77.7651 47.1434 77.9009 47.7462C77.9179 47.8057 77.9689 47.8566 78.0283 47.8566H78.5972C78.6311 47.8566 78.6651 47.8311 78.6906 47.8057C78.7161 47.7802 78.733 47.7462 78.733 47.7123C78.6396 46.6679 77.9434 46.1754 76.5254 46.1754Z" fill="#83CD29"/>
</g>
</g>
</g>
<g id="Clip path group_2">
<mask id="mask1_659_16344" style="mask-type:luminance" maskUnits="userSpaceOnUse" x="14" y="35" width="54" height="20">
<g id="0439c3622e">
<path id="Vector_3" d="M14.0566 35.7822H67.2012V54.8188H14.0566V35.7822Z" fill="white"/>
</g>
</mask>
<g mask="url(#mask1_659_16344)">
<g id="Group_2">
<path id="Vector_4" d="M49.3788 35.9092C49.3278 35.9092 49.2769 35.9177 49.2344 35.9431C49.141 36.0026 49.0986 36.079 49.0901 36.1894V43.3302C49.0901 43.3982 49.0646 43.4576 48.9967 43.5C48.9372 43.534 48.8693 43.534 48.8014 43.5L47.6296 42.8208C47.4428 42.7189 47.256 42.7189 47.0692 42.8208L42.3908 45.5124C42.2125 45.6143 42.1106 45.8096 42.1106 46.0049V51.3796C42.1106 51.6004 42.204 51.7617 42.3908 51.8721L47.0692 54.5552C47.256 54.6656 47.4428 54.6656 47.6296 54.5552L52.3081 51.8721C52.4949 51.7617 52.5968 51.6004 52.5883 51.3796V37.981C52.5883 37.7772 52.4779 37.5819 52.2996 37.4885L49.5146 35.9347C49.4722 35.9092 49.4212 35.9092 49.3788 35.9092ZM19.2701 42.617C19.1851 42.6255 19.1002 42.634 19.0153 42.6849L14.3368 45.3765C14.15 45.4784 14.0566 45.6397 14.0566 45.8605L14.0651 53.0693C14.0651 53.1712 14.1161 53.2646 14.2095 53.3155C14.2944 53.3665 14.4048 53.3665 14.4897 53.3155L17.2662 51.7277C17.4445 51.6258 17.5549 51.4475 17.5549 51.2437V47.8729C17.5549 47.6691 17.6653 47.4908 17.8351 47.3889L19.0153 46.7096C19.1087 46.6587 19.2021 46.6332 19.304 46.6332C19.3974 46.6332 19.4993 46.6587 19.5842 46.7096L20.7645 47.3889C20.9343 47.4908 21.0446 47.6691 21.0446 47.8729V51.2437C21.0446 51.439 21.1635 51.6258 21.3333 51.7277L24.1099 53.3155C24.1948 53.3665 24.3052 53.3665 24.3901 53.3155C24.475 53.2646 24.5344 53.1712 24.5344 53.0693L24.5429 45.8605C24.5429 45.6397 24.4495 45.4784 24.2627 45.368L19.5842 42.6849C19.4993 42.6425 19.4144 42.6255 19.3295 42.617H19.2701ZM61.3255 42.6849C61.2236 42.6849 61.1302 42.7104 61.0368 42.7613L56.3583 45.4445C56.1885 45.5463 56.0781 45.7331 56.0781 45.9284V51.3117C56.0781 51.507 56.197 51.6938 56.3668 51.7956L61.0113 54.4278C61.1811 54.5212 61.3934 54.5297 61.5632 54.4363L64.3822 52.874C64.4671 52.8315 64.5265 52.7381 64.5265 52.6362C64.5265 52.5344 64.4756 52.441 64.3907 52.39L59.6782 49.7069C59.5933 49.6559 59.5339 49.5541 59.5339 49.4522V47.771C59.5339 47.6691 59.5933 47.5757 59.6782 47.5247L61.1472 46.6841C61.2321 46.6417 61.334 46.6417 61.4274 46.6841L62.8878 47.5247C62.9812 47.5842 63.0321 47.6606 63.0321 47.771V49.0955C63.0321 49.2059 63.0746 49.2823 63.1765 49.3418C63.2614 49.3927 63.3633 49.3927 63.4567 49.3418L66.2587 47.7115C66.4285 47.6096 66.5389 47.4313 66.5389 47.2275V45.9284C66.5389 45.7162 66.4455 45.5548 66.2587 45.4445L61.6057 42.7613C61.5208 42.7104 61.4274 42.6849 61.3255 42.6849ZM47.3325 46.7011C47.3579 46.7011 47.3834 46.7011 47.4089 46.7181L49.0052 47.6436C49.0561 47.6691 49.0816 47.7115 49.0816 47.7625V49.6135C49.0816 49.6559 49.0561 49.7069 49.0052 49.7324L47.4089 50.6579C47.3579 50.6833 47.307 50.6833 47.2645 50.6579L45.6598 49.7324C45.6173 49.7069 45.5833 49.6559 45.5833 49.6135V47.7625C45.5833 47.7115 45.6173 47.6691 45.6598 47.6436L47.2645 46.7181C47.29 46.7011 47.307 46.7011 47.3325 46.7011Z" fill="#404137"/>
</g>
</g>
</g>
<g id="Clip path group_3">
<mask id="mask2_659_16344" style="mask-type:luminance" maskUnits="userSpaceOnUse" x="28" y="42" width="35" height="13">
<g id="75447b74f5">
<path id="Vector_5" d="M28.0757 42.1421H62.8544V54.819H28.0757V42.1421Z" fill="white"/>
</g>
</mask>
<g mask="url(#mask2_659_16344)">
<g id="Group_3">
<path id="Vector_6" d="M33.3318 42.6597C33.23 42.6597 33.1366 42.6851 33.0516 42.7276L28.3732 45.4107C28.1949 45.5126 28.0845 45.7079 28.0845 45.9032V51.2779C28.0845 51.4987 28.1779 51.66 28.3732 51.7619L33.0516 54.4535C33.2384 54.5639 33.4252 54.5639 33.612 54.4535L38.2905 51.7619C38.4773 51.66 38.5707 51.4987 38.5707 51.2779V45.9032C38.5707 45.7079 38.4688 45.5126 38.2905 45.4107L33.612 42.7276C33.5271 42.6851 33.4337 42.6597 33.3318 42.6597ZM61.3178 47.457C61.2924 47.457 61.2754 47.457 61.2584 47.4655L60.3584 47.9835C60.3244 48.0089 60.2989 48.0344 60.2989 48.0769V49.1043C60.2989 49.1467 60.3244 49.1807 60.3584 49.1977L61.2584 49.7156C61.2924 49.7326 61.3263 49.7326 61.3603 49.7156L62.2603 49.1977C62.2943 49.1807 62.3198 49.1467 62.3198 49.1043V48.0769C62.3198 48.0429 62.2943 48.0089 62.2603 47.9835L61.3603 47.4655C61.3433 47.457 61.3348 47.457 61.3178 47.457Z" fill="#83CD29"/>
</g>
</g>
</g>
</g>
<g id="Group 201">
<path id="Vector 2" d="M2.21289 61.6382V87.5977H26.1755" stroke="white" stroke-width="3" stroke-linecap="round"/>
<path id="Vector 5" d="M2.21289 27.6914V1.73193H26.1755" stroke="white" stroke-width="3" stroke-linecap="round"/>
<path id="Vector 4" d="M93.0708 61.6382V87.5977H69.1082" stroke="white" stroke-width="3" stroke-linecap="round"/>
<path id="Vector 6" d="M93.0708 27.6914V1.73193H69.1082" stroke="white" stroke-width="3" stroke-linecap="round"/>
</g>
</g>
</g>
</svg>
