<svg width="95" height="90" viewBox="0 0 95 90" fill="none" xmlns="http://www.w3.org/2000/svg">
<g id="Group 205">
<g id="Group 78">
<g id="Clip path group">
<mask id="mask0_659_16400" style="mask-type:luminance" maskUnits="userSpaceOnUse" x="16" y="16" width="46" height="45">
<g id="6d2b4c7979">
<path id="Vector" d="M16.8755 16.5366H61.9101V60.0154H16.8755V16.5366Z" fill="white"/>
</g>
</mask>
<g mask="url(#mask0_659_16400)">
<g id="Group">
<g id="Clip path group_2">
<mask id="mask1_659_16400" style="mask-type:luminance" maskUnits="userSpaceOnUse" x="16" y="16" width="44" height="44">
<g id="da95dbe16c">
<path id="Vector_2" d="M45.5413 16.5259C30.8885 16.5259 31.805 22.9198 31.805 22.9198L31.8263 29.5375H45.7971V31.5197H26.2636C26.2636 31.5197 16.8965 30.454 16.8965 45.3199C16.8965 60.1751 25.0807 59.653 25.0807 59.653H29.9614V52.7582C29.9614 52.7582 29.695 44.5313 38.0071 44.5313H51.882C51.882 44.5313 59.6719 44.6592 59.6719 36.9545V24.2306C59.6719 24.2306 60.8548 16.5259 45.5413 16.5259ZM37.8366 20.9803C39.222 20.9803 40.3516 22.1099 40.3516 23.5059C40.3516 24.9126 39.222 26.0422 37.8366 26.0422C36.4406 26.0422 35.3217 24.9126 35.3217 23.5059C35.3217 22.1099 36.4406 20.9803 37.8366 20.9803Z" fill="white"/>
</g>
</mask>
<g mask="url(#mask1_659_16400)">
<g id="Group_2">
<path id="Vector_3" d="M16.8965 16.5366V60.1752H60.8548V16.5366H16.8965Z" fill="url(#paint0_linear_659_16400)"/>
</g>
</g>
</g>
</g>
</g>
</g>
<g id="Clip path group_3">
<mask id="mask2_659_16400" style="mask-type:luminance" maskUnits="userSpaceOnUse" x="29" y="30" width="46" height="45">
<g id="d65e31e5c0">
<path id="Vector_4" d="M29.1729 30.0073H74.6018V74.2747H29.1729V30.0073Z" fill="white"/>
</g>
</mask>
<g mask="url(#mask2_659_16400)">
<g id="Group_3">
<g id="Clip path group_4">
<mask id="mask3_659_16400" style="mask-type:luminance" maskUnits="userSpaceOnUse" x="31" y="31" width="44" height="44">
<g id="5fd89b80ad">
<path id="Vector_5" d="M45.957 74.2529C60.6097 74.2529 59.6933 67.8696 59.6933 67.8696L59.6719 61.2412H45.6905V59.2591H65.224C65.224 59.2591 74.6018 60.3248 74.6018 45.4695C74.6018 30.6036 66.4175 31.1258 66.4175 31.1258H61.5368V38.0312C61.5368 38.0312 61.8033 46.2581 53.4911 46.2581H39.6163C39.6163 46.2581 31.8264 46.1302 31.8264 53.8243V66.5482C31.8264 66.5482 30.6435 74.2529 45.957 74.2529ZM53.6616 69.7984C52.2763 69.7984 51.1467 68.6688 51.1467 67.2728C51.1467 65.8768 52.2763 64.7472 53.6616 64.7472C55.0577 64.7472 56.1766 65.8768 56.1766 67.2728C56.1766 68.6688 55.0577 69.7984 53.6616 69.7984Z" fill="white"/>
</g>
</mask>
<g mask="url(#mask3_659_16400)">
<g id="Group_4">
<path id="Vector_6" d="M30.6436 30.604V74.2533H74.6019V30.604H30.6436Z" fill="url(#paint1_linear_659_16400)"/>
</g>
</g>
</g>
</g>
</g>
</g>
</g>
<g id="Group 203">
<g id="Group 201">
<path id="Vector 2" d="M2.0708 61.6382V87.5977H26.0334" stroke="white" stroke-width="3" stroke-linecap="round"/>
<path id="Vector 5" d="M2.0708 27.6914V1.73193H26.0334" stroke="white" stroke-width="3" stroke-linecap="round"/>
<path id="Vector 4" d="M92.9287 61.6382V87.5977H68.9661" stroke="white" stroke-width="3" stroke-linecap="round"/>
<path id="Vector 6" d="M92.9287 27.6914V1.73193H68.9661" stroke="white" stroke-width="3" stroke-linecap="round"/>
</g>
</g>
</g>
<defs>
<linearGradient id="paint0_linear_659_16400" x1="17.0727" y1="16.356" x2="61.2108" y2="59.8151" gradientUnits="userSpaceOnUse">
<stop stop-color="#387EB8"/>
<stop offset="0.125" stop-color="#387EB8"/>
<stop offset="0.140625" stop-color="#387EB8"/>
<stop offset="0.15625" stop-color="#387DB7"/>
<stop offset="0.171875" stop-color="#387DB6"/>
<stop offset="0.1875" stop-color="#387CB5"/>
<stop offset="0.203125" stop-color="#387CB4"/>
<stop offset="0.21875" stop-color="#387BB3"/>
<stop offset="0.234375" stop-color="#387BB2"/>
<stop offset="0.25" stop-color="#387AB1"/>
<stop offset="0.265625" stop-color="#387AB1"/>
<stop offset="0.28125" stop-color="#3879B0"/>
<stop offset="0.296875" stop-color="#3879AF"/>
<stop offset="0.3125" stop-color="#3878AE"/>
<stop offset="0.328125" stop-color="#3778AD"/>
<stop offset="0.34375" stop-color="#3777AC"/>
<stop offset="0.359375" stop-color="#3777AB"/>
<stop offset="0.375" stop-color="#3776AB"/>
<stop offset="0.390625" stop-color="#3776AA"/>
<stop offset="0.40625" stop-color="#3775A9"/>
<stop offset="0.421875" stop-color="#3775A8"/>
<stop offset="0.4375" stop-color="#3774A7"/>
<stop offset="0.453125" stop-color="#3774A6"/>
<stop offset="0.46875" stop-color="#3773A5"/>
<stop offset="0.484375" stop-color="#3773A4"/>
<stop offset="0.494335" stop-color="#3772A4"/>
<stop offset="0.5" stop-color="#3772A3"/>
<stop offset="0.505665" stop-color="#3772A3"/>
<stop offset="0.515625" stop-color="#3771A2"/>
<stop offset="0.53125" stop-color="#3771A2"/>
<stop offset="0.546875" stop-color="#3771A1"/>
<stop offset="0.5625" stop-color="#3770A0"/>
<stop offset="0.578125" stop-color="#37709F"/>
<stop offset="0.59375" stop-color="#376F9E"/>
<stop offset="0.609375" stop-color="#376F9D"/>
<stop offset="0.625" stop-color="#376E9D"/>
<stop offset="0.640625" stop-color="#366E9C"/>
<stop offset="0.65625" stop-color="#366D9B"/>
<stop offset="0.671875" stop-color="#366D9A"/>
<stop offset="0.6875" stop-color="#366C99"/>
<stop offset="0.703125" stop-color="#366C98"/>
<stop offset="0.71875" stop-color="#366B97"/>
<stop offset="0.734375" stop-color="#366B97"/>
<stop offset="0.75" stop-color="#366A96"/>
<stop offset="0.765625" stop-color="#366A95"/>
<stop offset="0.78125" stop-color="#366994"/>
<stop offset="0.8125" stop-color="#366994"/>
<stop offset="0.875" stop-color="#366994"/>
<stop offset="1" stop-color="#366994"/>
</linearGradient>
<linearGradient id="paint1_linear_659_16400" x1="30.4114" y1="30.8545" x2="75.527" y2="73.2719" gradientUnits="userSpaceOnUse">
<stop stop-color="#FFE052"/>
<stop offset="0.125" stop-color="#FFE052"/>
<stop offset="0.1875" stop-color="#FFE052"/>
<stop offset="0.21875" stop-color="#FFE052"/>
<stop offset="0.234375" stop-color="#FFDF51"/>
<stop offset="0.25" stop-color="#FFDF51"/>
<stop offset="0.265625" stop-color="#FFDE50"/>
<stop offset="0.28125" stop-color="#FFDD4F"/>
<stop offset="0.296875" stop-color="#FFDD4E"/>
<stop offset="0.3125" stop-color="#FFDC4E"/>
<stop offset="0.328125" stop-color="#FFDB4D"/>
<stop offset="0.34375" stop-color="#FFDB4C"/>
<stop offset="0.359375" stop-color="#FFDA4B"/>
<stop offset="0.375" stop-color="#FFD94B"/>
<stop offset="0.390625" stop-color="#FFD94A"/>
<stop offset="0.40625" stop-color="#FFD849"/>
<stop offset="0.421875" stop-color="#FFD748"/>
<stop offset="0.4375" stop-color="#FFD748"/>
<stop offset="0.453125" stop-color="#FFD647"/>
<stop offset="0.46875" stop-color="#FFD546"/>
<stop offset="0.482837" stop-color="#FFD545"/>
<stop offset="0.484375" stop-color="#FFD445"/>
<stop offset="0.5" stop-color="#FFD445"/>
<stop offset="0.515625" stop-color="#FFD444"/>
<stop offset="0.517163" stop-color="#FFD343"/>
<stop offset="0.53125" stop-color="#FFD343"/>
<stop offset="0.546875" stop-color="#FFD242"/>
<stop offset="0.5625" stop-color="#FFD242"/>
<stop offset="0.578125" stop-color="#FFD141"/>
<stop offset="0.59375" stop-color="#FFD040"/>
<stop offset="0.609375" stop-color="#FFD03F"/>
<stop offset="0.625" stop-color="#FFCF3F"/>
<stop offset="0.640625" stop-color="#FFCE3E"/>
<stop offset="0.65625" stop-color="#FFCE3D"/>
<stop offset="0.671875" stop-color="#FFCD3C"/>
<stop offset="0.6875" stop-color="#FFCC3C"/>
<stop offset="0.703125" stop-color="#FFCC3B"/>
<stop offset="0.71875" stop-color="#FFCB3A"/>
<stop offset="0.734375" stop-color="#FFCA39"/>
<stop offset="0.75" stop-color="#FFCA39"/>
<stop offset="0.765625" stop-color="#FFC938"/>
<stop offset="0.78125" stop-color="#FFC837"/>
<stop offset="0.796875" stop-color="#FFC836"/>
<stop offset="0.8125" stop-color="#FFC735"/>
<stop offset="0.828125" stop-color="#FFC635"/>
<stop offset="0.84375" stop-color="#FFC634"/>
<stop offset="0.859375" stop-color="#FFC533"/>
<stop offset="0.875" stop-color="#FFC432"/>
<stop offset="0.890625" stop-color="#FFC432"/>
<stop offset="0.90625" stop-color="#FFC331"/>
<stop offset="0.9375" stop-color="#FFC331"/>
<stop offset="1" stop-color="#FFC331"/>
</linearGradient>
</defs>
</svg>
