<svg width="95" height="90" viewBox="0 0 95 90" fill="none" xmlns="http://www.w3.org/2000/svg">
<g id="Group 200">
<g id="Group 208">
<g id="Group 73">
<path id="Vector" d="M53.466 44.8551C53.466 45.5002 53.337 46.1336 53.0906 46.7318C52.8443 47.3417 52.4924 47.8695 52.0233 48.327C51.5658 48.7962 51.038 49.1481 50.4398 49.3944C49.8416 49.6524 49.2082 49.7697 48.5631 49.7697C47.9062 49.7697 47.2846 49.6524 46.6864 49.3944C46.0882 49.1481 45.5603 48.7962 45.0911 48.327C44.6337 47.8695 44.2818 47.3417 44.0355 46.7318C43.7892 46.1336 43.6602 45.5002 43.6602 44.8551C43.6602 44.1982 43.7892 43.5766 44.0355 42.9666C44.2818 42.3684 44.6337 41.8406 45.0911 41.3714C45.5603 40.914 46.0882 40.5621 46.6864 40.3041C47.2846 40.0577 47.9062 39.9287 48.5631 39.9287C49.2082 39.9287 49.8416 40.0577 50.4398 40.3041C51.038 40.5621 51.5658 40.914 52.0233 41.3714C52.4924 41.8406 52.8443 42.3684 53.0906 42.9666C53.337 43.5766 53.466 44.1982 53.466 44.8551Z" fill="#53C1DE"/>
<g id="Clip path group">
<mask id="mask0_951_17109" style="mask-type:luminance" maskUnits="userSpaceOnUse" x="21" y="19" width="55" height="52">
<g id="f624883aca">
<path id="Vector_2" d="M21.1748 19.7651H75.9513V70.1666H21.1748V19.7651Z" fill="white"/>
</g>
</mask>
<g mask="url(#mask0_951_17109)">
<g id="Group">
<path id="Vector_3" d="M31.4733 53.5696C31.9542 53.7221 32.4351 53.8863 32.9277 54.0271C32.7752 54.6722 32.6345 55.3056 32.5055 55.9624C31.3794 61.921 32.2591 66.6479 35.0625 68.2783C37.9479 69.9439 42.8039 68.2314 47.5309 64.0675C47.9062 63.739 48.2816 63.3989 48.6569 63.0353C49.1261 63.4927 49.6187 63.9384 50.1114 64.3607C54.6858 68.3135 59.2134 69.9205 62.005 68.2901C64.9022 66.6245 65.8406 61.5339 64.6207 55.3525C64.5269 54.8833 64.4213 54.3907 64.304 53.898C64.6442 53.8042 64.9726 53.6986 65.301 53.5931C71.4824 51.5404 75.9513 48.221 75.9513 44.8077C75.9513 41.5587 71.7405 38.4034 65.9109 36.386C65.3362 36.1983 64.7614 36.0106 64.1867 35.8347C64.2805 35.4476 64.3626 35.0488 64.4447 34.65C65.7702 28.2457 64.9022 23.0965 61.9816 21.4075C59.1665 19.7771 54.5686 21.4661 49.9354 25.5245C49.4662 25.9233 49.0205 26.3456 48.5983 26.7678C48.305 26.4863 48.0001 26.2048 47.7068 25.935C42.8391 21.5951 37.9596 19.7653 35.039 21.4778C32.2357 23.1082 31.4029 27.9642 32.5758 34.0166C32.6931 34.6148 32.8222 35.2013 32.9746 35.8112C32.2826 35.9989 31.614 36.21 30.9806 36.4446C25.2684 38.4269 21.1748 41.5704 21.1748 44.8077C21.1748 48.1623 25.5382 51.5287 31.4733 53.5696ZM46.0295 62.3198C44.2584 63.9384 42.2174 65.2287 39.9888 66.1084C38.8042 66.6831 37.4318 66.7301 36.212 66.2491C34.5112 65.2639 33.8074 61.4753 34.7692 56.3612C34.8865 55.763 35.0156 55.1648 35.168 54.5666C37.5608 55.0827 39.9771 55.4463 42.4286 55.6223C43.8361 57.628 45.3961 59.5516 47.05 61.358C46.7098 61.6864 46.3697 62.0148 46.0295 62.3198ZM59.6122 42.1451C59.1079 41.195 58.6035 40.2567 58.0639 39.3301C57.5361 38.4152 56.9966 37.512 56.4218 36.6206C58.146 36.8434 59.7999 37.1249 61.3364 37.4885C60.8438 39.072 60.2691 40.6203 59.6122 42.1451ZM59.6357 47.4938C60.316 49.0538 60.9142 50.6372 61.442 52.2559C59.7882 52.6313 58.1108 52.9245 56.4101 53.1122C56.9965 52.209 57.5361 51.2824 58.0757 50.3675C58.6152 49.4174 59.1313 48.4673 59.6357 47.4938ZM58.3924 44.8194C57.6769 46.3091 56.9144 47.7635 56.0816 49.2063C55.2723 50.6372 54.4043 52.0213 53.5012 53.3937C51.906 53.511 50.2521 53.5696 48.5631 53.5696C46.8858 53.5696 45.2671 53.511 43.6836 53.4171C42.757 52.0565 41.8773 50.649 41.0562 49.2297C40.2352 47.7987 39.4727 46.3443 38.7573 44.8664C39.461 43.3767 40.2234 41.934 41.0445 40.503C41.8538 39.072 42.7335 37.6879 43.6484 36.3273C45.2554 36.21 46.8975 36.1396 48.5631 36.1396C50.2404 36.1396 51.8825 36.21 53.4777 36.3273C54.3809 37.6762 55.2489 39.0603 56.0816 40.4795C56.9027 41.8988 57.6651 43.3533 58.3924 44.8194ZM39.0505 39.3535C38.5227 40.2684 38.0066 41.195 37.5257 42.1451C36.8571 40.5499 36.2823 38.9782 35.8132 37.4651C37.3614 37.1132 38.9918 36.8434 40.6926 36.6206C40.1296 37.512 39.5783 38.4269 39.0505 39.3535ZM37.5257 47.5759C38.0183 48.5259 38.5227 49.4643 39.0622 50.3792C39.6018 51.3176 40.1648 52.2559 40.7513 53.1708C39.0857 52.9831 37.4201 52.7134 35.7897 52.3615C36.2589 50.8132 36.8453 49.218 37.5257 47.5759ZM48.6452 59.7041C47.5543 58.5194 46.4635 57.2175 45.4079 55.8099C46.44 55.8451 47.4957 55.8686 48.5631 55.8686C49.6656 55.8686 50.7448 55.8451 51.8121 55.7982C50.8386 57.1588 49.7712 58.4608 48.6452 59.7041ZM62.6384 62.9297C62.5328 64.2434 61.8995 65.4633 60.8673 66.2961C59.1665 67.2813 55.5421 65.9911 51.6245 62.613C51.1787 62.2259 50.7213 61.8154 50.2638 61.3814C51.906 59.5634 53.4073 57.6397 54.7797 55.6223C57.2311 55.4229 59.6709 55.0475 62.0754 54.4962C62.181 54.942 62.2748 55.3759 62.3686 55.8099C62.8965 58.1324 62.9786 60.5486 62.6384 62.9297ZM63.565 38.0515C64.1163 38.2158 64.6559 38.38 65.172 38.5559C70.157 40.2801 73.6524 42.8372 73.6524 44.7843C73.6524 46.8956 69.9224 49.6168 64.5738 51.3879C64.2805 51.4818 63.9756 51.5756 63.6706 51.6694C62.9199 49.3235 62.005 47.0363 60.9376 44.8077C61.9698 42.6143 62.8378 40.3622 63.565 38.0515ZM51.4368 27.2722C55.4248 23.7885 59.1313 22.4279 60.8203 23.4015C62.6267 24.4454 63.3305 28.6563 62.1927 34.1926C62.1223 34.5562 62.0402 34.9081 61.9464 35.2599C59.5653 34.7204 57.1608 34.3333 54.7445 34.1222C53.3604 32.1282 51.8356 30.2163 50.1817 28.4217C50.604 28.0229 51.0145 27.6475 51.4368 27.2722ZM48.5865 30.0638C49.7126 31.2837 50.7682 32.5739 51.7535 33.9111C49.6305 33.8055 47.5074 33.8055 45.3844 33.9111C46.4283 32.527 47.5191 31.2367 48.5865 30.0638ZM36.1768 23.4836C37.9714 22.4279 41.9594 23.9293 46.1703 27.671C46.4283 27.9056 46.6981 28.1636 46.9796 28.4217C45.314 30.2163 43.7892 32.1282 42.3934 34.1222C39.9654 34.3333 37.5726 34.7087 35.2032 35.2365C35.0625 34.6969 34.9452 34.1339 34.8279 33.5709C33.8192 28.3748 34.476 24.4571 36.1768 23.4836ZM31.7313 38.6263C32.3412 38.4034 32.9629 38.2158 33.5846 38.0281C34.3118 40.3622 35.1915 42.6495 36.2002 44.8664C35.1798 47.1067 34.2883 49.4291 33.5494 51.7867C33.1037 51.6694 32.6579 51.5287 32.2239 51.3762C29.9484 50.649 27.3562 49.5112 25.4795 48.0216C24.4004 47.2709 23.6732 46.1097 23.4738 44.8077C23.4738 42.8372 26.8519 40.3271 31.7313 38.6263Z" fill="#53C1DE"/>
</g>
</g>
</g>
</g>
<g id="Group 199">
<g id="Group 197">
<path id="Vector 2" d="M1.9292 61.9063V87.8657H25.8918" stroke="white" stroke-width="3" stroke-linecap="round"/>
<path id="Vector 5" d="M1.9292 27.9595V2H25.8918" stroke="white" stroke-width="3" stroke-linecap="round"/>
<path id="Vector 4" d="M92.7871 61.9063V87.8657H68.8245" stroke="white" stroke-width="3" stroke-linecap="round"/>
<path id="Vector 6" d="M92.7871 27.9595V2H68.8245" stroke="white" stroke-width="3" stroke-linecap="round"/>
</g>
</g>
</g>
</g>
</svg>
