<svg width="95" height="90" viewBox="0 0 95 90" fill="none" xmlns="http://www.w3.org/2000/svg">
<g id="Group 196">
<g id="Group 65">
<g id="Clip path group">
<mask id="mask0_951_17083" style="mask-type:luminance" maskUnits="userSpaceOnUse" x="18" y="14" width="61" height="61">
<g id="962c8a6743">
<path id="Vector" d="M18.188 14.98H78.0944V74.8959H18.188V14.98Z" fill="white"/>
</g>
</mask>
<g mask="url(#mask0_951_17083)">
<g id="Group">
<path id="Vector_2" d="M66.8036 14.98H29.4788C23.2533 14.98 18.188 20.0453 18.188 26.2708V63.6051C18.188 69.8211 23.2533 74.8959 29.4788 74.8959H66.8036C73.0291 74.8959 78.0944 69.8211 78.0944 63.6051V26.2708C78.0944 20.0453 73.0291 14.98 66.8036 14.98ZM35.0063 52.767C33.3933 52.767 31.7804 52.3142 31.0918 51.852L30.856 51.6162L31.5446 49.541C31.5446 49.541 31.5446 49.3147 31.7804 49.3147C32.0067 49.3147 32.0067 49.3147 32.0067 49.3147C32.7048 49.7769 33.8555 50.2391 35.2327 50.2391C36.6193 50.2391 37.5437 49.541 37.5437 48.6261C37.5437 47.9281 37.0815 47.2395 35.2327 46.5509C32.4689 45.6265 31.3182 44.2493 31.3182 42.1742C31.3182 39.6368 33.3933 37.7974 36.6193 37.7974C38.2323 37.7974 39.383 38.2502 40.0716 38.486C40.3074 38.486 40.3074 38.7124 40.3074 38.7124L39.6094 40.7876C39.6094 40.7876 39.6094 41.0234 39.383 41.0234H39.1567C38.4587 40.7876 37.5437 40.3254 36.3835 40.3254C34.7705 40.3254 34.3177 41.2498 34.3177 41.712C34.3177 42.6364 34.7705 43.0891 36.8457 43.7872C39.383 44.7021 40.5338 46.0887 40.5338 48.1639C40.5338 50.2391 39.1567 52.767 35.0063 52.767ZM54.8242 52.3142C54.8242 52.3142 55.0506 52.3142 55.0506 52.5406C55.0506 52.767 55.0506 52.767 55.0506 52.767L54.5884 54.6158C54.5884 54.8422 54.362 54.8422 54.362 54.8422C52.5227 54.38 50.9097 53.9272 48.8345 53.0028C48.5987 53.0028 48.3723 52.767 47.9101 52.767C44.6842 52.5406 41.4582 50.2391 41.4582 45.4001C41.4582 40.7876 44.222 37.7974 48.3723 37.7974C52.2868 37.7974 55.0506 40.7876 55.0506 45.1643C55.0506 48.1639 53.8998 50.4654 51.8246 51.6162C52.749 51.852 53.8998 52.0784 54.8242 52.3142ZM65.6528 52.5406H57.3616C57.1258 52.5406 57.1258 52.3142 57.1258 52.3142V38.2502C57.1258 38.0238 57.3616 38.0238 57.3616 38.0238H59.6631C59.8895 38.0238 59.8895 38.2502 59.8895 38.2502V49.7769H65.4265C65.6528 49.7769 65.6528 50.0032 65.6528 50.0032V52.3142H65.8792C65.8792 52.5406 65.6528 52.5406 65.6528 52.5406Z" fill="#83CD29"/>
</g>
</g>
</g>
<path id="Vector_3" d="M48.3732 40.3247C45.8358 40.3247 44.6851 42.8621 44.6851 45.1636C44.6851 47.9274 46.0717 50.0026 48.1374 50.0026C50.6748 50.0026 51.8255 47.4746 51.8255 45.1636C52.0614 42.8621 50.9106 40.3247 48.3732 40.3247Z" fill="#83CD29"/>
</g>
<path id="Vector 2" d="M2.21289 61.9063V87.8657H26.1755" stroke="white" stroke-width="3" stroke-linecap="round"/>
<path id="Vector 5" d="M2.21289 27.9595V2H26.1755" stroke="white" stroke-width="3" stroke-linecap="round"/>
<path id="Vector 4" d="M93.0708 61.9063V87.8657H69.1082" stroke="white" stroke-width="3" stroke-linecap="round"/>
<path id="Vector 6" d="M93.0708 27.9595V2H69.1082" stroke="white" stroke-width="3" stroke-linecap="round"/>
</g>
</svg>
