<svg width="29" height="28" viewBox="0 0 29 28" fill="none" xmlns="http://www.w3.org/2000/svg">
<path id="Vector" d="M25.5333 6.29995C26.3453 6.29995 27.0033 6.57995 27.5213 7.12595C28.0533 7.69995 28.3333 8.32995 28.3333 9.09995V24.5C28.3333 25.27 28.0533 25.9 27.5213 26.474C27.0033 27.02 26.3453 27.3 25.5333 27.3H3.13325C2.32125 27.3 1.66325 27.02 1.14525 26.474C0.613252 25.9 0.333252 25.27 0.333252 24.5V9.09995C0.333252 8.32995 0.613252 7.69995 1.14525 7.12595C1.66325 6.57995 2.32125 6.29995 3.13325 6.29995H8.73325V3.49995C8.73325 2.68795 9.01325 2.02995 9.54525 1.51195C10.0633 0.979951 10.7213 0.699951 11.5333 0.699951H17.1333C17.9453 0.699951 18.6033 0.979951 19.1213 1.51195C19.6533 2.02995 19.9333 2.68795 19.9333 3.49995V6.29995H25.5333ZM3.13325 9.09995V24.5H25.5333V9.09995H3.13325ZM17.1333 6.29995V3.49995H11.5333V6.29995H17.1333Z" fill="#D8F520"/>
</svg>
