<svg width="30" height="28" viewBox="0 0 30 28" fill="none" xmlns="http://www.w3.org/2000/svg">
<g id="Group">
<path id="Vector" d="M26.05 2.30005H3.95C2.87304 2.30005 2 3.28222 2 4.4938V23.5063C2 24.7179 2.87304 25.7001 3.95 25.7001H26.05C27.127 25.7001 28 24.7179 28 23.5063V4.4938C28 3.28222 27.127 2.30005 26.05 2.30005Z" stroke="#D8F520" stroke-width="3" stroke-linejoin="round"/>
<path id="Vector_2" d="M2 4.4938C2 3.91198 2.20545 3.35399 2.57114 2.94258C2.93684 2.53118 3.43283 2.30005 3.95 2.30005H26.05C26.5672 2.30005 27.0632 2.53118 27.4289 2.94258C27.7946 3.35399 28 3.91198 28 4.4938V11.075H2V4.4938Z" stroke="#D8F520" stroke-width="3"/>
<path id="Vector_3" d="M4.6002 6.6874C4.6002 5.87969 5.18223 5.2249 5.9002 5.2249C6.61817 5.2249 7.2002 5.87969 7.2002 6.6874C7.2002 7.49512 6.61817 8.1499 5.9002 8.1499C5.18223 8.1499 4.6002 7.49512 4.6002 6.6874Z" fill="#D8F520"/>
<path id="Vector_4" d="M8.5001 6.6874C8.5001 5.87969 9.08213 5.2249 9.8001 5.2249C10.5181 5.2249 11.1001 5.87969 11.1001 6.6874C11.1001 7.49512 10.5181 8.1499 9.8001 8.1499C9.08213 8.1499 8.5001 7.49512 8.5001 6.6874Z" fill="#D8F520"/>
</g>
</svg>
