<svg width="29" height="30" viewBox="0 0 29 30" fill="none" xmlns="http://www.w3.org/2000/svg">
<path id="Vector" d="M18.6666 10V0H0.666626V30H8.66663V24H10.6666V30H28.6666V10H18.6666ZM5.66663 26H3.66663V24H5.66663V26ZM5.66663 21H3.66663V19H5.66663V21ZM5.66663 16H3.66663V14H5.66663V16ZM5.66663 11H3.66663V9H5.66663V11ZM5.66663 6H3.66663V4H5.66663V6ZM13.6666 4H15.6666V6H13.6666V4ZM10.6666 21H8.66663V19H10.6666V21ZM10.6666 16H8.66663V14H10.6666V16ZM10.6666 11H8.66663V9H10.6666V11ZM10.6666 6H8.66663V4H10.6666V6ZM15.6666 26H13.6666V24H15.6666V26ZM15.6666 21H13.6666V19H15.6666V21ZM15.6666 16H13.6666V14H15.6666V16ZM15.6666 11H13.6666V9H15.6666V11ZM26.6666 28H18.6666V26H20.6666V24H18.6666V21H20.6666V19H18.6666V16H20.6666V14H18.6666V12H26.6666V28Z" fill="#D8F520"/>
</svg>
