<svg width="24" height="25" viewBox="0 0 24 25" fill="none" xmlns="http://www.w3.org/2000/svg">
<g id="ion:wallet-outline">
<path id="Vector" d="M19.5 7.44995H4.5C3.25736 7.44995 2.25 8.45731 2.25 9.69995V18.7C2.25 19.9426 3.25736 20.95 4.5 20.95H19.5C20.7426 20.95 21.75 19.9426 21.75 18.7V9.69995C21.75 8.45731 20.7426 7.44995 19.5 7.44995Z" stroke="#D8D8D8" stroke-width="2" stroke-linejoin="round"/>
<path id="Vector_2" d="M19.2825 7.44993V6.04368C19.2824 5.69878 19.2062 5.35815 19.0592 5.0461C18.9123 4.73405 18.6984 4.45827 18.4326 4.23844C18.1668 4.01861 17.8558 3.86014 17.5217 3.77435C17.1877 3.68856 16.8388 3.67755 16.5 3.74212L4.155 5.84915C3.6189 5.95131 3.13526 6.23736 2.78749 6.65795C2.43972 7.07854 2.24963 7.60731 2.25 8.15305V10.4499" stroke="#D8D8D8" stroke-width="2" stroke-linejoin="round"/>
<path id="Vector_3" d="M17.25 15.7C16.9533 15.7 16.6633 15.612 16.4166 15.4472C16.17 15.2823 15.9777 15.0481 15.8642 14.774C15.7506 14.4999 15.7209 14.1983 15.7788 13.9073C15.8367 13.6163 15.9796 13.3491 16.1893 13.1393C16.3991 12.9295 16.6664 12.7867 16.9574 12.7288C17.2483 12.6709 17.5499 12.7006 17.824 12.8141C18.0981 12.9277 18.3324 13.1199 18.4972 13.3666C18.662 13.6133 18.75 13.9033 18.75 14.2C18.75 14.5978 18.592 14.9793 18.3107 15.2606C18.0294 15.5419 17.6478 15.7 17.25 15.7Z" fill="#D8D8D8"/>
</g>
</svg>
