<svg width="24" height="25" viewBox="0 0 24 25" fill="none" xmlns="http://www.w3.org/2000/svg">
<g id="mdi:target-account">
<path id="Vector" d="M20.95 11.7H22.5V13.7H20.95C20.5 17.87 17.17 21.2 13 21.65V23.2H11V21.65C6.83 21.2 3.5 17.87 3.05 13.7H1.5V11.7H3.05C3.5 7.52995 6.83 4.19995 11 3.74995V2.19995H13V3.74995C17.17 4.19995 20.5 7.52995 20.95 11.7ZM5.07 11.7H6.5V13.7H5.07C5.28252 15.1974 5.97568 16.5853 7.04515 17.6548C8.11462 18.7243 9.50254 19.4174 11 19.63V18.2H13V19.63C14.4975 19.4174 15.8854 18.7243 16.9549 17.6548C18.0243 16.5853 18.7175 15.1974 18.93 13.7H17.5V11.7H18.93C18.7175 10.2025 18.0243 8.81457 16.9549 7.7451C15.8854 6.67563 14.4975 5.98247 13 5.76995V7.19995H11V5.76995C9.50254 5.98247 8.11462 6.67563 7.04515 7.7451C5.97568 8.81457 5.28252 10.2025 5.07 11.7ZM16 16.7H8V15.7C8 14.37 10.67 13.7 12 13.7C13.33 13.7 16 14.37 16 15.7V16.7ZM12 8.69995C12.5304 8.69995 13.0391 8.91067 13.4142 9.28574C13.7893 9.66081 14 10.1695 14 10.7C14 11.2304 13.7893 11.7391 13.4142 12.1142C13.0391 12.4892 12.5304 12.7 12 12.7C11.4696 12.7 10.9609 12.4892 10.5858 12.1142C10.2107 11.7391 10 11.2304 10 10.7C10 10.1695 10.2107 9.66081 10.5858 9.28574C10.9609 8.91067 11.4696 8.69995 12 8.69995Z" fill="#D8D8D8"/>
</g>
</svg>
