<svg width="56" height="56" viewBox="0 0 56 56" fill="none" xmlns="http://www.w3.org/2000/svg">
<g id="fluent:people-team-24-regular">
<path id="Vector" d="M34.4261 23.3333C36.6801 23.3333 38.5094 25.1627 38.5094 27.4167V38.4977C38.5094 41.2831 37.4029 43.9544 35.4334 45.9239C33.4638 47.8935 30.7925 49 28.0071 49C25.2217 49 22.5504 47.8935 20.5808 45.9239C18.6112 43.9544 17.5047 41.2831 17.5047 38.4977V27.4167C17.5047 25.1627 19.3317 23.3333 21.5881 23.3333H34.4261ZM34.4261 26.8333H21.5881C21.4334 26.8333 21.285 26.8948 21.1756 27.0042C21.0662 27.1136 21.0047 27.262 21.0047 27.4167V38.4977C21.0047 40.3548 21.7425 42.1359 23.0557 43.4491C24.3689 44.7623 26.15 45.5 28.0071 45.5C29.8642 45.5 31.6453 44.7623 32.9585 43.4491C34.2717 42.1359 35.0094 40.3548 35.0094 38.4977V27.4167C35.0094 27.262 34.948 27.1136 34.8386 27.0042C34.7292 26.8948 34.5808 26.8333 34.4261 26.8333ZM8.75008 23.3333H16.6391C15.8159 24.3275 15.3131 25.5478 15.1971 26.8333H8.75008C8.59537 26.8333 8.447 26.8948 8.3376 27.0042C8.22821 27.1136 8.16675 27.262 8.16675 27.4167V34.9977C8.1666 35.8794 8.36626 36.7497 8.75072 37.5432C9.13518 38.3367 9.69445 39.0327 10.3865 39.5791C11.0786 40.1254 11.8855 40.5078 12.7465 40.6976C13.6076 40.8873 14.5005 40.8795 15.3581 40.6747C15.5564 41.8507 15.9181 42.973 16.4151 44.016C15.0321 44.386 13.5825 44.4329 12.1784 44.1532C10.7744 43.8735 9.45346 43.2746 8.31782 42.4029C7.18219 41.5311 6.26226 40.4099 5.62916 39.1258C4.99607 37.8418 4.66678 36.4293 4.66675 34.9977V27.4167C4.66675 25.1627 6.49608 23.3333 8.75008 23.3333ZM39.3751 23.3333H47.2501C49.5041 23.3333 51.3334 25.1627 51.3334 27.4167V35C51.3337 36.4307 51.0051 37.8424 50.373 39.1258C49.7409 40.4093 48.8221 41.5303 47.6877 42.4022C46.5534 43.2741 45.2337 43.8735 43.8308 44.1541C42.4279 44.4347 40.9792 44.3891 39.5967 44.0207C40.0961 42.9753 40.4577 41.853 40.6584 40.677C41.5149 40.8794 42.4062 40.8854 43.2654 40.6945C44.1245 40.5036 44.9294 40.1208 45.6196 39.5746C46.3098 39.0285 46.8675 38.3333 47.2509 37.5411C47.6343 36.7489 47.8334 35.8801 47.8334 35V27.4167C47.8334 27.262 47.772 27.1136 47.6626 27.0042C47.5532 26.8948 47.4048 26.8333 47.2501 26.8333H40.8171C40.701 25.5478 40.1983 24.3275 39.3751 23.3333ZM28.0001 7C29.8566 7 31.6371 7.7375 32.9498 9.05025C34.2626 10.363 35.0001 12.1435 35.0001 14C35.0001 15.8565 34.2626 17.637 32.9498 18.9497C31.6371 20.2625 29.8566 21 28.0001 21C26.1436 21 24.3631 20.2625 23.0503 18.9497C21.7376 17.637 21.0001 15.8565 21.0001 14C21.0001 12.1435 21.7376 10.363 23.0503 9.05025C24.3631 7.7375 26.1436 7 28.0001 7ZM43.1668 9.33333C44.7138 9.33333 46.1976 9.94791 47.2915 11.0419C48.3855 12.1358 49.0001 13.6196 49.0001 15.1667C49.0001 16.7138 48.3855 18.1975 47.2915 19.2915C46.1976 20.3854 44.7138 21 43.1668 21C41.6197 21 40.1359 20.3854 39.042 19.2915C37.948 18.1975 37.3334 16.7138 37.3334 15.1667C37.3334 13.6196 37.948 12.1358 39.042 11.0419C40.1359 9.94791 41.6197 9.33333 43.1668 9.33333ZM12.8334 9.33333C14.3805 9.33333 15.8642 9.94791 16.9582 11.0419C18.0522 12.1358 18.6667 13.6196 18.6667 15.1667C18.6667 16.7138 18.0522 18.1975 16.9582 19.2915C15.8642 20.3854 14.3805 21 12.8334 21C11.2863 21 9.80259 20.3854 8.70863 19.2915C7.61466 18.1975 7.00008 16.7138 7.00008 15.1667C7.00008 13.6196 7.61466 12.1358 8.70863 11.0419C9.80259 9.94791 11.2863 9.33333 12.8334 9.33333ZM28.0001 10.5C27.0718 10.5 26.1816 10.8687 25.5252 11.5251C24.8688 12.1815 24.5001 13.0717 24.5001 14C24.5001 14.9283 24.8688 15.8185 25.5252 16.4749C26.1816 17.1313 27.0718 17.5 28.0001 17.5C28.9283 17.5 29.8186 17.1313 30.475 16.4749C31.1313 15.8185 31.5001 14.9283 31.5001 14C31.5001 13.0717 31.1313 12.1815 30.475 11.5251C29.8186 10.8687 28.9283 10.5 28.0001 10.5ZM43.1668 12.8333C42.5479 12.8333 41.9544 13.0792 41.5168 13.5168C41.0792 13.9543 40.8334 14.5478 40.8334 15.1667C40.8334 15.7855 41.0792 16.379 41.5168 16.8166C41.9544 17.2542 42.5479 17.5 43.1668 17.5C43.7856 17.5 44.3791 17.2542 44.8167 16.8166C45.2543 16.379 45.5001 15.7855 45.5001 15.1667C45.5001 14.5478 45.2543 13.9543 44.8167 13.5168C44.3791 13.0792 43.7856 12.8333 43.1668 12.8333ZM12.8334 12.8333C12.2146 12.8333 11.6211 13.0792 11.1835 13.5168C10.7459 13.9543 10.5001 14.5478 10.5001 15.1667C10.5001 15.7855 10.7459 16.379 11.1835 16.8166C11.6211 17.2542 12.2146 17.5 12.8334 17.5C13.4523 17.5 14.0457 17.2542 14.4833 16.8166C14.9209 16.379 15.1667 15.7855 15.1667 15.1667C15.1667 14.5478 14.9209 13.9543 14.4833 13.5168C14.0457 13.0792 13.4523 12.8333 12.8334 12.8333Z" fill="#D8F520"/>
</g>
</svg>
