<svg width="88" height="88" viewBox="0 0 88 88" fill="none" xmlns="http://www.w3.org/2000/svg">
<g id="fluent:people-team-24-regular">
<path id="Vector" d="M54.098 36.6667C57.64 36.6667 60.5147 39.5413 60.5147 43.0833V60.4963C60.5147 64.8734 58.7759 69.0712 55.6809 72.1662C52.5859 75.2612 48.3881 77 44.011 77C39.634 77 35.4362 75.2612 32.3412 72.1662C29.2461 69.0712 27.5074 64.8734 27.5074 60.4963V43.0833C27.5074 39.5413 30.3784 36.6667 33.924 36.6667H54.098ZM54.098 42.1667H33.924C33.6809 42.1667 33.4478 42.2632 33.2759 42.4352C33.104 42.6071 33.0074 42.8402 33.0074 43.0833V60.4963C33.0074 63.4147 34.1667 66.2135 36.2303 68.2771C38.2939 70.3407 41.0927 71.5 44.011 71.5C46.9294 71.5 49.7282 70.3407 51.7918 68.2771C53.8554 66.2135 55.0147 63.4147 55.0147 60.4963V43.0833C55.0147 42.8402 54.9181 42.6071 54.7462 42.4352C54.5743 42.2632 54.3412 42.1667 54.098 42.1667ZM13.75 36.6667H26.147C24.8534 38.229 24.0634 40.1465 23.881 42.1667H13.75C13.5069 42.1667 13.2738 42.2632 13.1019 42.4352C12.93 42.6071 12.8334 42.8402 12.8334 43.0833V54.9963C12.8331 56.3819 13.1469 57.7495 13.751 58.9964C14.3552 60.2434 15.2341 61.3372 16.3216 62.1957C17.4091 63.0542 18.6771 63.6551 20.0302 63.9533C21.3833 64.2515 22.7864 64.2392 24.134 63.9173C24.4457 65.7653 25.014 67.529 25.795 69.168C23.6217 69.7494 21.3438 69.8232 19.1375 69.3837C16.9311 68.9441 14.8554 68.003 13.0708 66.6331C11.2862 65.2632 9.8406 63.5013 8.84574 61.4835C7.85088 59.4656 7.33342 57.2461 7.33337 54.9963V43.0833C7.33337 39.5413 10.208 36.6667 13.75 36.6667ZM61.875 36.6667H74.25C77.792 36.6667 80.6667 39.5413 80.6667 43.0833V55C80.6672 57.2483 80.1508 59.4666 79.1575 61.4835C78.1641 63.5004 76.7204 65.2619 74.9378 66.632C73.1552 68.0021 71.0815 68.944 68.8769 69.385C66.6723 69.826 64.3958 69.7543 62.2234 69.1753C63.008 67.5327 63.5764 65.769 63.8917 63.921C65.2377 64.2391 66.6382 64.2485 67.9883 63.9485C69.3385 63.6485 70.6032 63.0469 71.6878 62.1887C72.7725 61.3306 73.6488 60.2381 74.2513 58.9931C74.8538 57.7482 75.1667 56.3831 75.1667 55V43.0833C75.1667 42.8402 75.0701 42.6071 74.8982 42.4352C74.7263 42.2632 74.4932 42.1667 74.25 42.1667H64.141C63.9587 40.1465 63.1686 38.229 61.875 36.6667ZM44 11C46.9174 11 49.7153 12.1589 51.7782 14.2218C53.8411 16.2847 55 19.0826 55 22C55 24.9174 53.8411 27.7153 51.7782 29.7782C49.7153 31.8411 46.9174 33 44 33C41.0827 33 38.2848 31.8411 36.2219 29.7782C34.159 27.7153 33 24.9174 33 22C33 19.0826 34.159 16.2847 36.2219 14.2218C38.2848 12.1589 41.0827 11 44 11ZM67.8334 14.6667C70.2645 14.6667 72.5961 15.6324 74.3152 17.3515C76.0343 19.0706 77 21.4022 77 23.8333C77 26.2645 76.0343 28.5961 74.3152 30.3151C72.5961 32.0342 70.2645 33 67.8334 33C65.4022 33 63.0706 32.0342 61.3516 30.3151C59.6325 28.5961 58.6667 26.2645 58.6667 23.8333C58.6667 21.4022 59.6325 19.0706 61.3516 17.3515C63.0706 15.6324 65.4022 14.6667 67.8334 14.6667ZM20.1667 14.6667C22.5979 14.6667 24.9294 15.6324 26.6485 17.3515C28.3676 19.0706 29.3334 21.4022 29.3334 23.8333C29.3334 26.2645 28.3676 28.5961 26.6485 30.3151C24.9294 32.0342 22.5979 33 20.1667 33C17.7356 33 15.404 32.0342 13.6849 30.3151C11.9658 28.5961 11 26.2645 11 23.8333C11 21.4022 11.9658 19.0706 13.6849 17.3515C15.404 15.6324 17.7356 14.6667 20.1667 14.6667ZM44 16.5C42.5414 16.5 41.1424 17.0795 40.111 18.1109C39.0795 19.1424 38.5 20.5413 38.5 22C38.5 23.4587 39.0795 24.8576 40.111 25.8891C41.1424 26.9205 42.5414 27.5 44 27.5C45.4587 27.5 46.8577 26.9205 47.8891 25.8891C48.9206 24.8576 49.5 23.4587 49.5 22C49.5 20.5413 48.9206 19.1424 47.8891 18.1109C46.8577 17.0795 45.4587 16.5 44 16.5ZM67.8334 20.1667C66.8609 20.1667 65.9283 20.553 65.2406 21.2406C64.553 21.9282 64.1667 22.8609 64.1667 23.8333C64.1667 24.8058 64.553 25.7384 65.2406 26.4261C65.9283 27.1137 66.8609 27.5 67.8334 27.5C68.8058 27.5 69.7385 27.1137 70.4261 26.4261C71.1137 25.7384 71.5 24.8058 71.5 23.8333C71.5 22.8609 71.1137 21.9282 70.4261 21.2406C69.7385 20.553 68.8058 20.1667 67.8334 20.1667ZM20.1667 20.1667C19.1942 20.1667 18.2616 20.553 17.574 21.2406C16.8863 21.9282 16.5 22.8609 16.5 23.8333C16.5 24.8058 16.8863 25.7384 17.574 26.4261C18.2616 27.1137 19.1942 27.5 20.1667 27.5C21.1392 27.5 22.0718 27.1137 22.7594 26.4261C23.4471 25.7384 23.8334 24.8058 23.8334 23.8333C23.8334 22.8609 23.4471 21.9282 22.7594 21.2406C22.0718 20.553 21.1392 20.1667 20.1667 20.1667Z" fill="#D8F520"/>
</g>
</svg>
