<svg width="88" height="88" viewBox="0 0 88 88" fill="none" xmlns="http://www.w3.org/2000/svg">
<g id="fluent:person-heart-20-regular">
<path id="Vector" d="M39.6 8.80005C34.9322 8.80005 30.4556 10.6543 27.155 13.955C23.8543 17.2556 22 21.7322 22 26.4C22 31.0679 23.8543 35.5445 27.155 38.8451C30.4556 42.1458 34.9322 44 39.6 44C44.2679 44 48.7445 42.1458 52.0451 38.8451C55.3458 35.5445 57.2001 31.0679 57.2001 26.4C57.2001 21.7322 55.3458 17.2556 52.0451 13.955C48.7445 10.6543 44.2679 8.80005 39.6 8.80005ZM26.4 26.4C26.4 22.8992 27.7908 19.5417 30.2662 17.0662C32.7417 14.5908 36.0992 13.2 39.6 13.2C43.1009 13.2 46.4584 14.5908 48.9339 17.0662C51.4093 19.5417 52.8 22.8992 52.8 26.4C52.8 29.9009 51.4093 33.2584 48.9339 35.7339C46.4584 38.2093 43.1009 39.6 39.6 39.6C36.0992 39.6 32.7417 38.2093 30.2662 35.7339C27.7908 33.2584 26.4 29.9009 26.4 26.4ZM17.6396 48.4001C16.4808 48.3954 15.3325 48.6196 14.2606 49.0597C13.1886 49.4998 12.214 50.1472 11.3928 50.9648C10.5716 51.7823 9.91978 52.754 9.47486 53.824C9.02994 54.8939 8.80062 56.0412 8.80005 57.2001C8.80005 64.6404 12.4652 70.2505 18.194 73.9069C23.8349 77.5017 31.438 79.2001 39.6 79.2001C43.802 79.2001 47.8545 78.7513 51.5681 77.8229L48.136 74.0653C45.4784 74.5492 42.614 74.8 39.6 74.8C31.966 74.8 25.2692 73.1984 20.5612 70.1932C15.9412 67.2453 13.2 62.9641 13.2 57.2001C13.2 54.7668 15.1712 52.8 17.6396 52.8H40.9156C41.6536 51.1632 42.6806 49.6727 43.9473 48.4001H17.6396ZM63.7956 52.8133L61.0325 50.6441C58.9525 49.0093 56.3335 48.2171 53.6962 48.4249C51.0589 48.6327 48.5963 49.8252 46.7979 51.7655C44.9996 53.7057 43.9972 56.2516 43.9899 58.8971C43.9827 61.5426 44.9712 64.094 46.7589 66.0441L62.1721 82.896C62.3782 83.1215 62.629 83.3015 62.9085 83.4247C63.1881 83.5479 63.4902 83.6115 63.7956 83.6115C64.1011 83.6115 64.4032 83.5479 64.6828 83.4247C64.9623 83.3015 65.2131 83.1215 65.4193 82.896L80.8369 66.0441C82.6245 64.094 83.613 61.5426 83.6058 58.8971C83.5985 56.2516 82.5961 53.7057 80.7978 51.7655C78.9994 49.8252 76.5368 48.6327 73.8995 48.4249C71.2622 48.2171 68.6432 49.0093 66.5633 50.6441L63.7956 52.8133Z" fill="#D8F520"/>
</g>
</svg>
