<svg width="56" height="56" viewBox="0 0 56 56" fill="none" xmlns="http://www.w3.org/2000/svg">
<g id="fluent:person-heart-20-regular">
<path id="Vector" d="M25.2001 5.6001C22.2297 5.6001 19.3809 6.78009 17.2805 8.8805C15.1801 10.9809 14.0001 13.8297 14.0001 16.8001C14.0001 19.7705 15.1801 22.6193 17.2805 24.7197C19.3809 26.8201 22.2297 28.0001 25.2001 28.0001C28.1705 28.0001 31.0193 26.8201 33.1197 24.7197C35.2201 22.6193 36.4001 19.7705 36.4001 16.8001C36.4001 13.8297 35.2201 10.9809 33.1197 8.8805C31.0193 6.78009 28.1705 5.6001 25.2001 5.6001ZM16.8001 16.8001C16.8001 14.5723 17.6851 12.4357 19.2604 10.8604C20.8357 9.2851 22.9723 8.4001 25.2001 8.4001C27.4279 8.4001 29.5645 9.2851 31.1398 10.8604C32.7151 12.4357 33.6001 14.5723 33.6001 16.8001C33.6001 19.0279 32.7151 21.1645 31.1398 22.7398C29.5645 24.3151 27.4279 25.2001 25.2001 25.2001C22.9723 25.2001 20.8357 24.3151 19.2604 22.7398C17.6851 21.1645 16.8001 19.0279 16.8001 16.8001ZM11.2253 30.8001C10.4879 30.7972 9.75713 30.9398 9.07497 31.2199C8.3928 31.4999 7.77263 31.9119 7.25002 32.4322C6.72742 32.9525 6.31265 33.5708 6.02952 34.2517C5.74639 34.9326 5.60046 35.6627 5.6001 36.4001C5.6001 41.1349 7.9325 44.7049 11.5781 47.0317C15.1677 49.3193 20.0061 50.4001 25.2001 50.4001C27.8741 50.4001 30.4529 50.1145 32.8161 49.5237L30.6321 47.1325C28.9409 47.4405 27.1181 47.6001 25.2001 47.6001C20.3421 47.6001 16.0805 46.5809 13.0845 44.6685C10.1445 42.7925 8.4001 40.0681 8.4001 36.4001C8.4001 34.8517 9.6545 33.6001 11.2253 33.6001H26.0373C26.5069 32.5584 27.1604 31.6099 27.9665 30.8001H11.2253ZM40.5973 33.6085L38.8389 32.2281C37.5153 31.1878 35.8487 30.6837 34.1704 30.8159C32.4921 30.9481 30.925 31.707 29.7806 32.9417C28.6362 34.1765 27.9983 35.7966 27.9937 37.4801C27.989 39.1636 28.6181 40.7871 29.7557 42.0281L39.5641 52.7521C39.6953 52.8956 39.8549 53.0101 40.0328 53.0885C40.2106 53.1669 40.4029 53.2074 40.5973 53.2074C40.7917 53.2074 40.9839 53.1669 41.1618 53.0885C41.3397 53.0101 41.4993 52.8956 41.6305 52.7521L51.4417 42.0281C52.5793 40.7871 53.2083 39.1636 53.2037 37.4801C53.1991 35.7966 52.5612 34.1765 51.4168 32.9417C50.2724 31.707 48.7053 30.9481 47.027 30.8159C45.3487 30.6837 43.6821 31.1878 42.3585 32.2281L40.5973 33.6085Z" fill="#D8F520"/>
</g>
</svg>
