<svg width="56" height="56" viewBox="0 0 56 56" fill="none" xmlns="http://www.w3.org/2000/svg">
<g id="radix-icons:eye-open" clip-path="url(#clip0_170_1190)">
<path id="Vector" fill-rule="evenodd" clip-rule="evenodd" d="M28 41.0666C17.9312 41.0666 9.44534 35.9221 4.09174 28C9.44534 20.0778 17.9312 14.9333 28 14.9333C38.0688 14.9333 46.5547 20.0778 51.9083 28C46.5547 35.9221 38.0688 41.0666 28 41.0666ZM28 11.2C16.0832 11.2 6.1824 17.569 0.283738 27.0106C0.0983167 27.3073 0 27.6501 0 28C0 28.3498 0.0983167 28.6926 0.283738 28.9893C6.1824 38.4309 16.0832 44.7999 28 44.7999C39.9168 44.7999 49.8176 38.4309 55.7163 28.9893C55.9017 28.6926 56 28.3498 56 28C56 27.6501 55.9017 27.3073 55.7163 27.0106C49.8176 17.569 39.9168 11.2 28 11.2ZM28 35.4666C29.9803 35.4666 31.8795 34.68 33.2797 33.2797C34.68 31.8794 35.4667 29.9802 35.4667 28C35.4667 26.0197 34.68 24.1205 33.2797 22.7202C31.8795 21.3199 29.9803 20.5333 28 20.5333C26.0197 20.5333 24.1205 21.3199 22.7203 22.7202C21.32 24.1205 20.5333 26.0197 20.5333 28C20.5333 29.9802 21.32 31.8794 22.7203 33.2797C24.1205 34.68 26.0197 35.4666 28 35.4666Z" fill="#D8F520"/>
</g>
<defs>
<clipPath id="clip0_170_1190">
<rect width="56" height="56" fill="white"/>
</clipPath>
</defs>
</svg>
