<svg width="88" height="88" viewBox="0 0 88 88" fill="none" xmlns="http://www.w3.org/2000/svg">
<g id="radix-icons:eye-open" clip-path="url(#clip0_146_30859)">
<path id="Vector" fill-rule="evenodd" clip-rule="evenodd" d="M44 64.5334C28.1776 64.5334 14.8427 56.4492 6.42987 44.0001C14.8427 31.551 28.1776 23.4668 44 23.4668C59.8224 23.4668 73.1573 31.551 81.5701 44.0001C73.1573 56.4492 59.8224 64.5334 44 64.5334ZM44 17.6001C25.2736 17.6001 9.71521 27.6086 0.445874 42.4454C0.154498 42.9116 0 43.4503 0 44.0001C0 44.5499 0.154498 45.0886 0.445874 45.5548C9.71521 60.3916 25.2736 70.4001 44 70.4001C62.7264 70.4001 78.2848 60.3916 87.5541 45.5548C87.8455 45.0886 88 44.5499 88 44.0001C88 43.4503 87.8455 42.9116 87.5541 42.4454C78.2848 27.6086 62.7264 17.6001 44 17.6001ZM44 55.7334C47.1119 55.7334 50.0963 54.4972 52.2967 52.2968C54.4971 50.0964 55.7333 47.112 55.7333 44.0001C55.7333 40.8882 54.4971 37.9038 52.2967 35.7034C50.0963 33.503 47.1119 32.2668 44 32.2668C40.8881 32.2668 37.9037 33.503 35.7033 35.7034C33.5029 37.9038 32.2667 40.8882 32.2667 44.0001C32.2667 47.112 33.5029 50.0964 35.7033 52.2968C37.9037 54.4972 40.8881 55.7334 44 55.7334Z" fill="#D8F520"/>
</g>
<defs>
<clipPath id="clip0_146_30859">
<rect width="88" height="88" fill="white"/>
</clipPath>
</defs>
</svg>
