<svg width="56" height="56" viewBox="0 0 56 56" fill="none" xmlns="http://www.w3.org/2000/svg">
<g id="uil:rocket">
<path id="Vector" d="M52.7356 4.81141C52.6305 4.41159 52.4211 4.04685 52.1288 3.75454C51.8365 3.46222 51.4718 3.25281 51.072 3.14774C46.2857 1.90488 41.2458 2.03895 36.5325 3.53453C31.8191 5.0301 27.624 7.82638 24.43 11.6014L21.826 14.6907L15.75 13.2254C14.2724 12.7099 12.6581 12.7465 11.2055 13.3285C9.75278 13.9105 8.55981 14.9986 7.84695 16.3917L2.71362 25.4917C2.53389 25.8104 2.43159 26.1668 2.415 26.5323C2.39841 26.8977 2.46797 27.2619 2.61809 27.5956C2.7682 27.9292 2.99466 28.2228 3.27917 28.4528C3.56368 28.6827 3.89828 28.8426 4.25595 28.9194L11.4263 30.4571C10.8191 32.3058 10.3855 34.2072 10.1313 36.1364C10.0851 36.4906 10.1208 36.8506 10.2357 37.1888C10.3506 37.527 10.5416 37.8343 10.794 38.0871L18.0273 45.3204C18.2442 45.5374 18.5017 45.7094 18.7852 45.8267C19.0687 45.9441 19.3725 46.0043 19.6793 46.0041C19.7463 46.0044 19.8133 46.0013 19.88 45.9947C21.8527 45.8175 23.8016 45.4343 25.6946 44.8514L27.1973 51.8607C27.2741 52.2184 27.434 52.553 27.6639 52.8375C27.8939 53.122 28.1875 53.3485 28.5211 53.4986C28.8547 53.6487 29.219 53.7183 29.5844 53.7017C29.9499 53.6851 30.3063 53.5828 30.625 53.4031L39.7366 48.2651C41.0193 47.4858 42.0213 46.3192 42.5979 44.9336C43.1746 43.548 43.2961 42.0149 42.945 40.5557L41.3863 34.1157L44.2726 31.4627C48.0614 28.2771 50.8678 24.0813 52.3656 19.3633C53.8634 14.6453 53.9932 9.59903 52.7356 4.81141ZM8.33462 25.0204L11.9653 18.5804C12.1912 18.1435 12.5756 17.8096 13.0398 17.6469C13.5039 17.4842 14.0127 17.5052 14.462 17.7054L18.4706 18.6761L16.954 20.4774C15.5155 22.2006 14.2713 24.077 13.244 26.0727L8.33462 25.0204ZM37.4313 44.2051L31.0963 47.7797L30.093 43.1014C32.1249 42.0883 34.018 40.8179 35.7256 39.3214L37.4593 37.7277L38.402 41.6104C38.5239 42.0903 38.4963 42.596 38.3228 43.0597C38.1493 43.5234 37.8382 43.9231 37.4313 44.2051ZM41.1996 27.9534L32.6013 35.8541C29.1985 38.7968 25.0013 40.6672 20.538 41.2301L14.9263 35.6207C15.6798 31.1453 17.6138 26.952 20.5286 23.4734L24.4463 18.8231C24.5114 18.7554 24.5722 18.6837 24.6283 18.6084L27.9766 14.6301C30.4524 11.7061 33.6598 9.4916 37.2713 8.2126C40.8829 6.93361 44.7691 6.63597 48.5333 7.35008C49.2644 11.126 48.9697 15.0288 47.6798 18.6521C46.39 22.2754 44.1522 25.4889 41.1996 27.9534ZM39.046 13.5707C38.3537 13.5707 37.677 13.776 37.1015 14.1606C36.5259 14.5452 36.0773 15.0918 35.8124 15.7313C35.5475 16.3709 35.4782 17.0746 35.6132 17.7536C35.7483 18.4325 36.0816 19.0561 36.5711 19.5456C37.0606 20.0351 37.6842 20.3684 38.3631 20.5035C39.0421 20.6385 39.7458 20.5692 40.3853 20.3043C41.0249 20.0394 41.5715 19.5908 41.9561 19.0152C42.3407 18.4397 42.5459 17.763 42.5459 17.0707C42.5459 16.1425 42.1772 15.2522 41.5208 14.5959C40.8644 13.9395 39.9742 13.5707 39.046 13.5707Z" fill="#D8F520"/>
</g>
</svg>
