<svg width="88" height="88" viewBox="0 0 88 88" fill="none" xmlns="http://www.w3.org/2000/svg">
<g id="uil:rocket">
<path id="Vector" d="M82.8703 7.56058C82.7052 6.93228 82.3761 6.35913 81.9167 5.89978C81.4574 5.44042 80.8842 5.11135 80.256 4.94624C72.7348 2.99317 64.8149 3.20385 57.4082 5.55405C50.0015 7.90424 43.4091 12.2984 38.39 18.2306L34.298 23.0852L24.75 20.7826C22.428 19.9724 19.8914 20.03 17.6086 20.9446C15.3258 21.8592 13.4512 23.569 12.331 25.7582L4.26429 40.0582C3.98185 40.559 3.82111 41.1191 3.79503 41.6933C3.76896 42.2676 3.87828 42.84 4.11417 43.3642C4.35007 43.8885 4.70592 44.3499 5.15301 44.7113C5.6001 45.0727 6.1259 45.3239 6.68796 45.4446L17.9556 47.8609C17.0015 50.7661 16.3202 53.7539 15.9206 56.7856C15.848 57.3421 15.9041 57.9079 16.0847 58.4394C16.2652 58.9708 16.5653 59.4538 16.962 59.8509L28.3286 71.2176C28.6695 71.5585 29.0742 71.8289 29.5196 72.0133C29.9651 72.1976 30.4425 72.2923 30.9246 72.2919C31.0299 72.2924 31.1352 72.2875 31.24 72.2772C34.3401 71.9987 37.4025 71.3965 40.3773 70.4806L42.7386 81.4952C42.8593 82.0573 43.1105 82.5831 43.4719 83.0302C43.8333 83.4773 44.2947 83.8331 44.819 84.069C45.3432 84.3049 45.9156 84.4142 46.4899 84.3882C47.0641 84.3621 47.6242 84.2013 48.125 83.9189L62.4433 75.8449C64.459 74.6204 66.0335 72.7872 66.9397 70.6097C67.8458 68.4323 68.0368 66.0233 67.485 63.7302L65.0356 53.6102L69.5713 49.4412C75.5251 44.4353 79.9352 37.8418 82.2888 30.4278C84.6425 23.0138 84.8465 15.084 82.8703 7.56058ZM13.0973 39.3176L18.8026 29.1976C19.1577 28.5111 19.7617 27.9863 20.4911 27.7306C21.2205 27.475 22.02 27.5079 22.726 27.8226L29.0253 29.3479L26.642 32.1786C24.3816 34.8864 22.4264 37.8351 20.812 40.9712L13.0973 39.3176ZM58.8206 69.4649L48.8656 75.0822L47.289 67.7306C50.482 66.1385 53.4569 64.1421 56.1403 61.7906L58.8646 59.2862L60.346 65.3876C60.5376 66.1417 60.4942 66.9363 60.2215 67.665C59.9489 68.3937 59.4601 69.0218 58.8206 69.4649ZM64.7423 43.9266L51.2306 56.3419C45.8834 60.9662 39.2878 63.9055 32.274 64.7899L23.4556 55.9752C24.6398 48.9425 27.6789 42.353 32.2593 36.8866L38.4156 29.5789C38.5179 29.4725 38.6134 29.3599 38.7016 29.2416L43.9633 22.9899C47.8538 18.3951 52.894 14.9152 58.5693 12.9053C64.2445 10.8955 70.3515 10.4277 76.2666 11.5499C77.4155 17.4834 76.9524 23.6165 74.9255 29.3102C72.8986 35.004 69.3821 40.0537 64.7423 43.9266ZM61.358 21.3252C60.2702 21.3252 59.2068 21.6478 58.3023 22.2522C57.3979 22.8565 56.6929 23.7155 56.2766 24.7205C55.8603 25.7255 55.7514 26.8313 55.9636 27.8982C56.1759 28.9651 56.6997 29.9451 57.4689 30.7143C58.2381 31.4835 59.2181 32.0073 60.285 32.2196C61.3519 32.4318 62.4577 32.3229 63.4627 31.9066C64.4677 31.4903 65.3267 30.7853 65.931 29.8809C66.5354 28.9764 66.858 27.913 66.858 26.8252C66.858 25.3666 66.2785 23.9676 65.247 22.9362C64.2156 21.9047 62.8166 21.3252 61.358 21.3252Z" fill="#D8F520"/>
</g>
</svg>
