<svg width="507" height="670" viewBox="0 0 507 670" fill="none" xmlns="http://www.w3.org/2000/svg">
<path d="M183.099 10.3713L252.031 326.093L208.896 3.74832L252.735 325.963L235.183 0.75409L253.448 325.932L261.671 1.4215L254.163 325.999L288.071 5.74321L254.872 326.165L314.093 13.6719L255.566 326.427L339.452 25.1206L256.239 326.782L363.87 39.964L256.883 327.227L387.08 58.0394L257.491 327.757L408.827 79.1488L258.056 328.365L428.874 103.061L258.572 329.046L447 129.514L259.033 329.792L463.007 158.217L259.435 330.594L476.719 188.858L259.773 331.444L487.987 221.098L260.043 332.333L496.687 254.587L260.242 333.25L502.723 288.956L260.368 334.186L506.03 323.828L260.42 335.131L506.571 358.823L260.397 336.073L504.34 393.557L260.3 337.004L499.362 427.648L260.129 337.912L491.691 460.724L259.886 338.787L481.411 492.422L259.575 339.621L468.636 522.395L259.197 340.404L453.504 550.314L258.759 341.127L436.182 575.873L258.263 341.782L416.859 598.793L257.717 342.363L395.748 618.823L257.125 342.862L373.079 635.742L256.494 343.275L349.1 649.366L255.832 343.597L324.076 659.546L255.145 343.824L298.279 666.169L254.441 343.954L271.992 669.163L253.727 343.985L245.504 668.496L253.012 343.918L219.104 664.174L252.304 343.752L193.082 656.245L251.609 343.49L167.723 644.796L250.936 343.135L143.305 629.953L250.292 342.69L120.095 611.878L249.684 342.16L98.348 590.768L249.119 341.552L78.3014 566.856L248.603 340.871L60.1754 540.403L248.142 340.125L44.1684 511.7L247.74 339.323L30.4558 481.06L247.402 338.473L19.1879 448.819L247.133 337.584L10.4882 415.33L246.933 336.667L4.45189 380.961L246.807 335.731L1.14518 346.089L246.755 334.786L0.604281 311.094L246.778 333.844L2.83511 276.36L246.875 332.913L7.81324 242.269L247.046 332.005L15.4841 209.193L247.289 331.13L25.7637 177.495L247.601 330.296L38.5394 147.522L247.978 329.513L53.6712 119.603L248.417 328.79L70.9933 94.0437L248.912 328.135L90.316 71.1236L249.459 327.554L111.427 51.094L250.05 327.055L134.097 34.1746L250.681 326.642L158.075 20.5506L251.344 326.32L183.099 10.3713Z" fill="#D8F520" fill-opacity="0.29"/>
</svg>
