<svg width="785" height="636" viewBox="0 0 785 636" fill="none" xmlns="http://www.w3.org/2000/svg">
<path d="M345.034 319.162C344.862 435.584 442.793 530.141 563.81 530.32C684.828 530.499 783.038 436.233 783.211 319.811C783.383 203.389 685.452 108.833 564.435 108.654C443.417 108.475 345.207 202.74 345.034 319.162Z" stroke="url(#paint0_linear_146_30619)" stroke-opacity="0.22"/>
<path d="M345.06 301.826C344.888 418.248 442.819 512.805 563.836 512.984C684.853 513.163 783.064 418.897 783.237 302.475C783.409 186.053 685.478 91.4969 564.46 91.3177C443.443 91.1386 345.232 185.404 345.06 301.826Z" stroke="url(#paint1_linear_146_30619)" stroke-opacity="0.22"/>
<path d="M336.009 282.001C335.836 398.423 433.767 492.979 554.785 493.158C675.802 493.337 774.013 399.071 774.185 282.649C774.358 166.227 676.426 71.671 555.409 71.4918C434.392 71.3126 336.181 165.579 336.009 282.001Z" stroke="url(#paint2_linear_146_30619)" stroke-opacity="0.22"/>
<path d="M327.784 261.35C327.611 377.772 425.543 472.329 546.56 472.508C667.577 472.687 765.788 378.421 765.96 261.999C766.133 145.577 668.202 51.0208 547.184 50.8417C426.167 50.6625 327.956 144.928 327.784 261.35Z" stroke="url(#paint3_linear_146_30619)" stroke-opacity="0.22"/>
<path d="M327.808 244.84C327.636 361.262 425.567 455.818 546.585 455.997C667.602 456.177 765.813 361.911 765.985 245.489C766.157 129.067 668.226 34.5103 547.209 34.3312C426.191 34.152 327.981 128.418 327.808 244.84Z" stroke="url(#paint4_linear_146_30619)" stroke-opacity="0.22"/>
<path d="M304.718 228.295C304.546 344.717 402.477 439.274 523.494 439.453C644.512 439.632 742.722 345.366 742.895 228.944C743.067 112.522 645.136 17.9656 524.119 17.7865C403.101 17.6073 304.891 111.873 304.718 228.295Z" stroke="url(#paint5_linear_146_30619)" stroke-opacity="0.22"/>
<path d="M285.756 211.757C285.583 328.179 383.515 422.735 504.532 422.914C625.549 423.094 723.76 328.828 723.932 212.406C724.105 95.9836 626.174 1.42731 505.156 1.24815C384.139 1.06899 285.928 95.3349 285.756 211.757Z" stroke="url(#paint6_linear_146_30619)" stroke-opacity="0.22"/>
<path d="M260.165 211.719C259.992 328.141 357.923 422.697 478.941 422.876C599.958 423.055 698.169 328.79 698.341 212.368C698.514 95.9455 600.582 1.38923 479.565 1.21007C358.548 1.03091 260.337 95.2968 260.165 211.719Z" stroke="url(#paint7_linear_146_30619)" stroke-opacity="0.22"/>
<path d="M239.527 211.688C239.354 328.11 337.285 422.667 458.303 422.846C579.32 423.025 677.531 328.759 677.703 212.337C677.876 95.915 579.944 1.35871 458.927 1.17955C337.91 1.00039 239.699 95.2663 239.527 211.688Z" stroke="url(#paint8_linear_146_30619)" stroke-opacity="0.22"/>
<path d="M208.982 211.643C208.81 328.065 306.741 422.621 427.758 422.801C548.776 422.98 646.987 328.714 647.159 212.292C647.331 95.8698 549.4 1.31354 428.383 1.13438C307.365 0.955225 209.155 95.2211 208.982 211.643Z" stroke="url(#paint9_linear_146_30619)" stroke-opacity="0.22"/>
<path d="M183.391 211.605C183.219 328.027 281.15 422.584 402.167 422.763C523.185 422.942 621.396 328.676 621.568 212.254C621.74 95.832 523.809 1.2757 402.792 1.09654C281.774 0.917383 183.564 95.1833 183.391 211.605Z" stroke="url(#paint10_linear_146_30619)" stroke-opacity="0.22"/>
<path d="M163.554 228.086C163.382 344.508 261.313 439.065 382.331 439.244C503.348 439.423 601.559 345.157 601.731 228.735C601.903 112.313 503.972 17.7567 382.955 17.5775C261.937 17.3983 163.727 111.664 163.554 228.086Z" stroke="url(#paint11_linear_146_30619)" stroke-opacity="0.22"/>
<path d="M145.368 244.57C145.196 360.992 243.127 455.548 364.145 455.727C485.162 455.907 583.373 361.641 583.545 245.219C583.717 128.797 485.786 34.2403 364.769 34.0611C243.751 33.882 145.541 128.148 145.368 244.57Z" stroke="url(#paint12_linear_146_30619)" stroke-opacity="0.22"/>
<path d="M119.753 261.042C119.58 377.464 217.512 472.021 338.529 472.2C459.546 472.379 557.757 378.113 557.929 261.691C558.102 145.269 460.171 50.7127 339.153 50.5336C218.136 50.3544 119.925 144.62 119.753 261.042Z" stroke="url(#paint13_linear_146_30619)" stroke-opacity="0.22"/>
<path d="M99.922 273.396C99.7497 389.818 197.681 484.374 318.698 484.553C439.716 484.732 537.926 390.467 538.099 274.045C538.271 157.623 440.34 63.0662 319.322 62.8871C198.305 62.7079 100.094 156.974 99.922 273.396Z" stroke="url(#paint14_linear_146_30619)" stroke-opacity="0.22"/>
<path d="M72.6383 301.423C72.466 417.845 170.397 512.401 291.415 512.581C412.432 512.76 510.643 418.494 510.815 302.072C510.987 185.65 413.056 91.0936 292.039 90.9144C171.021 90.7353 72.8107 185.001 72.6383 301.423Z" stroke="url(#paint15_linear_146_30619)" stroke-opacity="0.22"/>
<path d="M56.9277 318.736C56.7554 435.158 154.687 529.714 275.704 529.893C396.721 530.073 494.932 435.807 495.104 319.385C495.277 202.963 397.346 108.406 276.328 108.227C155.311 108.048 57.1001 202.314 56.9277 318.736Z" stroke="url(#paint16_linear_146_30619)" stroke-opacity="0.22"/>
<path d="M44.5059 345.134C44.3335 461.556 142.265 556.112 263.282 556.292C384.299 556.471 482.51 462.205 482.682 345.783C482.855 229.361 384.924 134.805 263.906 134.625C142.889 134.446 44.6782 228.712 44.5059 345.134Z" stroke="url(#paint17_linear_146_30619)" stroke-opacity="0.22"/>
<path d="M32.9094 371.534C32.7371 487.956 130.668 582.512 251.686 582.691C372.703 582.87 470.914 488.604 471.086 372.182C471.258 255.76 373.327 161.204 252.31 161.025C131.293 160.846 33.0818 255.112 32.9094 371.534Z" stroke="url(#paint18_linear_146_30619)" stroke-opacity="0.22"/>
<path d="M19.6571 401.233C19.4848 517.655 117.416 612.211 238.433 612.39C359.451 612.57 457.661 518.304 457.834 401.882C458.006 285.46 360.075 190.903 239.058 190.724C118.04 190.545 19.8295 284.811 19.6571 401.233Z" stroke="url(#paint19_linear_146_30619)" stroke-opacity="0.22"/>
<path d="M-0.187121 422.667C-0.359477 539.089 97.5717 633.645 218.589 633.825C339.606 634.004 437.817 539.738 437.99 423.316C438.162 306.894 340.231 212.337 219.213 212.158C98.1959 211.979 -0.014765 306.245 -0.187121 422.667Z" stroke="url(#paint20_linear_146_30619)" stroke-opacity="0.22"/>
<defs>
<linearGradient id="paint0_linear_146_30619" x1="564.435" y1="108.154" x2="563.81" y2="530.82" gradientUnits="userSpaceOnUse">
<stop stop-color="#D8F520"/>
<stop offset="0.9999" stop-color="#D8F520" stop-opacity="0.0364583"/>
<stop offset="1" stop-color="#D8F520" stop-opacity="0"/>
</linearGradient>
<linearGradient id="paint1_linear_146_30619" x1="564.461" y1="90.8177" x2="563.835" y2="513.484" gradientUnits="userSpaceOnUse">
<stop stop-color="#D8F520"/>
<stop offset="0.9999" stop-color="#D8F520" stop-opacity="0.0364583"/>
<stop offset="1" stop-color="#D8F520" stop-opacity="0"/>
</linearGradient>
<linearGradient id="paint2_linear_146_30619" x1="555.41" y1="70.9918" x2="554.784" y2="493.658" gradientUnits="userSpaceOnUse">
<stop stop-color="#D8F520"/>
<stop offset="0.9999" stop-color="#D8F520" stop-opacity="0.0364583"/>
<stop offset="1" stop-color="#D8F520" stop-opacity="0"/>
</linearGradient>
<linearGradient id="paint3_linear_146_30619" x1="547.185" y1="50.3417" x2="546.559" y2="473.008" gradientUnits="userSpaceOnUse">
<stop stop-color="#D8F520"/>
<stop offset="0.9999" stop-color="#D8F520" stop-opacity="0.0364583"/>
<stop offset="1" stop-color="#D8F520" stop-opacity="0"/>
</linearGradient>
<linearGradient id="paint4_linear_146_30619" x1="547.21" y1="33.8312" x2="546.584" y2="456.497" gradientUnits="userSpaceOnUse">
<stop stop-color="#D8F520"/>
<stop offset="0.9999" stop-color="#D8F520" stop-opacity="0.0364583"/>
<stop offset="1" stop-color="#D8F520" stop-opacity="0"/>
</linearGradient>
<linearGradient id="paint5_linear_146_30619" x1="524.119" y1="17.2865" x2="523.494" y2="439.953" gradientUnits="userSpaceOnUse">
<stop stop-color="#D8F520"/>
<stop offset="0.9999" stop-color="#D8F520" stop-opacity="0.0364583"/>
<stop offset="1" stop-color="#D8F520" stop-opacity="0"/>
</linearGradient>
<linearGradient id="paint6_linear_146_30619" x1="505.157" y1="0.748154" x2="504.531" y2="423.414" gradientUnits="userSpaceOnUse">
<stop stop-color="#D8F520"/>
<stop offset="0.9999" stop-color="#D8F520" stop-opacity="0.0364583"/>
<stop offset="1" stop-color="#D8F520" stop-opacity="0"/>
</linearGradient>
<linearGradient id="paint7_linear_146_30619" x1="479.566" y1="0.710069" x2="478.94" y2="423.376" gradientUnits="userSpaceOnUse">
<stop stop-color="#D8F520"/>
<stop offset="0.9999" stop-color="#D8F520" stop-opacity="0.0364583"/>
<stop offset="1" stop-color="#D8F520" stop-opacity="0"/>
</linearGradient>
<linearGradient id="paint8_linear_146_30619" x1="458.928" y1="0.679551" x2="458.302" y2="423.346" gradientUnits="userSpaceOnUse">
<stop stop-color="#D8F520"/>
<stop offset="0.9999" stop-color="#D8F520" stop-opacity="0.0364583"/>
<stop offset="1" stop-color="#D8F520" stop-opacity="0"/>
</linearGradient>
<linearGradient id="paint9_linear_146_30619" x1="428.383" y1="0.634385" x2="427.758" y2="423.301" gradientUnits="userSpaceOnUse">
<stop stop-color="#D8F520"/>
<stop offset="0.9999" stop-color="#D8F520" stop-opacity="0.0364583"/>
<stop offset="1" stop-color="#D8F520" stop-opacity="0"/>
</linearGradient>
<linearGradient id="paint10_linear_146_30619" x1="402.792" y1="0.596543" x2="402.167" y2="423.263" gradientUnits="userSpaceOnUse">
<stop stop-color="#D8F520"/>
<stop offset="0.9999" stop-color="#D8F520" stop-opacity="0.0364583"/>
<stop offset="1" stop-color="#D8F520" stop-opacity="0"/>
</linearGradient>
<linearGradient id="paint11_linear_146_30619" x1="382.956" y1="17.0775" x2="382.33" y2="439.744" gradientUnits="userSpaceOnUse">
<stop stop-color="#D8F520"/>
<stop offset="0.9999" stop-color="#D8F520" stop-opacity="0.0364583"/>
<stop offset="1" stop-color="#D8F520" stop-opacity="0"/>
</linearGradient>
<linearGradient id="paint12_linear_146_30619" x1="364.77" y1="33.5611" x2="364.144" y2="456.227" gradientUnits="userSpaceOnUse">
<stop stop-color="#D8F520"/>
<stop offset="0.9999" stop-color="#D8F520" stop-opacity="0.0364583"/>
<stop offset="1" stop-color="#D8F520" stop-opacity="0"/>
</linearGradient>
<linearGradient id="paint13_linear_146_30619" x1="339.154" y1="50.0336" x2="338.528" y2="472.7" gradientUnits="userSpaceOnUse">
<stop stop-color="#D8F520"/>
<stop offset="0.9999" stop-color="#D8F520" stop-opacity="0.0364583"/>
<stop offset="1" stop-color="#D8F520" stop-opacity="0"/>
</linearGradient>
<linearGradient id="paint14_linear_146_30619" x1="319.323" y1="62.3871" x2="318.697" y2="485.053" gradientUnits="userSpaceOnUse">
<stop stop-color="#D8F520"/>
<stop offset="0.9999" stop-color="#D8F520" stop-opacity="0.0364583"/>
<stop offset="1" stop-color="#D8F520" stop-opacity="0"/>
</linearGradient>
<linearGradient id="paint15_linear_146_30619" x1="292.039" y1="90.4144" x2="291.414" y2="513.081" gradientUnits="userSpaceOnUse">
<stop stop-color="#D8F520"/>
<stop offset="0.9999" stop-color="#D8F520" stop-opacity="0.0364583"/>
<stop offset="1" stop-color="#D8F520" stop-opacity="0"/>
</linearGradient>
<linearGradient id="paint16_linear_146_30619" x1="276.329" y1="107.727" x2="275.703" y2="530.393" gradientUnits="userSpaceOnUse">
<stop stop-color="#D8F520"/>
<stop offset="0.9999" stop-color="#D8F520" stop-opacity="0.0364583"/>
<stop offset="1" stop-color="#D8F520" stop-opacity="0"/>
</linearGradient>
<linearGradient id="paint17_linear_146_30619" x1="263.907" y1="134.125" x2="263.281" y2="556.792" gradientUnits="userSpaceOnUse">
<stop stop-color="#D8F520"/>
<stop offset="0.9999" stop-color="#D8F520" stop-opacity="0.0364583"/>
<stop offset="1" stop-color="#D8F520" stop-opacity="0"/>
</linearGradient>
<linearGradient id="paint18_linear_146_30619" x1="252.311" y1="160.525" x2="251.685" y2="583.191" gradientUnits="userSpaceOnUse">
<stop stop-color="#D8F520"/>
<stop offset="0.9999" stop-color="#D8F520" stop-opacity="0.0364583"/>
<stop offset="1" stop-color="#D8F520" stop-opacity="0"/>
</linearGradient>
<linearGradient id="paint19_linear_146_30619" x1="239.058" y1="190.224" x2="238.433" y2="612.89" gradientUnits="userSpaceOnUse">
<stop stop-color="#D8F520"/>
<stop offset="0.9999" stop-color="#D8F520" stop-opacity="0.0364583"/>
<stop offset="1" stop-color="#D8F520" stop-opacity="0"/>
</linearGradient>
<linearGradient id="paint20_linear_146_30619" x1="219.214" y1="211.658" x2="218.588" y2="634.325" gradientUnits="userSpaceOnUse">
<stop stop-color="#D8F520"/>
<stop offset="0.9999" stop-color="#D8F520" stop-opacity="0.0364583"/>
<stop offset="1" stop-color="#D8F520" stop-opacity="0"/>
</linearGradient>
</defs>
</svg>
