<svg width="80" height="80" viewBox="0 0 80 80" fill="none" xmlns="http://www.w3.org/2000/svg">
<g id="octicon:goal-24">
<path id="Vector" d="M67.2399 22.4996H61.0366L45.8166 37.713C46.3408 39.0489 46.389 40.5246 45.9531 41.892C45.5172 43.2593 44.6238 44.4348 43.4231 45.2209C42.2224 46.007 40.7876 46.3557 39.3601 46.2083C37.9326 46.0609 36.5993 45.4265 35.5845 44.4117C34.5697 43.3969 33.9353 42.0637 33.7879 40.6361C33.6405 39.2086 33.9892 37.7738 34.7753 36.5731C35.5614 35.3724 36.7369 34.479 38.1042 34.0431C39.4716 33.6072 40.9473 33.6554 42.2833 34.1796L57.4999 18.9629V12.7596C57.5002 11.9295 57.8299 11.1335 58.4166 10.5463L64.1833 4.77962C64.2898 4.6719 64.4237 4.59538 64.5706 4.55836C64.7175 4.52135 64.8718 4.52524 65.0166 4.56962C65.3133 4.65628 65.5333 4.90295 65.5933 5.20628L67.1266 12.8763L74.7933 14.4096C75.0933 14.4696 75.3399 14.6896 75.4266 14.9863C75.4704 15.1304 75.4743 15.2837 75.4379 15.4298C75.4015 15.576 75.3262 15.7095 75.2199 15.8163L69.4499 21.5829C69.1599 21.8735 68.8154 22.104 68.4362 22.2613C68.057 22.4186 67.6505 22.4996 67.2399 22.4996Z" fill="#D8F520"/>
<path id="Vector_2" d="M8.75 40C8.75 48.288 12.0424 56.2366 17.9029 62.0971C23.7634 67.9576 31.712 71.25 40 71.25C44.1038 71.25 48.1674 70.4417 51.9589 68.8713C55.7503 67.3008 59.1953 64.9989 62.0971 62.0971C64.9989 59.1953 67.3008 55.7503 68.8712 51.9589C70.4417 48.1674 71.25 44.1038 71.25 40C71.25 37.0067 70.83 34.1134 70.0467 31.3767C69.891 30.7483 69.9851 30.0841 70.3092 29.5237C70.6333 28.9633 71.1622 28.5505 71.7845 28.3721C72.4068 28.1938 73.074 28.2638 73.6458 28.5674C74.2175 28.871 74.6492 29.3846 74.85 30C75.7633 33.18 76.25 36.5334 76.25 40C76.25 60.02 60.02 76.25 40 76.25C19.98 76.25 3.75 60.02 3.75 40C3.75 19.98 19.98 3.75002 40 3.75002C43.3833 3.74668 46.7467 4.21668 50 5.14668C50.3172 5.23567 50.6137 5.38647 50.8724 5.59042C51.1312 5.79437 51.347 6.04745 51.5076 6.33511C51.6682 6.62277 51.7704 6.93933 51.8082 7.2666C51.8461 7.59387 51.8189 7.9254 51.7281 8.24212C51.6374 8.55884 51.485 8.8545 51.2797 9.11212C51.0743 9.36973 50.82 9.58422 50.5315 9.74325C50.243 9.90227 49.9259 10.0027 49.5984 10.0388C49.2709 10.0748 48.9396 10.0458 48.6233 9.95335C45.819 9.15245 42.9165 8.74742 40 8.75002C31.712 8.75002 23.7634 12.0424 17.9029 17.9029C12.0424 23.7634 8.75 31.712 8.75 40Z" fill="#D8F520"/>
<path id="Vector_3" d="M23.7498 40.0003C23.7591 42.208 24.2183 44.3907 25.0993 46.4151C25.9803 48.4394 27.2647 50.263 28.874 51.7744C30.4832 53.2858 32.3837 54.4534 34.4593 55.2058C36.5349 55.9583 38.7421 56.2798 40.946 56.1507C43.15 56.0216 45.3046 55.4447 47.2782 54.4552C49.2518 53.4657 51.003 52.0843 52.4249 50.3953C53.8467 48.7064 54.9095 46.7454 55.5482 44.6321C56.1869 42.5187 56.3882 40.2974 56.1398 38.1036C56.0698 37.6593 56.1213 37.2044 56.2888 36.787C56.4563 36.3695 56.7336 36.0052 57.0913 35.7326C57.4491 35.4599 57.8739 35.2891 58.3207 35.2383C58.7676 35.1874 59.2199 35.2583 59.6298 35.4436C60.4665 35.8169 61.0298 36.6136 61.1031 37.5269C61.6207 41.9111 60.7595 46.3476 58.6394 50.2198C56.5193 54.0919 53.2455 57.2074 49.273 59.1331C45.3006 61.0589 40.8269 61.6992 36.4738 60.9651C32.1206 60.231 28.1043 58.1589 24.9831 55.0369C21.8628 51.9184 19.7902 47.9061 19.0529 43.5565C18.3155 39.207 18.95 34.7358 20.8682 30.7631C22.7864 26.7904 25.8934 23.513 29.7581 21.3856C33.6228 19.2581 38.0538 18.386 42.4365 18.8903C42.7678 18.921 43.0896 19.0176 43.3831 19.1743C43.6766 19.3311 43.9359 19.5448 44.1457 19.8031C44.3556 20.0613 44.5117 20.3588 44.6051 20.6782C44.6984 20.9976 44.7271 21.3324 44.6894 21.663C44.6517 21.9936 44.5483 22.3133 44.3854 22.6035C44.2225 22.8936 44.0034 23.1483 43.7408 23.3526C43.4781 23.557 43.1774 23.7068 42.8561 23.7934C42.5348 23.88 42.1995 23.9016 41.8698 23.8569C39.5932 23.5937 37.2867 23.815 35.1017 24.5061C32.9166 25.1972 30.9024 26.3426 29.1913 27.867C27.4801 29.3915 26.1107 31.2606 25.1729 33.3517C24.2351 35.4428 23.7501 37.7085 23.7498 40.0003Z" fill="#D8F520"/>
</g>
</svg>
