<svg width="32" height="33" viewBox="0 0 32 33" fill="none" xmlns="http://www.w3.org/2000/svg">
<path d="M29.3334 22.9711V26.9711C29.3349 27.3424 29.2589 27.71 29.1101 28.0502C28.9613 28.3905 28.7431 28.6959 28.4695 28.9469C28.1959 29.198 27.8728 29.3891 27.5211 29.508C27.1693 29.627 26.7966 29.6712 26.4267 29.6378C22.3239 29.192 18.3827 27.79 14.9201 25.5444C11.6985 23.4973 8.96719 20.766 6.92007 17.5444C4.66671 14.066 3.2644 10.1058 2.82674 5.98443C2.79342 5.61572 2.83724 5.24411 2.95541 4.89327C3.07357 4.54242 3.2635 4.22002 3.51309 3.94659C3.76269 3.67317 4.06648 3.45471 4.40513 3.30513C4.74378 3.15555 5.10986 3.07811 5.48007 3.07777H9.48007C10.1271 3.0714 10.7545 3.30054 11.2451 3.72248C11.7357 4.14442 12.0562 4.73036 12.1467 5.3711C12.3156 6.65119 12.6287 7.90807 13.0801 9.11777C13.2595 9.595 13.2983 10.1137 13.1919 10.6123C13.0856 11.1109 12.8386 11.5686 12.4801 11.9311L10.7867 13.6244C12.6848 16.9625 15.4487 19.7264 18.7867 21.6244L20.4801 19.9311C20.8426 19.5726 21.3003 19.3256 21.7989 19.2192C22.2975 19.1129 22.8162 19.1517 23.2934 19.3311C24.5031 19.7825 25.76 20.0956 27.0401 20.2644C27.6878 20.3558 28.2793 20.682 28.7021 21.1811C29.125 21.6801 29.3496 22.3172 29.3334 22.9711Z" stroke="#868686" stroke-width="2" stroke-linecap="round" stroke-linejoin="round"/>
</svg>
