<svg width="27" height="29" viewBox="0 0 27 29" fill="none" xmlns="http://www.w3.org/2000/svg">
<g id="Group">
<path id="Vector" d="M22.3333 12.4106L25.6667 18.4106L22.3333 19.0772V23.0772H20.3333L16.3333 22.4106L15.6667 27.0772H5.66667L4.33333 20.1566C2.28 18.2126 1 15.4612 1 12.4106C1 6.51923 5.77533 1.7439 11.6667 1.7439C17.558 1.7439 22.3333 6.51923 22.3333 12.4106Z" stroke="#868686" stroke-width="2" stroke-linecap="round" stroke-linejoin="round"/>
<path id="Vector_2" d="M8.33325 11.0772C8.33325 10.418 8.52875 9.77349 8.89502 9.22533C9.26129 8.67717 9.78189 8.24993 10.391 7.99763C11.0001 7.74534 11.6703 7.67933 12.3169 7.80795C12.9635 7.93656 13.5574 8.25403 14.0236 8.72021C14.4898 9.18638 14.8073 9.78033 14.9359 10.4269C15.0645 11.0735 14.9985 11.7438 14.7462 12.3528C14.4939 12.9619 14.0666 13.4825 13.5185 13.8488C12.9703 14.2151 12.3259 14.4106 11.6666 14.4106V16.4106M11.6666 20.4106V21.0772" stroke="#868686" stroke-width="2" stroke-linecap="round" stroke-linejoin="round"/>
</g>
</svg>
