<svg width="29" height="29" viewBox="0 0 29 29" fill="none" xmlns="http://www.w3.org/2000/svg">
<g id="radix-icons:reload">
<path id="Vector" fill-rule="evenodd" clip-rule="evenodd" d="M3.98926 14.1454C3.98926 8.86718 8.10388 3.62616 14.5085 3.62616C19.6807 3.62616 22.2388 7.45406 23.328 9.49089H20.094C19.8471 9.49089 19.6103 9.58897 19.4357 9.76355C19.2612 9.93813 19.1631 10.1749 19.1631 10.4218C19.1631 10.6687 19.2612 10.9055 19.4357 11.0801C19.6103 11.2546 19.8471 11.3527 20.094 11.3527H25.6794C25.9263 11.3527 26.1631 11.2546 26.3377 11.0801C26.5123 10.9055 26.6104 10.6687 26.6104 10.4218V4.83634C26.6104 4.58945 26.5123 4.35267 26.3377 4.17809C26.1631 4.00351 25.9263 3.90543 25.6794 3.90543C25.4326 3.90543 25.1958 4.00351 25.0212 4.17809C24.8466 4.35267 24.7485 4.58945 24.7485 4.83634V8.21182C23.4378 5.89944 20.403 1.76434 14.5085 1.76434C6.94396 1.76434 2.12744 7.97351 2.12744 14.1454C2.12744 20.3174 6.94396 26.5265 14.5085 26.5265C18.1279 26.5265 21.1403 25.0929 23.2851 22.9109C24.4233 21.7501 25.3261 20.38 25.9438 18.8763C25.9903 18.7632 26.014 18.6421 26.0136 18.5199C26.0133 18.3976 25.9889 18.2766 25.9417 18.1638C25.8946 18.051 25.8258 17.9486 25.7391 17.8624C25.6524 17.7762 25.5496 17.7079 25.4365 17.6615C25.3234 17.615 25.2023 17.5913 25.08 17.5917C24.9578 17.592 24.8368 17.6164 24.724 17.6635C24.6112 17.7107 24.5088 17.7795 24.4226 17.8662C24.3364 17.9529 24.2681 18.0557 24.2216 18.1688C23.6955 19.4497 22.9268 20.6167 21.9577 21.6057C20.1498 23.4489 17.6085 24.6647 14.5085 24.6647C8.10388 24.6647 3.98926 19.4237 3.98926 14.1454Z" fill="#D8F520"/>
</g>
</svg>
