<svg width="64" height="64" viewBox="0 0 64 64" fill="none" xmlns="http://www.w3.org/2000/svg">
<g id="fluent:people-team-24-regular">
<path id="Vector" d="M39.3447 26.6667C41.9207 26.6667 44.0113 28.7573 44.0113 31.3333V43.9973C44.0113 47.1806 42.7468 50.2336 40.4958 52.4845C38.2449 54.7354 35.192 56 32.0087 56C28.8253 56 25.7724 54.7354 23.5215 52.4845C21.2705 50.2336 20.006 47.1806 20.006 43.9973V31.3333C20.006 28.7573 22.094 26.6667 24.6727 26.6667H39.3447ZM39.3447 30.6667H24.6727C24.4958 30.6667 24.3263 30.7369 24.2012 30.8619C24.0762 30.987 24.006 31.1565 24.006 31.3333V43.9973C24.006 46.1198 24.8491 48.1553 26.3499 49.6561C27.8507 51.1569 29.8862 52 32.0087 52C34.1311 52 36.1666 51.1569 37.6674 49.6561C39.1682 48.1553 40.0113 46.1198 40.0113 43.9973V31.3333C40.0113 31.1565 39.9411 30.987 39.8161 30.8619C39.691 30.7369 39.5215 30.6667 39.3447 30.6667ZM10.0007 26.6667H19.0167C18.0758 27.8029 17.5013 29.1975 17.3687 30.6667H10.0007C9.82384 30.6667 9.65427 30.7369 9.52925 30.8619C9.40422 30.987 9.33398 31.1565 9.33398 31.3333V39.9973C9.33381 41.005 9.56199 41.9996 10.0014 42.9065C10.4408 43.8134 11.0799 44.6088 11.8709 45.2332C12.6618 45.8576 13.5839 46.2947 14.568 46.5115C15.5521 46.7284 16.5725 46.7194 17.5527 46.4853C17.7793 47.8293 18.1927 49.112 18.7607 50.304C17.1801 50.7268 15.5234 50.7805 13.9188 50.4608C12.3141 50.1412 10.8045 49.4567 9.50664 48.4604C8.20877 47.4642 7.15742 46.1827 6.43389 44.7152C5.71035 43.2477 5.33402 41.6335 5.33398 39.9973V31.3333C5.33398 28.7573 7.42465 26.6667 10.0007 26.6667ZM45.0007 26.6667H54.0007C56.5767 26.6667 58.6673 28.7573 58.6673 31.3333V40C58.6677 41.6351 58.2921 43.2484 57.5697 44.7153C56.8472 46.1821 55.7972 47.4632 54.5008 48.4596C53.2044 49.4561 51.6962 50.1411 50.0929 50.4618C48.4896 50.7825 46.834 50.7304 45.254 50.3093C45.8246 49.1147 46.238 47.832 46.4673 46.488C47.4462 46.7194 48.4648 46.7262 49.4467 46.508C50.4286 46.2898 51.3484 45.8523 52.1372 45.2282C52.926 44.604 53.5634 43.8095 54.0016 42.9041C54.4397 41.9987 54.6673 41.0059 54.6673 40V31.3333C54.6673 31.1565 54.5971 30.987 54.4721 30.8619C54.347 30.7369 54.1775 30.6667 54.0007 30.6667H46.6487C46.516 29.1975 45.9415 27.8029 45.0007 26.6667ZM32.0007 8C34.1224 8 36.1572 8.84285 37.6575 10.3431C39.1578 11.8434 40.0007 13.8783 40.0007 16C40.0007 18.1217 39.1578 20.1566 37.6575 21.6569C36.1572 23.1571 34.1224 24 32.0007 24C29.8789 24 27.8441 23.1571 26.3438 21.6569C24.8435 20.1566 24.0007 18.1217 24.0007 16C24.0007 13.8783 24.8435 11.8434 26.3438 10.3431C27.8441 8.84285 29.8789 8 32.0007 8ZM49.334 10.6667C51.1021 10.6667 52.7978 11.369 54.048 12.6193C55.2983 13.8695 56.0007 15.5652 56.0007 17.3333C56.0007 19.1014 55.2983 20.7971 54.048 22.0474C52.7978 23.2976 51.1021 24 49.334 24C47.5659 24 45.8702 23.2976 44.6199 22.0474C43.3697 20.7971 42.6673 19.1014 42.6673 17.3333C42.6673 15.5652 43.3697 13.8695 44.6199 12.6193C45.8702 11.369 47.5659 10.6667 49.334 10.6667ZM14.6673 10.6667C16.4354 10.6667 18.1311 11.369 19.3814 12.6193C20.6316 13.8695 21.334 15.5652 21.334 17.3333C21.334 19.1014 20.6316 20.7971 19.3814 22.0474C18.1311 23.2976 16.4354 24 14.6673 24C12.8992 24 11.2035 23.2976 9.95327 22.0474C8.70303 20.7971 8.00065 19.1014 8.00065 17.3333C8.00065 15.5652 8.70303 13.8695 9.95327 12.6193C11.2035 11.369 12.8992 10.6667 14.6673 10.6667ZM32.0007 12C30.9398 12 29.9224 12.4214 29.1722 13.1716C28.4221 13.9217 28.0007 14.9391 28.0007 16C28.0007 17.0609 28.4221 18.0783 29.1722 18.8284C29.9224 19.5786 30.9398 20 32.0007 20C33.0615 20 34.0789 19.5786 34.8291 18.8284C35.5792 18.0783 36.0007 17.0609 36.0007 16C36.0007 14.9391 35.5792 13.9217 34.8291 13.1716C34.0789 12.4214 33.0615 12 32.0007 12ZM49.334 14.6667C48.6267 14.6667 47.9485 14.9476 47.4484 15.4477C46.9483 15.9478 46.6673 16.6261 46.6673 17.3333C46.6673 18.0406 46.9483 18.7189 47.4484 19.219C47.9485 19.719 48.6267 20 49.334 20C50.0412 20 50.7195 19.719 51.2196 19.219C51.7197 18.7189 52.0007 18.0406 52.0007 17.3333C52.0007 16.6261 51.7197 15.9478 51.2196 15.4477C50.7195 14.9476 50.0412 14.6667 49.334 14.6667ZM14.6673 14.6667C13.9601 14.6667 13.2818 14.9476 12.7817 15.4477C12.2816 15.9478 12.0007 16.6261 12.0007 17.3333C12.0007 18.0406 12.2816 18.7189 12.7817 19.219C13.2818 19.719 13.9601 20 14.6673 20C15.3746 20 16.0528 19.719 16.5529 19.219C17.053 18.7189 17.334 18.0406 17.334 17.3333C17.334 16.6261 17.053 15.9478 16.5529 15.4477C16.0528 14.9476 15.3746 14.6667 14.6673 14.6667Z" fill="#D8F520"/>
</g>
</svg>
