<svg width="64" height="64" viewBox="0 0 64 64" fill="none" xmlns="http://www.w3.org/2000/svg">
<g id="uil:rocket">
<path id="Vector" d="M60.2689 5.49858C60.1488 5.04164 59.9095 4.6248 59.5754 4.29072C59.2413 3.95665 58.8245 3.71732 58.3675 3.59724C52.8976 2.17683 47.1377 2.33005 41.751 4.03928C36.3643 5.74851 31.5698 8.94425 27.9195 13.2586L24.9435 16.7892L17.9995 15.1146C16.3109 14.5254 14.466 14.5672 12.8058 15.2324C11.1456 15.8976 9.78222 17.1411 8.96752 18.7332L3.10086 29.1332C2.89545 29.4974 2.77855 29.9047 2.75958 30.3224C2.74062 30.7401 2.82012 31.1563 2.99168 31.5376C3.16324 31.9189 3.42204 32.2545 3.7472 32.5173C4.07236 32.7801 4.45476 32.9628 4.86352 33.0506L13.0582 34.8079C12.3643 36.9208 11.8688 39.0937 11.5782 41.2986C11.5254 41.7034 11.5662 42.1148 11.6975 42.5014C11.8288 42.8879 12.0471 43.2391 12.3355 43.5279L20.6022 51.7946C20.8501 52.0425 21.1444 52.2392 21.4684 52.3733C21.7924 52.5073 22.1396 52.5762 22.4902 52.5759C22.5668 52.5763 22.6433 52.5727 22.7195 52.5652C24.9741 52.3627 27.2014 51.9247 29.3649 51.2586L31.0822 59.2692C31.17 59.678 31.3527 60.0604 31.6155 60.3856C31.8783 60.7107 32.2139 60.9695 32.5952 61.1411C32.9764 61.3126 33.3927 61.3922 33.8104 61.3732C34.228 61.3542 34.6354 61.2373 34.9995 61.0319L45.4129 55.1599C46.8788 54.2694 48.0239 52.9361 48.6829 51.3525C49.342 49.7689 49.4809 48.0169 49.0795 46.3493L47.2982 38.9892L50.5969 35.9572C54.9269 32.3165 58.1343 27.5213 59.846 22.1293C61.5577 16.7373 61.7061 10.9701 60.2689 5.49858ZM9.52486 28.5946L13.6742 21.2346C13.9324 20.7353 14.3717 20.3536 14.9022 20.1677C15.4327 19.9818 16.0141 20.0057 16.5275 20.2346L21.1089 21.3439L19.3755 23.4026C17.7316 25.3719 16.3097 27.5164 15.1355 29.7972L9.52486 28.5946ZM42.7782 50.5199L35.5382 54.6052L34.3915 49.2586C36.7138 48.1007 38.8773 46.6488 40.8289 44.9386L42.8102 43.1172L43.8875 47.5546C44.0269 48.103 43.9953 48.6809 43.797 49.2109C43.5988 49.7409 43.2433 50.1976 42.7782 50.5199ZM47.0849 31.9466L37.2582 40.9759C33.3693 44.339 28.5725 46.4767 23.4715 47.1199L17.0582 40.7092C17.9194 35.5945 20.1296 30.8022 23.4609 26.8266L27.9382 21.5119C28.0126 21.4346 28.082 21.3526 28.1462 21.2666L31.9729 16.7199C34.8023 13.3783 38.4679 10.8474 42.5954 9.38566C46.7228 7.92395 51.1643 7.58379 55.4662 8.39991C56.3017 12.7152 55.9649 17.1756 54.4908 21.3165C53.0167 25.4574 50.4593 29.13 47.0849 31.9466ZM44.6235 15.5092C43.8324 15.5092 43.059 15.7438 42.4012 16.1834C41.7434 16.6229 41.2308 17.2476 40.928 17.9785C40.6253 18.7094 40.546 19.5137 40.7004 20.2896C40.8547 21.0655 41.2357 21.7783 41.7951 22.3377C42.3545 22.8971 43.0672 23.278 43.8432 23.4324C44.6191 23.5867 45.4234 23.5075 46.1543 23.2048C46.8852 22.902 47.5099 22.3893 47.9494 21.7315C48.3889 21.0737 48.6235 20.3004 48.6235 19.5092C48.6235 18.4484 48.2021 17.431 47.452 16.6808C46.7018 15.9307 45.6844 15.5092 44.6235 15.5092Z" fill="#D8F520"/>
</g>
</svg>
