<svg width="48" height="48" viewBox="0 0 48 48" fill="none" xmlns="http://www.w3.org/2000/svg">
<g id="icon/04">
<path id="Vector" d="M43.9999 33.84V39.84C44.0021 40.397 43.888 40.9483 43.6649 41.4586C43.4417 41.969 43.1145 42.4271 42.704 42.8037C42.2936 43.1802 41.809 43.4669 41.2814 43.6454C40.7537 43.8238 40.1946 43.8901 39.6399 43.84C33.4855 43.1712 27.5739 41.0682 22.3799 37.7C17.5475 34.6293 13.4505 30.5323 10.3799 25.7C6.99982 20.4824 4.89635 14.5419 4.23987 8.35995C4.18989 7.80688 4.25562 7.24947 4.43287 6.7232C4.61012 6.19693 4.89501 5.71333 5.2694 5.30319C5.64379 4.89306 6.09948 4.56537 6.60745 4.34099C7.11542 4.11662 7.66455 4.00047 8.21987 3.99995H14.2199C15.1905 3.9904 16.1314 4.33411 16.8674 4.96702C17.6033 5.59992 18.084 6.47884 18.2199 7.43995C18.4731 9.36008 18.9428 11.2454 19.6199 13.0599C19.889 13.7758 19.9472 14.5538 19.7877 15.3017C19.6282 16.0496 19.2576 16.7362 18.7199 17.28L16.1799 19.8199C19.027 24.827 23.1728 28.9728 28.1799 31.82L30.7199 29.28C31.2636 28.7422 31.9502 28.3716 32.6981 28.2121C33.446 28.0526 34.224 28.1109 34.9399 28.3799C36.7544 29.0571 38.6397 29.5267 40.5599 29.78C41.5314 29.917 42.4187 30.4064 43.0529 31.1549C43.6872 31.9035 44.0242 32.8591 43.9999 33.84Z" stroke="#1F1F20" stroke-width="3" stroke-linecap="round" stroke-linejoin="round"/>
</g>
</svg>
