<svg width="56" height="56" viewBox="0 0 56 56" fill="none" xmlns="http://www.w3.org/2000/svg">
<g id="ion:location-outline">
<path id="Vector" d="M28 5.25C19.3047 5.25 12.25 11.9645 12.25 20.2344C12.25 29.75 22.75 44.8295 26.6055 50.038C26.7655 50.2578 26.9753 50.4367 27.2176 50.5601C27.46 50.6834 27.7281 50.7477 28 50.7477C28.2719 50.7477 28.54 50.6834 28.7824 50.5601C29.0247 50.4367 29.2345 50.2578 29.3945 50.038C33.25 44.8317 43.75 29.7577 43.75 20.2344C43.75 11.9645 36.6953 5.25 28 5.25Z" stroke="#1F1F20" stroke-width="3" stroke-linecap="round" stroke-linejoin="round"/>
<path id="Vector_2" d="M28 26.25C30.8995 26.25 33.25 23.8995 33.25 21C33.25 18.1005 30.8995 15.75 28 15.75C25.1005 15.75 22.75 18.1005 22.75 21C22.75 23.8995 25.1005 26.25 28 26.25Z" stroke="#1F1F20" stroke-width="3" stroke-linecap="round" stroke-linejoin="round"/>
</g>
</svg>
