<svg width="49" height="48" viewBox="0 0 49 48" fill="none" xmlns="http://www.w3.org/2000/svg">
<g id="ic:round-close">
<path id="Vector" d="M36.2433 12.4795L36.2444 12.4806C36.322 12.5582 36.375 12.677 36.375 12.82C36.375 12.963 36.322 13.0817 36.2444 13.1593L26.4644 22.9393L25.4037 24L26.4644 25.0606L36.2444 34.8406C36.2902 34.8865 36.3266 34.941 36.3515 35.0009C36.3763 35.0608 36.3891 35.1251 36.3891 35.19C36.3891 35.2548 36.3763 35.3191 36.3515 35.379C36.3266 35.439 36.2903 35.4934 36.2444 35.5393C36.1985 35.5852 36.144 35.6216 36.0841 35.6464C36.0242 35.6712 35.9599 35.684 35.895 35.684C35.8302 35.684 35.7659 35.6712 35.706 35.6464C35.646 35.6216 35.5916 35.5852 35.5457 35.5393L25.7657 25.7593L24.705 24.6986L23.6444 25.7593L13.8644 35.5393C13.8185 35.5852 13.764 35.6216 13.7041 35.6464C13.6442 35.6712 13.5799 35.684 13.515 35.684C13.4502 35.684 13.3859 35.6712 13.326 35.6464C13.266 35.6216 13.2116 35.5852 13.1657 35.5393C13.1198 35.4934 13.0834 35.439 13.0586 35.379C13.0338 35.3191 13.021 35.2548 13.021 35.19C13.021 35.1251 13.0338 35.0608 13.0586 35.0009C13.0834 34.941 13.1198 34.8865 13.1657 34.8406L12.1108 33.7857L13.1657 34.8406L22.9457 25.0606L24.0064 24L22.9457 22.9393L13.1657 13.1593L12.105 14.22L13.1657 13.1593C13.1198 13.1134 13.0834 13.059 13.0586 12.999C13.0338 12.9391 13.021 12.8748 13.021 12.81C13.021 12.7451 13.0338 12.6808 13.0586 12.6209C13.0834 12.561 13.1198 12.5065 13.1657 12.4606C13.2116 12.4147 13.266 12.3784 13.326 12.3535C13.3859 12.3287 13.4502 12.3159 13.515 12.3159C13.5799 12.3159 13.6442 12.3287 13.7041 12.3535C13.764 12.3784 13.8185 12.4147 13.8644 12.4606L14.925 11.4L13.8644 12.4606L23.6444 22.2406L24.704 23.3002L25.7646 22.2417L35.5446 12.4817L35.5468 12.4795C35.5925 12.4337 35.6468 12.3974 35.7065 12.3726C35.7663 12.3478 35.8303 12.3351 35.895 12.3351C35.9597 12.3351 36.0238 12.3478 36.0835 12.3726C36.1433 12.3974 36.1976 12.4337 36.2433 12.4795Z" fill="black" stroke="#D8F520" stroke-width="3"/>
</g>
</svg>
