<svg xmlns="http://www.w3.org/2000/svg" width="173" height="32" viewBox="0 0 173 32" fill="none">
    <path d="M28.9785 13.0357V0H34.2114C35.5647 0 36.5951 0.316582 37.3028 0.949745C38.0228 1.57049 38.3829 2.37126 38.3829 3.35204C38.3829 4.17143 38.1594 4.82942 37.7124 5.32602C37.2779 5.81021 36.7441 6.1392 36.1109 6.31301C36.8558 6.46199 37.4704 6.83444 37.9545 7.43036C38.4387 8.01386 38.6808 8.69669 38.6808 9.47883C38.6808 10.5093 38.3084 11.3597 37.5635 12.0301C36.8186 12.7005 35.7633 13.0357 34.3977 13.0357H28.9785ZM31.3622 5.475H33.8576C34.528 5.475 35.0432 5.31982 35.4033 5.00944C35.7633 4.69907 35.9433 4.25834 35.9433 3.68725C35.9433 3.14099 35.7633 2.71267 35.4033 2.4023C35.0556 2.07951 34.528 1.91811 33.8204 1.91811H31.3622V5.475ZM31.3622 11.099H34.0252C34.7329 11.099 35.2791 10.9376 35.664 10.6148C36.0613 10.2796 36.2599 9.81404 36.2599 9.21812C36.2599 8.60978 36.0551 8.13181 35.6454 7.78419C35.2357 7.43657 34.6832 7.26276 33.988 7.26276H31.3622V11.099Z" fill="white"/>
    <path d="M40.5244 13.0357L45.2918 0H47.9734L52.7408 13.0357H50.2081L49.1653 10.0189H44.0813L43.0198 13.0357H40.5244ZM44.7331 8.15664H48.5135L46.614 2.7375L44.7331 8.15664Z" fill="white"/>
    <path d="M54.7738 13.0357V11.2107L60.7703 1.9926H54.8297V0H63.5264V1.825L57.4927 11.0431H63.5636V13.0357H54.7738Z" fill="white"/>
    <path d="M65.6197 13.0357L70.387 0H73.0686L77.836 13.0357H75.3033L74.2605 10.0189H69.1765L68.1151 13.0357H65.6197ZM69.8283 8.15664H73.6087L71.7092 2.7375L69.8283 8.15664Z" fill="white"/>
    <path d="M80.2601 13.0357V0H85.0461C86.0889 0 86.9456 0.180017 87.616 0.540052C88.2988 0.887671 88.8078 1.36565 89.143 1.97398C89.4782 2.5699 89.6458 3.2341 89.6458 3.96658C89.6458 4.76114 89.4348 5.48742 89.0127 6.14541C88.603 6.80341 87.9574 7.28138 87.0759 7.57934L89.7762 13.0357H87.0387L84.6178 7.89592H82.6438V13.0357H80.2601ZM82.6438 6.14541H84.8971C85.6917 6.14541 86.2752 5.95298 86.6476 5.56812C87.0201 5.18325 87.2063 4.67424 87.2063 4.04107C87.2063 3.42032 87.0201 2.92373 86.6476 2.55128C86.2876 2.17883 85.6979 1.9926 84.8785 1.9926H82.6438V6.14541Z" fill="white"/>
    <path d="M29.0034 31.7765V18.7407H33.4542C34.9813 18.7407 36.2352 19.0138 37.216 19.56C38.2092 20.0939 38.9416 20.8514 39.4134 21.8321C39.8976 22.8005 40.1397 23.9427 40.1397 25.2587C40.1397 26.5747 39.8976 27.723 39.4134 28.7038C38.9416 29.6722 38.2092 30.4295 37.216 30.9758C36.2352 31.5096 34.9813 31.7765 33.4542 31.7765H29.0034ZM31.3871 29.7281H33.3425C34.435 29.7281 35.2978 29.5542 35.931 29.2066C36.5642 28.8466 37.0173 28.3376 37.2905 27.6796C37.5636 27.0092 37.7001 26.2022 37.7001 25.2587C37.7001 24.3275 37.5636 23.5268 37.2905 22.8564C37.0173 22.186 36.5642 21.6706 35.931 21.3106C35.2978 20.9505 34.435 20.7705 33.3425 20.7705H31.3871V29.7281Z" fill="white"/>
    <path d="M42.9877 31.7765V18.7407H51.4982V20.6588H45.3714V24.2344H50.9396V26.0967H45.3714V29.8584H51.4982V31.7765H42.9877Z" fill="white"/>
    <path d="M58.2791 31.7765L53.5118 18.7407H56.0631L59.7503 29.337L63.4562 18.7407H65.9702L61.2029 31.7765H58.2791Z" fill="white"/>
    <path d="M68.2649 31.7765V18.7407H76.7753V20.6588H70.6485V24.2344H76.2167V26.0967H70.6485V29.8584H76.7753V31.7765H68.2649Z" fill="white"/>
    <path d="M79.7759 31.7765V18.7407H82.1595V29.9143H87.9325V31.7765H79.7759Z" fill="white"/>
    <path d="M95.7038 32C94.4002 32 93.258 31.7145 92.2772 31.1434C91.3088 30.5723 90.5453 29.7839 89.9867 28.7783C89.4404 27.7603 89.1673 26.5871 89.1673 25.2587C89.1673 23.9303 89.4404 22.7633 89.9867 21.7576C90.5453 20.7396 91.3088 19.9449 92.2772 19.3738C93.258 18.8027 94.4002 18.5172 95.7038 18.5172C96.9949 18.5172 98.1309 18.8027 99.1117 19.3738C100.092 19.9449 100.856 20.7396 101.402 21.7576C101.948 22.7633 102.222 23.9303 102.222 25.2587C102.222 26.5871 101.948 27.7603 101.402 28.7783C100.856 29.7839 100.092 30.5723 99.1117 31.1434C98.1309 31.7145 96.9949 32 95.7038 32ZM95.7038 29.8584C96.9452 29.8584 97.9322 29.4487 98.6647 28.6293C99.4096 27.8099 99.7821 26.6864 99.7821 25.2587C99.7821 23.8309 99.4096 22.7074 98.6647 21.888C97.9322 21.0686 96.9452 20.6588 95.7038 20.6588C94.4622 20.6588 93.4691 21.0686 92.7242 21.888C91.9793 22.7074 91.6068 23.8309 91.6068 25.2587C91.6068 26.6864 91.9793 27.8099 92.7242 28.6293C93.4691 29.4487 94.4622 29.8584 95.7038 29.8584Z" fill="white"/>
    <path d="M105.071 31.7765V18.7407H109.894C110.937 18.7407 111.8 18.9145 112.483 19.2621C113.166 19.6097 113.675 20.0877 114.01 20.696C114.345 21.3043 114.513 21.9873 114.513 22.7446C114.513 23.4647 114.351 24.1289 114.028 24.7372C113.706 25.3332 113.203 25.8173 112.52 26.1898C111.837 26.5498 110.962 26.7298 109.894 26.7298H107.455V31.7765H105.071ZM107.455 24.7931H109.745C110.577 24.7931 111.173 24.6131 111.533 24.2531C111.905 23.8806 112.092 23.3778 112.092 22.7446C112.092 22.0991 111.905 21.5961 111.533 21.2361C111.173 20.8636 110.577 20.6774 109.745 20.6774H107.455V24.7931Z" fill="white"/>
    <path d="M117.128 31.7765V18.7407H119.958L124.111 27.0092L128.208 18.7407H131.039V31.7765H128.655V22.7819L125.024 29.9143H123.143L119.511 22.7819V31.7765H117.128Z" fill="white"/>
    <path d="M134.313 31.7765V18.7407H142.823V20.6588H136.696V24.2344H142.264V26.0967H136.696V29.8584H142.823V31.7765H134.313Z" fill="white"/>
    <path d="M145.824 31.7765V18.7407H148.207L154.334 27.9217V18.7407H156.718V31.7765H154.334L148.207 22.6143V31.7765H145.824Z" fill="white"/>
    <path d="M163.025 31.7765V20.6588H159.226V18.7407H169.227V20.6588H165.409V31.7765H163.025Z" fill="white"/>
    <path d="M171.214 31.9069C170.78 31.9069 170.42 31.7703 170.134 31.4972C169.861 31.2241 169.725 30.8951 169.725 30.5102C169.725 30.1129 169.861 29.7777 170.134 29.5046C170.42 29.2315 170.78 29.0949 171.214 29.0949C171.649 29.0949 172.003 29.2315 172.276 29.5046C172.561 29.7777 172.704 30.1129 172.704 30.5102C172.704 30.8951 172.561 31.2241 172.276 31.4972C172.003 31.7703 171.649 31.9069 171.214 31.9069Z" fill="white"/>
    <path d="M20.6254 0.00544213L23.2896 0.00537109L2.57791 31.7709H0L20.6254 0.00544213Z" fill="#D8F520"/>
</svg>
