<svg width="685" height="617" viewBox="0 0 685 617" fill="none" xmlns="http://www.w3.org/2000/svg">
<path d="M249.978 272.937C232.481 310.943 64.3901 290.844 67.3935 373.323C70.624 462.041 275.462 343.137 304.718 427.036C325.045 485.332 295.782 555.791 221.072 591.478" stroke="url(#paint0_linear_181_28528)" stroke-width="8.7" stroke-linecap="square"/>
<path d="M327.938 111.355C354.548 42.4752 505.025 -3.65172 553.952 62.7947C606.58 134.267 372.225 168.521 401.474 252.401C421.797 310.683 488.523 347.657 569.223 329.15" stroke="url(#paint1_linear_181_28528)" stroke-width="8.7" stroke-linecap="round"/>
<g clip-path="url(#clip0_181_28528)">
<path d="M332.068 102.802C332.584 103.051 333.047 103.399 333.428 103.826C333.81 104.254 334.104 104.752 334.292 105.294C334.481 105.835 334.561 106.408 334.528 106.98C334.495 107.552 334.349 108.112 334.099 108.628L325.161 127.138C332.352 131.798 337.595 138.922 339.908 147.173C342.221 155.423 341.445 164.235 337.724 171.954L336.117 175.283L336.101 175.316L334.445 178.745C333.389 180.928 331.51 182.602 329.22 183.401C326.931 184.199 324.418 184.056 322.234 183.003L275.371 160.372C274.289 159.85 273.32 159.119 272.521 158.223C271.721 157.326 271.106 156.28 270.71 155.146C270.314 154.011 270.146 152.81 270.215 151.61C270.283 150.41 270.588 149.236 271.11 148.154L274.388 141.382C278.115 133.662 284.534 127.57 292.437 124.249C300.341 120.929 309.185 120.61 317.307 123.352L326.243 104.834C326.491 104.317 326.839 103.855 327.267 103.473C327.694 103.092 328.193 102.798 328.734 102.609C329.275 102.421 329.848 102.341 330.42 102.374C330.992 102.407 331.552 102.552 332.068 102.802ZM317.487 132.813C311.173 129.791 303.919 129.394 297.313 131.708C290.707 134.022 285.287 138.858 282.239 145.159L280.631 148.489C280.387 148.993 280.245 149.542 280.213 150.101C280.181 150.661 280.259 151.222 280.444 151.751C280.629 152.281 280.916 152.769 281.289 153.187C281.662 153.606 282.114 153.947 282.619 154.191L322.569 173.483C324.68 174.509 327.234 173.628 328.26 171.516L328.271 171.494L329.879 168.165C332.92 161.86 333.34 154.607 331.044 147.994C328.748 141.38 323.925 135.947 317.631 132.883L317.556 132.853L317.487 132.813ZM280.782 180.68C281.822 181.183 282.62 182.078 283.001 183.169C283.381 184.26 283.313 185.457 282.81 186.497L273.981 204.766L288.33 211.695L297.148 193.421C297.397 192.905 297.745 192.443 298.173 192.062C298.601 191.681 299.099 191.388 299.64 191.199C300.181 191.01 300.754 190.93 301.326 190.963C301.898 190.996 302.458 191.141 302.973 191.39C303.489 191.639 303.951 191.987 304.332 192.415C304.714 192.842 305.007 193.341 305.196 193.882C305.384 194.423 305.464 194.995 305.432 195.567C305.399 196.139 305.254 196.699 305.005 197.215L296.176 215.484L301.136 217.879C304.237 219.377 306.615 222.045 307.749 225.296C308.883 228.547 308.678 232.115 307.181 235.216L305.574 238.545C301.846 246.265 295.428 252.357 287.524 255.677C279.621 258.997 270.777 259.317 262.655 256.575L253.716 275.085C253.213 276.127 252.316 276.926 251.224 277.307C250.131 277.688 248.932 277.619 247.89 277.116C246.849 276.613 246.049 275.717 245.668 274.624C245.287 273.532 245.356 272.333 245.859 271.291L254.806 252.778C247.61 248.123 242.362 241 240.047 232.748C237.732 224.496 238.51 215.683 242.234 207.965L243.842 204.635C244.583 203.099 245.62 201.724 246.893 200.588C248.166 199.452 249.65 198.579 251.261 198.017C252.872 197.456 254.577 197.217 256.28 197.315C257.984 197.412 259.651 197.845 261.186 198.587L266.136 200.977L274.954 182.703C275.202 182.187 275.55 181.725 275.978 181.343C276.405 180.961 276.904 180.668 277.445 180.479C277.986 180.29 278.559 180.21 279.131 180.243C279.703 180.276 280.263 180.422 280.779 180.672L280.782 180.68ZM262.461 247.1C268.775 250.128 276.031 250.53 282.641 248.216C289.25 245.903 294.673 241.064 297.72 234.759L299.328 231.43C299.571 230.925 299.713 230.377 299.745 229.817C299.778 229.257 299.699 228.697 299.514 228.167C299.33 227.638 299.043 227.15 298.669 226.731C298.296 226.313 297.844 225.972 297.339 225.728L257.39 206.436C256.371 205.946 255.2 205.88 254.132 206.252C253.065 206.624 252.189 207.404 251.696 208.421L250.088 211.75C247.041 218.067 246.626 225.335 248.935 231.957C251.244 238.579 256.088 244.013 262.402 247.065L262.461 247.1Z" fill="#D8F520"/>
</g>
<defs>
<linearGradient id="paint0_linear_181_28528" x1="151.675" y1="304.701" x2="248.357" y2="581.964" gradientUnits="userSpaceOnUse">
<stop stop-color="#D8F520"/>
<stop offset="1" stop-color="#D8F520" stop-opacity="0"/>
</linearGradient>
<linearGradient id="paint1_linear_181_28528" x1="274" y1="168.001" x2="531.082" y2="342.45" gradientUnits="userSpaceOnUse">
<stop offset="0.237122" stop-color="#D8F520"/>
<stop offset="1" stop-color="#D8F520" stop-opacity="0"/>
</linearGradient>
<clipPath id="clip0_181_28528">
<rect width="174.278" height="174.278" fill="white" transform="translate(179.008 136.37) rotate(-19.2237)"/>
</clipPath>
</defs>
</svg>
