<svg width="443" height="467" viewBox="0 0 443 467" fill="none" xmlns="http://www.w3.org/2000/svg">
<path d="M243.199 219.89C220.908 168.727 162.864 150.707 113.542 179.677C64.2202 208.647 42.3338 273.615 64.6251 324.778C86.9164 375.941 144.961 393.961 194.282 364.991C243.604 336.021 265.49 271.052 243.199 219.89Z" stroke="url(#paint0_linear_583_2482)" stroke-opacity="0.22"/>
<path d="M246.699 227.729C224.408 176.566 166.364 158.546 117.042 187.516C67.7206 216.486 45.8341 281.455 68.1254 332.617C90.4168 383.78 148.461 401.8 197.783 372.83C247.104 343.86 268.991 278.892 246.699 227.729Z" stroke="url(#paint1_linear_583_2482)" stroke-opacity="0.22"/>
<path d="M254.323 234.609C232.032 183.447 173.988 165.427 124.666 194.396C75.3444 223.366 53.4579 288.335 75.7492 339.498C98.0406 390.661 156.085 408.681 205.406 379.711C254.728 350.741 276.614 285.772 254.323 234.609Z" stroke="url(#paint2_linear_583_2482)" stroke-opacity="0.22"/>
<path d="M261.784 242.052C239.493 190.889 181.449 172.869 132.127 201.839C82.8057 230.809 60.9192 295.778 83.2105 346.941C105.502 398.103 163.546 416.123 212.868 387.154C262.189 358.184 284.076 293.215 261.784 242.052Z" stroke="url(#paint3_linear_583_2482)" stroke-opacity="0.22"/>
<path d="M265.119 249.518C242.828 198.355 184.783 180.335 135.462 209.305C86.1401 238.275 64.2537 303.243 86.545 354.406C108.836 405.569 166.88 423.589 216.202 394.619C265.524 365.649 287.41 300.681 265.119 249.518Z" stroke="url(#paint4_linear_583_2482)" stroke-opacity="0.22"/>
<path d="M277.675 251.695C255.384 200.532 197.34 182.512 148.018 211.482C98.6965 240.451 76.8101 305.42 99.1014 356.583C121.393 407.746 179.437 425.766 228.758 396.796C278.08 367.826 299.967 302.857 277.675 251.695Z" stroke="url(#paint5_linear_583_2482)" stroke-opacity="0.22"/>
<path d="M288.585 254.815C266.294 203.652 208.25 185.632 158.928 214.602C109.606 243.572 87.7199 308.541 110.011 359.703C132.303 410.866 190.347 428.886 239.668 399.916C288.99 370.946 310.876 305.978 288.585 254.815Z" stroke="url(#paint6_linear_583_2482)" stroke-opacity="0.22"/>
<path d="M298.795 248.959C276.504 197.796 218.46 179.776 169.138 208.746C119.816 237.716 97.9298 302.685 120.221 353.847C142.512 405.01 200.557 423.03 249.878 394.06C299.2 365.09 321.086 300.122 298.795 248.959Z" stroke="url(#paint7_linear_583_2482)" stroke-opacity="0.22"/>
<path d="M307.03 244.236C284.738 193.073 226.694 175.053 177.373 204.023C128.051 232.993 106.164 297.962 128.456 349.124C150.747 400.287 208.791 418.307 258.113 389.337C307.434 360.367 329.321 295.399 307.03 244.236Z" stroke="url(#paint8_linear_583_2482)" stroke-opacity="0.22"/>
<path d="M319.217 237.246C296.926 186.084 238.882 168.063 189.56 197.033C140.238 226.003 118.352 290.972 140.643 342.135C162.935 393.298 220.979 411.318 270.3 382.348C319.622 353.378 341.508 288.409 319.217 237.246Z" stroke="url(#paint9_linear_583_2482)" stroke-opacity="0.22"/>
<path d="M329.427 231.39C307.136 180.227 249.092 162.207 199.77 191.177C150.449 220.147 128.562 285.115 150.853 336.278C173.145 387.441 231.189 405.461 280.511 376.491C329.832 347.521 351.719 282.552 329.427 231.39Z" stroke="url(#paint10_linear_583_2482)" stroke-opacity="0.22"/>
<path d="M333.999 219.39C311.708 168.227 253.664 150.207 204.342 179.177C155.02 208.147 133.134 273.115 155.425 324.278C177.716 375.441 235.761 393.461 285.082 364.491C334.404 335.521 356.29 270.553 333.999 219.39Z" stroke="url(#paint11_linear_583_2482)" stroke-opacity="0.22"/>
<path d="M337.912 207.768C315.62 156.605 257.576 138.585 208.255 167.555C158.933 196.525 137.046 261.493 159.338 312.656C181.629 363.819 239.673 381.839 288.995 352.869C338.316 323.899 360.203 258.931 337.912 207.768Z" stroke="url(#paint12_linear_583_2482)" stroke-opacity="0.22"/>
<path d="M344.788 194.446C322.497 143.283 264.453 125.263 215.131 154.233C165.809 183.203 143.923 248.172 166.214 299.335C188.506 350.497 246.55 368.517 295.871 339.548C345.193 310.578 367.08 245.609 344.788 194.446Z" stroke="url(#paint13_linear_583_2482)" stroke-opacity="0.22"/>
<path d="M350.193 184.313C327.902 133.15 269.858 115.13 220.536 144.1C171.214 173.07 149.328 238.038 171.619 289.201C193.911 340.364 251.955 358.384 301.276 329.414C350.598 300.444 372.485 235.475 350.193 184.313Z" stroke="url(#paint14_linear_583_2482)" stroke-opacity="0.22"/>
<path d="M355.395 165.387C333.104 114.224 275.06 96.2039 225.738 125.174C176.417 154.144 154.53 219.112 176.821 270.275C199.113 321.438 257.157 339.458 306.478 310.488C355.8 281.518 377.687 216.55 355.395 165.387Z" stroke="url(#paint15_linear_583_2482)" stroke-opacity="0.22"/>
<path d="M358.153 153.958C335.862 102.795 277.818 84.7751 228.496 113.745C179.174 142.715 157.288 207.684 179.579 258.846C201.871 310.009 259.915 328.029 309.236 299.059C358.558 270.089 380.445 205.121 358.153 153.958Z" stroke="url(#paint16_linear_583_2482)" stroke-opacity="0.22"/>
<path d="M357.76 139.179C335.469 88.0161 277.424 69.9961 228.103 98.966C178.781 127.936 156.895 192.905 179.186 244.067C201.477 295.23 259.521 313.25 308.843 284.28C358.165 255.31 380.051 190.342 357.76 139.179Z" stroke="url(#paint17_linear_583_2482)" stroke-opacity="0.22"/>
<path d="M357.037 124.589C334.745 73.4264 276.701 55.4064 227.38 84.3763C178.058 113.346 156.172 178.315 178.463 229.478C200.754 280.64 258.798 298.66 308.12 269.691C357.442 240.721 379.328 175.752 357.037 124.589Z" stroke="url(#paint18_linear_583_2482)" stroke-opacity="0.22"/>
<path d="M356.306 108.128C334.015 56.9652 275.97 38.9452 226.649 67.9151C177.327 96.885 155.441 161.854 177.732 213.016C200.023 264.179 258.067 282.199 307.389 253.229C356.711 224.259 378.597 159.291 356.306 108.128Z" stroke="url(#paint19_linear_583_2482)" stroke-opacity="0.22"/>
<path d="M359.877 93.8882C337.586 42.7254 279.542 24.7053 230.22 53.6752C180.899 82.6451 159.012 147.614 181.303 198.777C203.595 249.939 261.639 267.959 310.961 238.989C360.282 210.02 382.169 145.051 359.877 93.8882Z" stroke="url(#paint20_linear_583_2482)" stroke-opacity="0.22"/>
<defs>
<linearGradient id="paint0_linear_583_2482" x1="194.482" y1="365.45" x2="92.3409" y2="191.553" gradientUnits="userSpaceOnUse">
<stop stop-color="#D8F520"/>
<stop offset="0.9999" stop-color="#D8F520" stop-opacity="0.0364583"/>
<stop offset="1" stop-color="#D8F520" stop-opacity="0"/>
</linearGradient>
<linearGradient id="paint1_linear_583_2482" x1="197.982" y1="373.289" x2="95.8413" y2="199.393" gradientUnits="userSpaceOnUse">
<stop stop-color="#D8F520"/>
<stop offset="0.9999" stop-color="#D8F520" stop-opacity="0.0364583"/>
<stop offset="1" stop-color="#D8F520" stop-opacity="0"/>
</linearGradient>
<linearGradient id="paint2_linear_583_2482" x1="205.606" y1="380.169" x2="103.465" y2="206.273" gradientUnits="userSpaceOnUse">
<stop stop-color="#D8F520"/>
<stop offset="0.9999" stop-color="#D8F520" stop-opacity="0.0364583"/>
<stop offset="1" stop-color="#D8F520" stop-opacity="0"/>
</linearGradient>
<linearGradient id="paint3_linear_583_2482" x1="213.068" y1="387.612" x2="110.926" y2="213.716" gradientUnits="userSpaceOnUse">
<stop stop-color="#D8F520"/>
<stop offset="0.9999" stop-color="#D8F520" stop-opacity="0.0364583"/>
<stop offset="1" stop-color="#D8F520" stop-opacity="0"/>
</linearGradient>
<linearGradient id="paint4_linear_583_2482" x1="216.402" y1="395.078" x2="114.261" y2="221.181" gradientUnits="userSpaceOnUse">
<stop stop-color="#D8F520"/>
<stop offset="0.9999" stop-color="#D8F520" stop-opacity="0.0364583"/>
<stop offset="1" stop-color="#D8F520" stop-opacity="0"/>
</linearGradient>
<linearGradient id="paint5_linear_583_2482" x1="228.958" y1="397.255" x2="126.817" y2="223.358" gradientUnits="userSpaceOnUse">
<stop stop-color="#D8F520"/>
<stop offset="0.9999" stop-color="#D8F520" stop-opacity="0.0364583"/>
<stop offset="1" stop-color="#D8F520" stop-opacity="0"/>
</linearGradient>
<linearGradient id="paint6_linear_583_2482" x1="239.868" y1="400.375" x2="137.727" y2="226.478" gradientUnits="userSpaceOnUse">
<stop stop-color="#D8F520"/>
<stop offset="0.9999" stop-color="#D8F520" stop-opacity="0.0364583"/>
<stop offset="1" stop-color="#D8F520" stop-opacity="0"/>
</linearGradient>
<linearGradient id="paint7_linear_583_2482" x1="250.078" y1="394.519" x2="147.937" y2="220.623" gradientUnits="userSpaceOnUse">
<stop stop-color="#D8F520"/>
<stop offset="0.9999" stop-color="#D8F520" stop-opacity="0.0364583"/>
<stop offset="1" stop-color="#D8F520" stop-opacity="0"/>
</linearGradient>
<linearGradient id="paint8_linear_583_2482" x1="258.313" y1="389.796" x2="156.172" y2="215.9" gradientUnits="userSpaceOnUse">
<stop stop-color="#D8F520"/>
<stop offset="0.9999" stop-color="#D8F520" stop-opacity="0.0364583"/>
<stop offset="1" stop-color="#D8F520" stop-opacity="0"/>
</linearGradient>
<linearGradient id="paint9_linear_583_2482" x1="270.5" y1="382.806" x2="168.359" y2="208.91" gradientUnits="userSpaceOnUse">
<stop stop-color="#D8F520"/>
<stop offset="0.9999" stop-color="#D8F520" stop-opacity="0.0364583"/>
<stop offset="1" stop-color="#D8F520" stop-opacity="0"/>
</linearGradient>
<linearGradient id="paint10_linear_583_2482" x1="280.711" y1="376.95" x2="178.569" y2="203.053" gradientUnits="userSpaceOnUse">
<stop stop-color="#D8F520"/>
<stop offset="0.9999" stop-color="#D8F520" stop-opacity="0.0364583"/>
<stop offset="1" stop-color="#D8F520" stop-opacity="0"/>
</linearGradient>
<linearGradient id="paint11_linear_583_2482" x1="285.282" y1="364.95" x2="183.141" y2="191.053" gradientUnits="userSpaceOnUse">
<stop stop-color="#D8F520"/>
<stop offset="0.9999" stop-color="#D8F520" stop-opacity="0.0364583"/>
<stop offset="1" stop-color="#D8F520" stop-opacity="0"/>
</linearGradient>
<linearGradient id="paint12_linear_583_2482" x1="289.195" y1="353.328" x2="187.054" y2="179.431" gradientUnits="userSpaceOnUse">
<stop stop-color="#D8F520"/>
<stop offset="0.9999" stop-color="#D8F520" stop-opacity="0.0364583"/>
<stop offset="1" stop-color="#D8F520" stop-opacity="0"/>
</linearGradient>
<linearGradient id="paint13_linear_583_2482" x1="296.071" y1="340.006" x2="193.93" y2="166.11" gradientUnits="userSpaceOnUse">
<stop stop-color="#D8F520"/>
<stop offset="0.9999" stop-color="#D8F520" stop-opacity="0.0364583"/>
<stop offset="1" stop-color="#D8F520" stop-opacity="0"/>
</linearGradient>
<linearGradient id="paint14_linear_583_2482" x1="301.476" y1="329.873" x2="199.335" y2="155.976" gradientUnits="userSpaceOnUse">
<stop stop-color="#D8F520"/>
<stop offset="0.9999" stop-color="#D8F520" stop-opacity="0.0364583"/>
<stop offset="1" stop-color="#D8F520" stop-opacity="0"/>
</linearGradient>
<linearGradient id="paint15_linear_583_2482" x1="306.678" y1="310.947" x2="204.537" y2="137.05" gradientUnits="userSpaceOnUse">
<stop stop-color="#D8F520"/>
<stop offset="0.9999" stop-color="#D8F520" stop-opacity="0.0364583"/>
<stop offset="1" stop-color="#D8F520" stop-opacity="0"/>
</linearGradient>
<linearGradient id="paint16_linear_583_2482" x1="309.436" y1="299.518" x2="207.295" y2="125.622" gradientUnits="userSpaceOnUse">
<stop stop-color="#D8F520"/>
<stop offset="0.9999" stop-color="#D8F520" stop-opacity="0.0364583"/>
<stop offset="1" stop-color="#D8F520" stop-opacity="0"/>
</linearGradient>
<linearGradient id="paint17_linear_583_2482" x1="309.043" y1="284.739" x2="206.902" y2="110.843" gradientUnits="userSpaceOnUse">
<stop stop-color="#D8F520"/>
<stop offset="0.9999" stop-color="#D8F520" stop-opacity="0.0364583"/>
<stop offset="1" stop-color="#D8F520" stop-opacity="0"/>
</linearGradient>
<linearGradient id="paint18_linear_583_2482" x1="308.32" y1="270.149" x2="206.179" y2="96.2528" gradientUnits="userSpaceOnUse">
<stop stop-color="#D8F520"/>
<stop offset="0.9999" stop-color="#D8F520" stop-opacity="0.0364583"/>
<stop offset="1" stop-color="#D8F520" stop-opacity="0"/>
</linearGradient>
<linearGradient id="paint19_linear_583_2482" x1="307.589" y1="253.688" x2="205.448" y2="79.7915" gradientUnits="userSpaceOnUse">
<stop stop-color="#D8F520"/>
<stop offset="0.9999" stop-color="#D8F520" stop-opacity="0.0364583"/>
<stop offset="1" stop-color="#D8F520" stop-opacity="0"/>
</linearGradient>
<linearGradient id="paint20_linear_583_2482" x1="311.16" y1="239.448" x2="209.019" y2="65.5517" gradientUnits="userSpaceOnUse">
<stop stop-color="#D8F520"/>
<stop offset="0.9999" stop-color="#D8F520" stop-opacity="0.0364583"/>
<stop offset="1" stop-color="#D8F520" stop-opacity="0"/>
</linearGradient>
</defs>
</svg>
